<svg id="Layer_1" data-name="Layer 1" xmlns="http://www.w3.org/2000/svg" viewBox="0 0 500 397"><title>401</title><path d="M448,104.91H221.27A40.17,40.17,0,0,0,181.22,145h0a9.85,9.85,0,0,1-9.85,9.85H59.86A48,48,0,0,0,12,202.67V336.32a48,48,0,0,0,47.86,47.85H330.74a48,48,0,0,0,47.86-47.85h0a39.48,39.48,0,0,1,39.47-39.48H448a40.16,40.16,0,0,0,40.05-40V145A40.16,40.16,0,0,0,448,104.91Z" style="fill:#d2dbe8"/><path d="M80.93,57.78V217.43a13.51,13.51,0,0,0,13.52,13.51h314a13.51,13.51,0,0,0,13.52-13.51V57.78Z" style="fill:#fff"/><path d="M421.92,30.45A13.51,13.51,0,0,0,408.4,16.94H94.45A13.51,13.51,0,0,0,80.93,30.45V57.78h341Z" style="fill:#084298;stroke:#084298;stroke-miterlimit:10;stroke-width:5px"/><path d="M421.92,139.51V57.78h-341V217.43a13.51,13.51,0,0,0,13.52,13.51H313.68" style="fill:none;stroke:#084298;stroke-miterlimit:10;stroke-width:5px"/><path d="M203.67,188.82H200c-1,0-1.48-.53-1.48-1.61v-16H159.48c-1.35,0-2-.62-2-1.88v-2.43a7.35,7.35,0,0,1,.94-3.1l35.3-59.55a3.67,3.67,0,0,1,3.23-2h6.34c1.25,0,1.88.68,1.88,2v60.9h10.11c1,0,1.48.45,1.48,1.35v3.23a1.31,1.31,0,0,1-1.48,1.48H205.15v16C205.15,188.29,204.66,188.82,203.67,188.82Zm-5.12-23.71V107.58l-34,57.53Z" style="fill:#084298"/><path d="M262.68,188.82H249.21q-8.76,0-13.88-5.12t-5.12-14V121.32q0-8.88,5.12-14t13.88-5.12h13.47q8.76,0,13.81,5.12t5.05,14v48.37q0,8.9-5.05,14T262.68,188.82Zm-12.93-6.06h12.39q6.19,0,9.43-3.43t3.24-9.91V121.59q0-6.47-3.24-9.9t-9.43-3.44H249.75q-6.21,0-9.44,3.44t-3.23,9.9v47.83q0,6.47,3.23,9.91T249.75,182.76Z" style="fill:#084298"/><path d="M295.42,118.49v-3A3.27,3.27,0,0,1,297,112.7l17-9.57a4.92,4.92,0,0,1,2.83-.94h3.5c1,0,1.49.54,1.49,1.62v83.4c0,1.08-.5,1.61-1.49,1.61h-3.9c-.9,0-1.35-.53-1.35-1.61V109.47l-17.38,9.83Q295.42,120.79,295.42,118.49Z" style="fill:#084298"/><path d="M56.93,292.83H37.37V258.25H56.93V263H43v9.41h13v4.73H43V288H56.93Z" style="fill:#084298"/><path d="M77.08,266.2a13.25,13.25,0,0,1,2.77.24l-.55,5.18a10.36,10.36,0,0,0-2.46-.29,7.12,7.12,0,0,0-5.4,2.18,7.85,7.85,0,0,0-2.07,5.65v13.67H63.81V266.67h4.35l.74,4.61h.28a10.47,10.47,0,0,1,3.39-3.71A8.12,8.12,0,0,1,77.08,266.2Z" style="fill:#084298"/><path d="M98,266.2a13.08,13.08,0,0,1,2.76.24l-.54,5.18a10.49,10.49,0,0,0-2.46-.29,7.12,7.12,0,0,0-5.4,2.18,7.85,7.85,0,0,0-2.07,5.65v13.67H84.7V266.67h4.35l.73,4.61h.29a10.29,10.29,0,0,1,3.39-3.71A8.12,8.12,0,0,1,98,266.2Z" style="fill:#084298"/><path d="M128.79,279.71q0,6.41-3.29,10t-9.15,3.6a12.61,12.61,0,0,1-6.49-1.66,10.9,10.9,0,0,1-4.32-4.75,16.22,16.22,0,0,1-1.52-7.19q0-6.37,3.27-9.94t9.2-3.57a11.56,11.56,0,0,1,9,3.65Q128.78,273.51,128.79,279.71Zm-19,0q0,9.06,6.69,9.05t6.62-9.05q0-9-6.67-9a5.68,5.68,0,0,0-5.07,2.32A11.78,11.78,0,0,0,109.75,279.71Z" style="fill:#084298"/><path d="M148.44,266.2a13.18,13.18,0,0,1,2.77.24l-.54,5.18a10.49,10.49,0,0,0-2.46-.29,7.13,7.13,0,0,0-5.41,2.18,7.85,7.85,0,0,0-2.07,5.65v13.67h-5.56V266.67h4.36l.73,4.61h.28a10.41,10.41,0,0,1,3.4-3.71A8.07,8.07,0,0,1,148.44,266.2Z" style="fill:#084298"/><path d="M64.47,307.38v22.38a13.2,13.2,0,0,1-1.64,6.7,11,11,0,0,1-4.75,4.43,16.6,16.6,0,0,1-7.44,1.55q-6.44,0-10-3.41t-3.57-9.37V307.38h5.68v21.88c0,2.86.66,5,2,6.32s3.36,2,6.11,2q8,0,8-8.4V307.38Z" style="fill:#084298"/><path d="M95.74,342H90.16V325.88a7,7,0,0,0-1.22-4.52,4.71,4.71,0,0,0-3.86-1.49c-2.35,0-4.07.7-5.16,2.08s-1.63,3.72-1.63,7v13H72.73V315.8h4.35l.78,3.43h.29a7.71,7.71,0,0,1,3.35-2.88,11.24,11.24,0,0,1,4.83-1q9.42,0,9.41,9.58Z" style="fill:#084298"/><path d="M119.85,342l-1.12-3.64h-.18a10.81,10.81,0,0,1-3.81,3.25,12,12,0,0,1-4.92.87,8.36,8.36,0,0,1-6-2.08,7.78,7.78,0,0,1-2.17-5.89,6.92,6.92,0,0,1,3-6.11q3-2.06,9.15-2.24l4.52-.15v-1.39a5.3,5.3,0,0,0-1.17-3.75,4.76,4.76,0,0,0-3.63-1.24,12.71,12.71,0,0,0-3.86.59,29.72,29.72,0,0,0-3.55,1.39l-1.79-4a19.52,19.52,0,0,1,4.66-1.69,21.17,21.17,0,0,1,4.77-.58q5,0,7.54,2.18t2.54,6.83V342Zm-8.28-3.78a6.87,6.87,0,0,0,4.86-1.69,6.14,6.14,0,0,0,1.83-4.74v-2.28l-3.36.15a11.46,11.46,0,0,0-5.71,1.31,4,4,0,0,0-1.79,3.58,3.48,3.48,0,0,0,1,2.71A4.45,4.45,0,0,0,111.57,338.18Z" style="fill:#084298"/><path d="M150,342l-.78-3.43H149a7.87,7.87,0,0,1-3.3,2.87,11,11,0,0,1-4.88,1q-4.75,0-7.1-2.37t-2.34-7.17V315.8H137v16.13a7,7,0,0,0,1.23,4.51,4.69,4.69,0,0,0,3.85,1.5c2.34,0,4.05-.69,5.15-2.09s1.64-3.73,1.64-7v-13h5.58V342Z" style="fill:#084298"/><path d="M172.07,337.94a13.35,13.35,0,0,0,4.07-.64v4.19a11.54,11.54,0,0,1-2.38.68,16.44,16.44,0,0,1-3,.27q-7.91,0-7.9-8.33V320h-3.57v-2.46l3.83-2L165,310h3.43v5.82h7.45V320h-7.45v14a3.9,3.9,0,0,0,1,3A3.66,3.66,0,0,0,172.07,337.94Z" style="fill:#084298"/><path d="M204.38,342H198.8V325.88a7,7,0,0,0-1.22-4.52,4.71,4.71,0,0,0-3.86-1.49,6.16,6.16,0,0,0-5.15,2.09q-1.63,2.1-1.64,7v13h-5.56v-36.8h5.56v9.34a43.39,43.39,0,0,1-.29,4.8H187a7.71,7.71,0,0,1,3.16-2.93,10.2,10.2,0,0,1,4.72-1q9.5,0,9.5,9.58Z" style="fill:#084298"/><path d="M235.32,328.84q0,6.41-3.28,10t-9.16,3.6a12.6,12.6,0,0,1-6.48-1.66,10.92,10.92,0,0,1-4.33-4.75,16.22,16.22,0,0,1-1.51-7.19q0-6.37,3.26-9.94t9.2-3.57a11.54,11.54,0,0,1,9,3.65Q235.33,322.64,235.32,328.84Zm-19,0q0,9.06,6.7,9.06t6.62-9.06q0-9-6.67-9a5.68,5.68,0,0,0-5.08,2.32A11.88,11.88,0,0,0,216.28,328.84Z" style="fill:#084298"/><path d="M255,315.33a13.25,13.25,0,0,1,2.77.24l-.55,5.18a10.49,10.49,0,0,0-2.46-.29,7.12,7.12,0,0,0-5.4,2.18,7.85,7.85,0,0,0-2.07,5.65V342h-5.56V315.8h4.35l.73,4.62h.29a10.42,10.42,0,0,1,3.39-3.72A8.12,8.12,0,0,1,255,315.33Z" style="fill:#084298"/><path d="M262.26,308.87a3.08,3.08,0,0,1,.82-2.29,3.17,3.17,0,0,1,2.33-.81,3.08,3.08,0,0,1,2.28.81,3.54,3.54,0,0,1,0,4.53,3.08,3.08,0,0,1-2.28.81,3.17,3.17,0,0,1-2.33-.81A3.05,3.05,0,0,1,262.26,308.87ZM268.15,342H262.6V315.8h5.55Z" style="fill:#084298"/><path d="M293.58,342H273.74v-3.43L287,320.06H274.54V315.8H293.2v3.88l-12.94,18h13.32Z" style="fill:#084298"/><path d="M310.68,342.44c-4.06,0-7.25-1.19-9.54-3.56s-3.44-5.64-3.44-9.81,1.06-7.63,3.19-10.07a11,11,0,0,1,8.78-3.67,10.76,10.76,0,0,1,8.18,3.15c2,2.09,3,5,3,8.65v3H303.42a8.59,8.59,0,0,0,2.06,5.85,7.13,7.13,0,0,0,5.46,2.05,20.26,20.26,0,0,0,4.32-.44,23.09,23.09,0,0,0,4.29-1.45v4.51a16.87,16.87,0,0,1-4.11,1.38A26,26,0,0,1,310.68,342.44Zm-1-22.9a5.6,5.6,0,0,0-4.25,1.68,8,8,0,0,0-1.9,4.9h11.87a7.23,7.23,0,0,0-1.56-4.91A5.35,5.35,0,0,0,309.67,319.54Z" style="fill:#084298"/><path d="M336,342.44a9.13,9.13,0,0,1-7.64-3.55q-2.75-3.56-2.74-10t2.78-10a9.19,9.19,0,0,1,7.7-3.58,9,9,0,0,1,7.85,3.81h.28a34.73,34.73,0,0,1-.4-4.45v-9.53h5.58V342h-4.35l-1-3.43h-.26A8.87,8.87,0,0,1,336,342.44Zm1.49-4.5q3.43,0,5-1.93c1-1.28,1.58-3.37,1.61-6.25V329c0-3.3-.53-5.64-1.61-7a6,6,0,0,0-5-2.08,5.09,5.09,0,0,0-4.52,2.38,12.14,12.14,0,0,0-1.59,6.78,11.9,11.9,0,0,0,1.54,6.63A5.19,5.19,0,0,0,337.48,337.94Z" style="fill:#084298"/><circle cx="112.01" cy="37.36" r="10.66" style="fill:#fff"/><circle cx="112.01" cy="37.36" r="5.11" style="fill:#084298"/><circle cx="147.53" cy="37.36" r="10.66" style="fill:#fff"/><circle cx="183.05" cy="37.36" r="10.66" style="fill:#fff"/><path d="M363.24,262.19a18,18,0,0,1-18-18V211.69A18.08,18.08,0,0,1,360.12,194V178.83h.39a32.63,32.63,0,0,1,64.78,3.36V194a18.09,18.09,0,0,1,14.9,17.74v32.48a18,18,0,0,1-18,18Zm44.83-68.52.14-11.17a15.58,15.58,0,0,0-30.94-.49l.11,11.66Z" style="fill:#084298"/><path d="M392.71,154.48a29.64,29.64,0,0,1,29.58,27.89v14.31a15,15,0,0,1,14.9,15v32.48a15,15,0,0,1-15,15H363.24a15,15,0,0,1-15-15V211.69a15,15,0,0,1,14.89-15V181.83h.05a29.63,29.63,0,0,1,29.54-27.35m-18.3,42.19H411l.18-14.3a18.59,18.59,0,0,0-36.95-.54l.15,14.84m18.3-48.19a35.66,35.66,0,0,0-34.66,27.35h-.88l-.05,6v9.76a21.1,21.1,0,0,0-14.89,20.1v32.48a21,21,0,0,0,21,21h58.93a21,21,0,0,0,21-21V211.69a21.09,21.09,0,0,0-14.9-20.1V182a35.65,35.65,0,0,0-35.57-33.54Zm-12.44,33.73a12.59,12.59,0,0,1,24.94.43l-.1,8H380.35l-.08-8.46Z" style="fill:#fff"/><path d="M400.81,228.08a8.11,8.11,0,1,0-11.53,7.34v11.94h6.86V235.42A8.09,8.09,0,0,0,400.81,228.08Z" style="fill:#fff"/></svg>