<svg id="Layer_1" data-name="Layer 1" xmlns="http://www.w3.org/2000/svg" viewBox="0 0 500 386"><title>403</title><path d="M448,97.91H221.27A40.17,40.17,0,0,0,181.22,138h0a9.85,9.85,0,0,1-9.85,9.85H59.86A48,48,0,0,0,12,195.67V329.32a48,48,0,0,0,47.86,47.85H330.74a48,48,0,0,0,47.86-47.85h0a39.48,39.48,0,0,1,39.47-39.48H448a40.16,40.16,0,0,0,40.05-40V138A40.16,40.16,0,0,0,448,97.91Z" style="fill:#d2dbe8"/><path d="M80.93,50.78V210.43a13.51,13.51,0,0,0,13.52,13.51h314a13.51,13.51,0,0,0,13.52-13.51V50.78Z" style="fill:#fff"/><path d="M421.92,23.45A13.51,13.51,0,0,0,408.4,9.94H94.45A13.51,13.51,0,0,0,80.93,23.45V50.78h341Z" style="fill:#084298;stroke:#084298;stroke-miterlimit:10;stroke-width:5px"/><path d="M421.92,132.51V50.78h-341V210.43a13.51,13.51,0,0,0,13.52,13.51H313.68" style="fill:none;stroke:#084298;stroke-miterlimit:10;stroke-width:5px"/><path d="M192.15,181.82h-3.64c-1,0-1.48-.53-1.48-1.61v-16H148c-1.35,0-2-.62-2-1.88v-2.43a7.35,7.35,0,0,1,.94-3.1l35.3-59.55a3.67,3.67,0,0,1,3.23-2h6.34c1.25,0,1.88.68,1.88,2v60.9h10.11c1,0,1.48.45,1.48,1.35v3.23a1.31,1.31,0,0,1-1.48,1.48H193.63v16C193.63,181.29,193.14,181.82,192.15,181.82ZM187,158.11V100.58l-33.95,57.53Z" style="fill:#084298"/><path d="M251.16,181.82H237.69q-8.76,0-13.88-5.12t-5.12-14V114.32q0-8.88,5.12-14t13.88-5.12h13.47q8.76,0,13.81,5.12t5,14v48.37q0,8.9-5,14T251.16,181.82Zm-12.93-6.06h12.39q6.19,0,9.43-3.43t3.24-9.91V114.59q0-6.47-3.24-9.9t-9.43-3.44H238.23q-6.19,0-9.43,3.44t-3.24,9.9v47.83q0,6.47,3.24,9.91T238.23,175.76Z" style="fill:#084298"/><path d="M309.37,135.21h8.08q12.8,0,12.8-12.8v-8.36q0-12.93-12.8-12.93H307.08q-12.81,0-12.8,12.93v4.85c0,1-.45,1.49-1.35,1.49H289a1.31,1.31,0,0,1-1.48-1.49v-5q0-8.76,5.12-13.74t13.88-5H318q8.76,0,13.88,5T337,113.92v8.62q0,12.4-11.19,15.63Q337,141.28,337,153.93v9.17q0,8.76-5.12,13.74t-13.88,5H306.54q-8.76,0-13.88-5t-5.12-13.74V157c0-1.07.49-1.61,1.48-1.61h3.91c.9,0,1.35.54,1.35,1.61V163q0,12.93,12.8,12.94h10.37q12.8,0,12.8-12.94v-8.89q0-12.93-12.8-12.93h-8.08a1.32,1.32,0,0,1-1.49-1.49v-3A1.31,1.31,0,0,1,309.37,135.21Z" style="fill:#084298"/><path d="M58.82,311.83l-3.45-9.6H42.14l-3.38,9.6h-6l12.94-34.72h6.15l12.94,34.72Zm-4.94-14.47-3.24-9.42c-.24-.63-.57-1.62-1-3s-.7-2.35-.86-3a51.82,51.82,0,0,1-1.87,6.36l-3.12,9Z" style="fill:#084298"/><path d="M79.35,312.31q-5.94,0-9-3.47t-3.09-9.95c0-4.39,1.08-7.78,3.23-10.14s5.26-3.55,9.33-3.55a17.42,17.42,0,0,1,7.45,1.54l-1.68,4.47a16.76,16.76,0,0,0-5.82-1.38q-6.78,0-6.79,9,0,4.39,1.7,6.61a5.85,5.85,0,0,0,5,2.21,14.33,14.33,0,0,0,7-1.84v4.84a10.89,10.89,0,0,1-3.18,1.26A19.3,19.3,0,0,1,79.35,312.31Z" style="fill:#084298"/><path d="M103.34,312.31q-5.94,0-9-3.47t-3.08-9.95c0-4.39,1.07-7.78,3.23-10.14s5.26-3.55,9.33-3.55a17.45,17.45,0,0,1,7.45,1.54l-1.68,4.47a16.76,16.76,0,0,0-5.82-1.38q-6.8,0-6.79,9,0,4.39,1.69,6.61a5.87,5.87,0,0,0,5,2.21,14.32,14.32,0,0,0,7-1.84v4.84a10.68,10.68,0,0,1-3.18,1.26A19.2,19.2,0,0,1,103.34,312.31Z" style="fill:#084298"/><path d="M128.2,312.31q-6.1,0-9.55-3.56t-3.44-9.81q0-6.4,3.19-10.07a11,11,0,0,1,8.78-3.67,10.8,10.8,0,0,1,8.18,3.14q3,3.15,3,8.66v3H120.93a8.61,8.61,0,0,0,2.06,5.85,7.21,7.21,0,0,0,5.47,2.05,20.23,20.23,0,0,0,4.31-.44,22.3,22.3,0,0,0,4.3-1.46v4.52A16.62,16.62,0,0,1,133,311.9,25,25,0,0,1,128.2,312.31Zm-1-22.9a5.6,5.6,0,0,0-4.25,1.68A8,8,0,0,0,121,296H132.9a7.23,7.23,0,0,0-1.56-4.91A5.3,5.3,0,0,0,127.18,289.41Z" style="fill:#084298"/><path d="M162.26,304.38a6.84,6.84,0,0,1-2.79,5.88c-1.86,1.36-4.53,2.05-8,2.05a18.88,18.88,0,0,1-8.4-1.59v-4.8a20.64,20.64,0,0,0,8.59,2.13q5.13,0,5.13-3.1a2.52,2.52,0,0,0-.56-1.66,7,7,0,0,0-1.87-1.37,33.58,33.58,0,0,0-3.62-1.61q-4.52-1.74-6.12-3.5a6.48,6.48,0,0,1-1.59-4.54,5.94,5.94,0,0,1,2.71-5.21,12.81,12.81,0,0,1,7.36-1.86,20.78,20.78,0,0,1,8.73,1.87l-1.8,4.18a19.51,19.51,0,0,0-7.12-1.75q-4.4,0-4.4,2.51a2.52,2.52,0,0,0,1.15,2.08,25,25,0,0,0,5,2.34,23.37,23.37,0,0,1,4.71,2.3,6.85,6.85,0,0,1,2.18,2.4A7,7,0,0,1,162.26,304.38Z" style="fill:#084298"/><path d="M185.84,304.38a6.84,6.84,0,0,1-2.79,5.88c-1.86,1.36-4.53,2.05-8,2.05a18.8,18.8,0,0,1-8.39-1.59v-4.8a20.56,20.56,0,0,0,8.58,2.13c3.42,0,5.14-1,5.14-3.1a2.48,2.48,0,0,0-.57-1.66,6.88,6.88,0,0,0-1.87-1.37,32.7,32.7,0,0,0-3.62-1.61q-4.51-1.74-6.11-3.5a6.44,6.44,0,0,1-1.6-4.54,5.94,5.94,0,0,1,2.71-5.21,12.82,12.82,0,0,1,7.37-1.86,20.77,20.77,0,0,1,8.72,1.87l-1.79,4.18a19.6,19.6,0,0,0-7.12-1.75c-2.94,0-4.4.84-4.4,2.51a2.51,2.51,0,0,0,1.14,2.08,25.21,25.21,0,0,0,5,2.34,23,23,0,0,1,4.7,2.3,6.76,6.76,0,0,1,2.18,2.4A7,7,0,0,1,185.84,304.38Z" style="fill:#084298"/><path d="M233.15,294.21q0,8.57-4.76,13.09t-13.69,4.53H205V277.25h10.69q8.26,0,12.85,4.45T233.15,294.21Zm-6,.19q0-12.42-11.62-12.42h-4.89v25.1h4Q227.18,307.08,227.19,294.4Z" style="fill:#084298"/><path d="M251.41,312.31q-6.1,0-9.55-3.56t-3.44-9.81q0-6.4,3.2-10.07a11,11,0,0,1,8.77-3.67,10.8,10.8,0,0,1,8.18,3.14q3,3.15,3,8.66v3H244.15a8.56,8.56,0,0,0,2,5.85,7.21,7.21,0,0,0,5.47,2.05,20.23,20.23,0,0,0,4.31-.44,22.3,22.3,0,0,0,4.3-1.46v4.52a16.62,16.62,0,0,1-4.12,1.37A25,25,0,0,1,251.41,312.31Zm-1-22.9a5.6,5.6,0,0,0-4.25,1.68,8.06,8.06,0,0,0-1.9,4.9h11.87a7.23,7.23,0,0,0-1.56-4.91A5.3,5.3,0,0,0,250.39,289.41Z" style="fill:#084298"/><path d="M290.91,311.83h-5.58V295.75a7,7,0,0,0-1.22-4.52,4.72,4.72,0,0,0-3.87-1.49q-3.53,0-5.16,2.08c-1.08,1.39-1.63,3.72-1.63,7v13h-5.56V285.67h4.36l.78,3.43h.28a7.73,7.73,0,0,1,3.36-2.88,11.22,11.22,0,0,1,4.82-1q9.42,0,9.42,9.58Z" style="fill:#084298"/><path d="M298.31,278.74a3,3,0,0,1,.82-2.29,3.16,3.16,0,0,1,2.33-.81,3.08,3.08,0,0,1,2.28.81,3.54,3.54,0,0,1,0,4.53,3.08,3.08,0,0,1-2.28.81,3.16,3.16,0,0,1-2.33-.81A3,3,0,0,1,298.31,278.74Zm5.89,33.09h-5.56V285.67h5.56Z" style="fill:#084298"/><path d="M323.57,312.31c-4.06,0-7.25-1.19-9.54-3.56s-3.44-5.65-3.44-9.81,1.06-7.63,3.19-10.07a11,11,0,0,1,8.78-3.67,10.8,10.8,0,0,1,8.18,3.14c2,2.1,3,5,3,8.66v3H316.31a8.61,8.61,0,0,0,2.06,5.85,7.17,7.17,0,0,0,5.46,2.05,20.26,20.26,0,0,0,4.32-.44,22.23,22.23,0,0,0,4.29-1.46v4.52a16.42,16.42,0,0,1-4.11,1.37A25.05,25.05,0,0,1,323.57,312.31Zm-1-22.9a5.6,5.6,0,0,0-4.25,1.68,8,8,0,0,0-1.9,4.9h11.87a7.23,7.23,0,0,0-1.56-4.91A5.32,5.32,0,0,0,322.56,289.41Z" style="fill:#084298"/><path d="M348.88,312.31a9.13,9.13,0,0,1-7.64-3.55q-2.75-3.56-2.74-10t2.78-10a9.19,9.19,0,0,1,7.7-3.58,9,9,0,0,1,7.85,3.81h.29a33.31,33.31,0,0,1-.41-4.45V275h5.58v36.8h-4.35l-1-3.43h-.26A8.89,8.89,0,0,1,348.88,312.31Zm1.49-4.5q3.44,0,5-1.93c1.05-1.28,1.58-3.37,1.61-6.25v-.78c0-3.3-.53-5.64-1.61-7a6,6,0,0,0-5-2.08,5.11,5.11,0,0,0-4.52,2.38,12.12,12.12,0,0,0-1.59,6.77,11.91,11.91,0,0,0,1.54,6.64A5.19,5.19,0,0,0,350.37,307.81Z" style="fill:#084298"/><circle cx="112.01" cy="30.36" r="10.66" style="fill:#fff"/><circle cx="112.01" cy="30.36" r="5.11" style="fill:#084298"/><circle cx="147.53" cy="30.36" r="10.66" style="fill:#fff"/><circle cx="183.05" cy="30.36" r="10.66" style="fill:#fff"/><circle cx="406" cy="205" r="62" style="fill:#084298"/><path d="M406,146a59,59,0,1,1-59,59,59,59,0,0,1,59-59m0-6a65,65,0,1,0,65,65,65.08,65.08,0,0,0-65-65Z" style="fill:#fff"/><path d="M420,187.75q0,9.88,0,19.77a2.47,2.47,0,0,0,4.66,1.27c2-3.51,4-7,6.08-10.52a6.65,6.65,0,0,1,5.81-3.41,4,4,0,0,1,.91.08,1.93,1.93,0,0,1,1.4,2.77c-1.23,2.54-2.47,5.06-3.71,7.59l-4.53,9.27c-.74,1.51-1.43,3.06-2.24,4.54-.57,1-1.29,2-2,3-2.22,3.28-4.45,6.56-6.66,9.85a15.24,15.24,0,0,1-3.45,4,11.46,11.46,0,0,1-6.79,2.48c-4,.05-8,.12-12,0a11.51,11.51,0,0,1-9.05-5,12.47,12.47,0,0,1-2.18-5.21c-.55-2.87-1.18-5.72-1.73-8.6a48.48,48.48,0,0,1-.84-9.16q0-15.15,0-30.28a3.35,3.35,0,0,1,4.13-3.38,3.41,3.41,0,0,1,2.61,3.24c0,1.84,0,3.68,0,5.51v8.75a1.52,1.52,0,0,0,1.53,1.68,1.57,1.57,0,0,0,1.54-1.69V167.94a3.38,3.38,0,0,1,5.93-2.29,3.45,3.45,0,0,1,.84,2.37q0,9.27,0,18.55,0,3.92,0,7.83a1.51,1.51,0,0,0,1.25,1.51,1.54,1.54,0,0,0,1.8-1.35c0-.22,0-.44,0-.67V163.47a3.26,3.26,0,0,1,1.61-3,3.38,3.38,0,0,1,5.16,2.82V164q0,15.1,0,30.21a1.59,1.59,0,0,0,.76,1.52,1.54,1.54,0,0,0,2.32-1.28c0-.18,0-.35,0-.52v-26a3.36,3.36,0,0,1,3.21-3.44,3.31,3.31,0,0,1,3.52,3.22c.06,1.41,0,2.82,0,4.23v15.8Z" style="fill:#fff"/><line x1="453.32" y1="167.21" x2="358.68" y2="242.79" style="fill:#fff;stroke:#fff;stroke-miterlimit:10;stroke-width:8px"/></svg>