<svg id="Layer_1" data-name="Layer 1" xmlns="http://www.w3.org/2000/svg" viewBox="0 0 500 389"><title>404</title><path d="M448,99.91H221.27A40.17,40.17,0,0,0,181.22,140h0a9.85,9.85,0,0,1-9.85,9.85H59.86A48,48,0,0,0,12,197.67V331.32a48,48,0,0,0,47.86,47.85H330.74a48,48,0,0,0,47.86-47.85h0a39.48,39.48,0,0,1,39.47-39.48H448a40.16,40.16,0,0,0,40.05-40V140A40.16,40.16,0,0,0,448,99.91Z" style="fill:#d2dbe8"/><path d="M80.93,52.78V212.43a13.51,13.51,0,0,0,13.52,13.51h314a13.51,13.51,0,0,0,13.52-13.51V52.78Z" style="fill:#fff"/><path d="M421.92,25.45A13.51,13.51,0,0,0,408.4,11.94H94.45A13.51,13.51,0,0,0,80.93,25.45V52.78h341Z" style="fill:#084298;stroke:#084298;stroke-miterlimit:10;stroke-width:5px"/><path d="M421.92,134.51V52.78h-341V212.43a13.51,13.51,0,0,0,13.52,13.51H313.68" style="fill:none;stroke:#084298;stroke-miterlimit:10;stroke-width:5px"/><path d="M192.15,183.82h-3.64c-1,0-1.48-.53-1.48-1.61v-16H148c-1.35,0-2-.62-2-1.88v-2.43a7.35,7.35,0,0,1,.94-3.1l35.3-59.55a3.67,3.67,0,0,1,3.23-2h6.34c1.25,0,1.88.68,1.88,2v60.9h10.11c1,0,1.48.45,1.48,1.35v3.23a1.31,1.31,0,0,1-1.48,1.48H193.63v16C193.63,183.29,193.14,183.82,192.15,183.82ZM187,160.11V102.58l-33.95,57.53Z" style="fill:#084298"/><path d="M251.16,183.82H237.69q-8.76,0-13.88-5.12t-5.12-14V116.32q0-8.88,5.12-14t13.88-5.12h13.47q8.76,0,13.81,5.12t5,14v48.37q0,8.9-5,14T251.16,183.82Zm-12.93-6.06h12.39q6.19,0,9.43-3.43t3.24-9.91V116.59q0-6.47-3.24-9.9t-9.43-3.44H238.23q-6.21,0-9.43,3.44t-3.24,9.9v47.83q0,6.47,3.24,9.91T238.23,177.76Z" style="fill:#084298"/><path d="M331.46,183.82h-3.64c-1,0-1.48-.53-1.48-1.61v-16H287.27c-1.35,0-2-.62-2-1.88v-2.43a7.35,7.35,0,0,1,.94-3.1l35.3-59.55a3.67,3.67,0,0,1,3.23-2h6.34c1.25,0,1.88.68,1.88,2v60.9h10.11c1,0,1.48.45,1.48,1.35v3.23a1.31,1.31,0,0,1-1.48,1.48H332.94v16C332.94,183.29,332.45,183.82,331.46,183.82Zm-5.12-23.71V102.58l-33.95,57.53Z" style="fill:#084298"/><path d="M60.26,263.71c0,3.61-1.18,6.37-3.55,8.3s-5.73,2.88-10.09,2.88H43v12.94H37.37V253.25h10q6.48,0,9.71,2.65C59.19,257.67,60.26,260.27,60.26,263.71ZM43,270.14h3q4.35,0,6.39-1.51a5.5,5.5,0,0,0,2-4.73,5.36,5.36,0,0,0-1.82-4.45Q50.8,258,47,258H43Z" style="fill:#084298"/><path d="M83,287.83l-1.11-3.64h-.19a10.73,10.73,0,0,1-3.81,3.25,12,12,0,0,1-4.92.87,8.32,8.32,0,0,1-6-2.09,7.79,7.79,0,0,1-2.17-5.89,6.9,6.9,0,0,1,3-6.1q3-2.06,9.15-2.24l4.52-.15v-1.39a5.3,5.3,0,0,0-1.17-3.75,4.76,4.76,0,0,0-3.63-1.24,12.41,12.41,0,0,0-3.86.59,29.72,29.72,0,0,0-3.55,1.39l-1.79-4a19.52,19.52,0,0,1,4.66-1.69,21.17,21.17,0,0,1,4.77-.58c3.33,0,5.84.72,7.54,2.18s2.54,3.72,2.54,6.83v17.62Zm-8.28-3.78a6.91,6.91,0,0,0,4.86-1.69,6.15,6.15,0,0,0,1.83-4.75v-2.27l-3.36.15a11.46,11.46,0,0,0-5.71,1.31,4,4,0,0,0-1.78,3.58,3.48,3.48,0,0,0,1,2.71A4.45,4.45,0,0,0,74.67,284.05Z" style="fill:#084298"/><path d="M116.77,261.67v3.05l-4.47.83a7.2,7.2,0,0,1,1,2,7.92,7.92,0,0,1,.4,2.55,7.81,7.81,0,0,1-2.79,6.36q-2.79,2.33-7.69,2.32a12.18,12.18,0,0,1-2.27-.19,3.13,3.13,0,0,0-1.8,2.6,1.45,1.45,0,0,0,.84,1.35,7.27,7.27,0,0,0,3.09.45h4.56q4.34,0,6.58,1.85a6.48,6.48,0,0,1,2.25,5.32,7.74,7.74,0,0,1-3.67,6.86q-3.66,2.42-10.6,2.41-5.34,0-8.16-1.89a6.12,6.12,0,0,1-2.81-5.39,5.73,5.73,0,0,1,1.53-4.06A8,8,0,0,1,97,285.85a4.22,4.22,0,0,1-1.83-1.53,3.85,3.85,0,0,1-.72-2.21,3.79,3.79,0,0,1,.83-2.48,9.61,9.61,0,0,1,2.46-2,7.21,7.21,0,0,1-3.3-2.85,9.28,9.28,0,0,1,1.42-11.22q2.68-2.34,7.65-2.34a19.07,19.07,0,0,1,2.33.15,16.29,16.29,0,0,1,1.83.32ZM96.22,291.9a3.06,3.06,0,0,0,1.62,2.77,8.84,8.84,0,0,0,4.55,1q4.55,0,6.76-1.3a3.9,3.9,0,0,0,2.23-3.46,2.59,2.59,0,0,0-1.22-2.42,9.79,9.79,0,0,0-4.53-.72h-4.21a5.93,5.93,0,0,0-3.8,1.12A3.7,3.7,0,0,0,96.22,291.9Zm2.39-21.76a5.26,5.26,0,0,0,1.26,3.78,4.75,4.75,0,0,0,3.63,1.33q4.83,0,4.83-5.16a5.85,5.85,0,0,0-1.2-3.94,4.53,4.53,0,0,0-3.63-1.38,4.68,4.68,0,0,0-3.65,1.37A5.77,5.77,0,0,0,98.61,270.14Z" style="fill:#084298"/><path d="M133,288.31c-4.06,0-7.25-1.19-9.54-3.56s-3.44-5.65-3.44-9.81,1.06-7.63,3.19-10.07A11,11,0,0,1,132,261.2a10.8,10.8,0,0,1,8.18,3.14c2,2.1,3,5,3,8.66v3H125.78a8.61,8.61,0,0,0,2.06,5.85,7.19,7.19,0,0,0,5.46,2.05,20.26,20.26,0,0,0,4.32-.44,22.77,22.77,0,0,0,4.3-1.46v4.52a16.62,16.62,0,0,1-4.12,1.37A25.05,25.05,0,0,1,133,288.31Zm-1-22.9a5.6,5.6,0,0,0-4.25,1.68,8,8,0,0,0-1.9,4.9h11.87a7.23,7.23,0,0,0-1.56-4.91A5.32,5.32,0,0,0,132,265.41Z" style="fill:#084298"/><path d="M66.18,341.83H59.25l-17-27.55h-.19l.12,1.53q.33,4.41.33,8.05v18H37.37V307.25h6.86l17,27.42h.14c0-.37-.1-1.69-.19-4s-.14-4.05-.14-5.33V307.25h5.18Z" style="fill:#084298"/><path d="M97.92,328.71q0,6.41-3.29,10t-9.15,3.6A12.55,12.55,0,0,1,79,340.65a10.92,10.92,0,0,1-4.33-4.75,16.22,16.22,0,0,1-1.52-7.19q0-6.37,3.27-9.94t9.2-3.57a11.56,11.56,0,0,1,9,3.65Q97.92,322.51,97.92,328.71Zm-19,0q0,9.06,6.69,9.05t6.63-9.05q0-9-6.67-9a5.68,5.68,0,0,0-5.08,2.32A11.78,11.78,0,0,0,78.88,328.71Z" style="fill:#084298"/><path d="M114.05,337.81a13.4,13.4,0,0,0,4.07-.64v4.19a11.16,11.16,0,0,1-2.38.67,16.43,16.43,0,0,1-3,.28q-7.91,0-7.9-8.33v-14.1h-3.58v-2.46l3.84-2,1.89-5.54h3.43v5.82h7.45v4.21h-7.45v14a3.91,3.91,0,0,0,1,3A3.66,3.66,0,0,0,114.05,337.81Z" style="fill:#084298"/><path d="M142.13,341.83h-5.61V307.25H156V312H142.13v10.81h13v4.8h-13Z" style="fill:#084298"/><path d="M184.92,328.71q0,6.41-3.29,10t-9.15,3.6a12.61,12.61,0,0,1-6.49-1.66,10.9,10.9,0,0,1-4.32-4.75,16.22,16.22,0,0,1-1.52-7.19q0-6.37,3.27-9.94t9.2-3.57a11.56,11.56,0,0,1,9,3.65Q184.91,322.51,184.92,328.71Zm-19,0q0,9.06,6.69,9.05t6.62-9.05q0-9-6.67-9a5.68,5.68,0,0,0-5.07,2.32A11.78,11.78,0,0,0,165.88,328.71Z" style="fill:#084298"/><path d="M209.75,341.83,209,338.4h-.28a7.87,7.87,0,0,1-3.3,2.87,11.12,11.12,0,0,1-4.89,1c-3.16,0-5.53-.79-7.09-2.37s-2.34-4-2.34-7.17v-17.1h5.6V331.8a7,7,0,0,0,1.23,4.51,4.71,4.71,0,0,0,3.86,1.5,6.14,6.14,0,0,0,5.14-2.09c1.1-1.4,1.65-3.73,1.65-7v-13h5.58v26.16Z" style="fill:#084298"/><path d="M245.07,341.83h-5.58V325.75a7,7,0,0,0-1.22-4.52,4.72,4.72,0,0,0-3.87-1.49q-3.53,0-5.16,2.08c-1.08,1.39-1.63,3.72-1.63,7v13h-5.56V315.67h4.36l.78,3.43h.28a7.73,7.73,0,0,1,3.36-2.88,11.22,11.22,0,0,1,4.82-1q9.42,0,9.42,9.58Z" style="fill:#084298"/><path d="M261.63,342.31a9.11,9.11,0,0,1-7.64-3.55q-2.75-3.56-2.75-10t2.78-10a9.19,9.19,0,0,1,7.7-3.58,9,9,0,0,1,7.85,3.81h.29a33,33,0,0,1-.4-4.45V305H275v36.8h-4.36l-1-3.43h-.25A8.92,8.92,0,0,1,261.63,342.31Zm1.49-4.5c2.28,0,3.95-.64,5-1.93s1.57-3.37,1.6-6.25v-.78q0-5-1.6-7a6,6,0,0,0-5-2.08,5.11,5.11,0,0,0-4.52,2.38,12.13,12.13,0,0,0-1.58,6.77q0,4.37,1.53,6.64A5.21,5.21,0,0,0,263.12,337.81Z" style="fill:#084298"/><circle cx="112.01" cy="32.36" r="10.66" style="fill:#fff"/><circle cx="112.01" cy="32.36" r="5.11" style="fill:#084298"/><circle cx="147.53" cy="32.36" r="10.66" style="fill:#fff"/><circle cx="183.05" cy="32.36" r="10.66" style="fill:#fff"/><circle cx="391.12" cy="195.02" r="36.07" style="fill:#fff"/><path d="M391,238.61c-23.87-.39-43.16-20-43-43.7.17-24,19.55-43.47,43.21-43.47h.53a43.59,43.59,0,0,1,0,87.17Zm.76-75.55a31.94,31.94,0,0,0-32.31,31.46,31.51,31.51,0,0,0,9.13,22.76A32,32,0,0,0,391.44,227h.14a32.09,32.09,0,0,0,31.82-31.95,31.74,31.74,0,0,0-31.39-32Z" style="fill:#084298"/><path d="M391.21,154.44h.49a40.59,40.59,0,0,1,0,81.17H391a40.57,40.57,0,0,1-40-40.68c.16-22.4,18.18-40.48,40.21-40.49m.37,75.57a35,35,0,0,0,.46-69.94h-.29a35,35,0,1,0-.32,69.94h.15m-.37-81.57h0c-25.3,0-46,20.84-46.21,46.45-.18,25.34,20.43,46.3,45.94,46.72h.76c25.32,0,46.07-20.74,46.27-46.23a46.43,46.43,0,0,0-46.19-46.94Zm.37,75.57h-.13a29,29,0,0,1-20.74-8.83,28.6,28.6,0,0,1-8.28-20.6,29,29,0,0,1,29.32-28.52H392a29,29,0,0,1-.41,57.94Z" style="fill:#fff"/><path d="M461.49,273a7.84,7.84,0,0,1-5.6-2.65l-2.06-2.06-38-37.75L428,220.07l8.53,8.78c5.56,5.72,11.23,11.56,16.92,17.37,4.41,4.52,8.9,9,13.09,13.19,3.57,3.56,3.72,7.68.4,11A7.64,7.64,0,0,1,461.49,273Z" style="fill:#084298"/><path d="M427.83,224.18c7.63,7.85,15.54,16,23.49,24.14,4.34,4.44,8.73,8.83,13.12,13.21,2.18,2.18,2.76,4.4.39,6.8a4.8,4.8,0,0,1-3.34,1.67,5,5,0,0,1-3.47-1.76l-2.08-2.08L420.23,230.7l7.6-6.52m.37-8.22-4.27,3.67-.44.37-7.17,6.15-4.93,4.23L416,235l6.77,6.72,28.94,28.74,2.05,2a10.73,10.73,0,0,0,7.73,3.54,10.57,10.57,0,0,0,7.6-3.45c4.5-4.54,4.33-10.53-.41-15.26-4.19-4.18-8.67-8.66-13.07-13.16-5.62-5.75-11.26-11.56-16.72-17.18L432.13,220l-3.93-4Z" style="fill:#fff"/><path d="M417.48,188.94h0a2.21,2.21,0,0,1-2.07-1.42,28,28,0,0,0-22.75-17.64,2.25,2.25,0,0,1-2-2.22h0a2.24,2.24,0,0,1,2.52-2.21,32.36,32.36,0,0,1,26.41,20.48A2.22,2.22,0,0,1,417.48,188.94Z" style="fill:#084298"/></svg>