<svg id="Layer_1" data-name="Layer 1" xmlns="http://www.w3.org/2000/svg" viewBox="0 0 500 387"><title>419</title><path d="M448,98.91H221.27A40.17,40.17,0,0,0,181.22,139h0a9.85,9.85,0,0,1-9.85,9.85H59.86A48,48,0,0,0,12,196.67V330.32a48,48,0,0,0,47.86,47.85H330.74a48,48,0,0,0,47.86-47.85h0a39.48,39.48,0,0,1,39.47-39.48H448a40.16,40.16,0,0,0,40.05-40V139A40.16,40.16,0,0,0,448,98.91Z" style="fill:#d2dbe8"/><path d="M80.93,51.78V211.43a13.51,13.51,0,0,0,13.52,13.51h314a13.51,13.51,0,0,0,13.52-13.51V51.78Z" style="fill:#fff"/><path d="M421.92,24.45A13.51,13.51,0,0,0,408.4,10.94H94.45A13.51,13.51,0,0,0,80.93,24.45V51.78h341Z" style="fill:#084298;stroke:#084298;stroke-miterlimit:10;stroke-width:5px"/><path d="M421.92,133.51V51.78h-341V211.43a13.51,13.51,0,0,0,13.52,13.51H313.68" style="fill:none;stroke:#084298;stroke-miterlimit:10;stroke-width:5px"/><path d="M204.15,182.82h-3.64c-1,0-1.48-.53-1.48-1.61v-16H160c-1.35,0-2-.62-2-1.88v-2.43a7.35,7.35,0,0,1,.94-3.1l35.3-59.55a3.67,3.67,0,0,1,3.23-2h6.34c1.25,0,1.88.68,1.88,2v60.9h10.11c1,0,1.48.45,1.48,1.35v3.23a1.31,1.31,0,0,1-1.48,1.48H205.63v16C205.63,182.29,205.14,182.82,204.15,182.82ZM199,159.11V101.58l-33.95,57.53Z" style="fill:#084298"/><path d="M226.65,112.49v-3a3.27,3.27,0,0,1,1.62-2.83l17-9.57a4.92,4.92,0,0,1,2.83-.94h3.51c1,0,1.48.54,1.48,1.62v83.4c0,1.08-.5,1.61-1.48,1.61h-3.91c-.9,0-1.35-.53-1.35-1.61V103.47l-17.38,9.83Q226.65,114.79,226.65,112.49Z" style="fill:#084298"/><path d="M303.58,182.82H277.85c-1.08,0-1.62-.49-1.62-1.48v-3.23q0-1.35,1.62-1.35H303q6.19,0,9.43-3.43t3.24-9.91V148.06H291.05q-8.76,0-13.88-5.12t-5.12-14V115.32q0-8.88,5.12-14t13.88-5.12h12.53q8.76,0,13.88,5.12t5.12,14v48.37q0,8.9-5.12,14T303.58,182.82Zm-12-40.82h24.25V115.59q0-6.47-3.3-9.9t-9.5-3.44H291.59q-6.19,0-9.43,3.44t-3.24,9.9v13.07q0,6.47,3.24,9.9T291.59,142Z" style="fill:#084298"/><path d="M49.56,315.11a8.07,8.07,0,0,1-3.09,6.72q-3.11,2.44-8.55,2.44A20.36,20.36,0,0,1,29,322.58v-5a24.3,24.3,0,0,0,4.67,1.63,19.54,19.54,0,0,0,4.6.59,7.38,7.38,0,0,0,4.61-1.18,3.9,3.9,0,0,0,1.48-3.19,4,4,0,0,0-1.36-3,20.39,20.39,0,0,0-5.63-3,15,15,0,0,1-6.2-4.06,8.64,8.64,0,0,1-1.8-5.5,7.69,7.69,0,0,1,2.86-6.33,11.89,11.89,0,0,1,7.67-2.3,22.47,22.47,0,0,1,9.18,2l-1.67,4.28a20.07,20.07,0,0,0-7.64-1.8,5.88,5.88,0,0,0-3.87,1.11,3.64,3.64,0,0,0-1.32,2.93,4.18,4.18,0,0,0,.53,2.15,5.46,5.46,0,0,0,1.73,1.68,30.09,30.09,0,0,0,4.35,2.09,23.8,23.8,0,0,1,5.19,2.74,8.15,8.15,0,0,1,2.42,2.88A8.7,8.7,0,0,1,49.56,315.11Z" style="fill:#084298"/><path d="M65.85,324.27q-5.67,0-8.87-3.3t-3.2-9.11q0-6,3-9.36a10.26,10.26,0,0,1,8.15-3.41A10,10,0,0,1,72.5,302c1.87,1.95,2.79,4.63,2.79,8.05v2.79H59.1A8,8,0,0,0,61,318.29a6.7,6.7,0,0,0,5.08,1.9,18.85,18.85,0,0,0,4-.41,20.87,20.87,0,0,0,4-1.35v4.19a15.55,15.55,0,0,1-3.83,1.28A23.36,23.36,0,0,1,65.85,324.27ZM64.9,303A5.18,5.18,0,0,0,61,304.56a7.44,7.44,0,0,0-1.77,4.55h11a6.71,6.71,0,0,0-1.45-4.56A5,5,0,0,0,64.9,303Z" style="fill:#084298"/><path d="M97.49,316.91a6.37,6.37,0,0,1-2.6,5.46c-1.72,1.27-4.2,1.9-7.42,1.9a17.55,17.55,0,0,1-7.8-1.47v-4.46a19.09,19.09,0,0,0,8,2q4.77,0,4.77-2.88a2.24,2.24,0,0,0-.53-1.54,6.28,6.28,0,0,0-1.73-1.27,31.06,31.06,0,0,0-3.36-1.5c-2.8-1.08-4.69-2.17-5.68-3.25a6,6,0,0,1-1.49-4.22,5.53,5.53,0,0,1,2.52-4.84A11.94,11.94,0,0,1,89,299.09a19.35,19.35,0,0,1,8.11,1.74l-1.67,3.89a17.89,17.89,0,0,0-6.61-1.63q-4.09,0-4.09,2.33a2.34,2.34,0,0,0,1.07,1.93,23.13,23.13,0,0,0,4.64,2.18,21.75,21.75,0,0,1,4.38,2.13,5.92,5.92,0,0,1,2.68,5.25Z" style="fill:#084298"/><path d="M119.39,316.91a6.36,6.36,0,0,1-2.59,5.46q-2.6,1.9-7.42,1.9a17.62,17.62,0,0,1-7.81-1.47v-4.46a19.16,19.16,0,0,0,8,2q4.77,0,4.77-2.88a2.29,2.29,0,0,0-.53-1.54,6.2,6.2,0,0,0-1.74-1.27,29.36,29.36,0,0,0-3.36-1.5c-2.79-1.08-4.69-2.17-5.68-3.25a6,6,0,0,1-1.48-4.22,5.53,5.53,0,0,1,2.52-4.84,11.9,11.9,0,0,1,6.84-1.73,19.35,19.35,0,0,1,8.11,1.74l-1.67,3.89a17.93,17.93,0,0,0-6.62-1.63q-4.08,0-4.08,2.33a2.32,2.32,0,0,0,1.06,1.93,23,23,0,0,0,4.65,2.18,21.61,21.61,0,0,1,4.37,2.13,6.33,6.33,0,0,1,2,2.23A6.44,6.44,0,0,1,119.39,316.91Z" style="fill:#084298"/><path d="M124.67,293.09a2.85,2.85,0,0,1,.76-2.13,2.92,2.92,0,0,1,2.16-.75,2.62,2.62,0,0,1,2.88,2.88,2.84,2.84,0,0,1-.76,2.08,2.88,2.88,0,0,1-2.12.76,2.93,2.93,0,0,1-2.16-.76A2.8,2.8,0,0,1,124.67,293.09Zm5.47,30.74H125v-24.3h5.17Z" style="fill:#084298"/><path d="M159.08,311.64q0,6-3.06,9.29c-2,2.23-4.87,3.34-8.5,3.34a11.6,11.6,0,0,1-6-1.54,10.13,10.13,0,0,1-4-4.41,15,15,0,0,1-1.41-6.68q0-5.91,3-9.23c2-2.21,4.87-3.32,8.55-3.32a10.68,10.68,0,0,1,8.35,3.4Q159.08,305.88,159.08,311.64Zm-17.69,0q0,8.42,6.22,8.41t6.15-8.41q0-8.33-6.2-8.33a5.28,5.28,0,0,0-4.71,2.15A11,11,0,0,0,141.39,311.64Z" style="fill:#084298"/><path d="M186.39,323.83H181.2V308.89a6.54,6.54,0,0,0-1.13-4.2,4.37,4.37,0,0,0-3.59-1.38,5.74,5.74,0,0,0-4.79,1.93q-1.51,1.93-1.52,6.49v12.1H165v-24.3h4l.73,3.19H170a7.14,7.14,0,0,1,3.12-2.68,10.46,10.46,0,0,1,4.48-1q8.75,0,8.75,8.9Z" style="fill:#084298"/><path d="M224,323.83H205.81V291.71H224v4.44H211.06v8.74h12.11v4.4H211.06v10.08H224Z" style="fill:#084298"/><path d="M235.78,311.42l-8.15-11.89h5.89l5.54,8.5,5.58-8.5h5.84l-8.17,11.89,8.59,12.41h-5.84l-6-9.09-6,9.09h-5.84Z" style="fill:#084298"/><path d="M267.49,324.27a8.48,8.48,0,0,1-7.16-3.32H260c.2,2.06.31,3.3.31,3.74v9.95h-5.17V299.53h4.18c.12.46.36,1.54.72,3.25h.27a8.08,8.08,0,0,1,7.25-3.69,8.42,8.42,0,0,1,7.08,3.3c1.7,2.19,2.54,5.28,2.54,9.25s-.86,7.07-2.58,9.29A8.5,8.5,0,0,1,267.49,324.27Zm-1.25-21a5.39,5.39,0,0,0-4.5,1.8q-1.41,1.8-1.41,5.76v.77c0,3,.46,5.1,1.4,6.43a5.25,5.25,0,0,0,4.6,2,4.68,4.68,0,0,0,4.13-2.19,11.45,11.45,0,0,0,1.45-6.27,10.94,10.94,0,0,0-1.44-6.18A4.8,4.8,0,0,0,266.24,303.31Z" style="fill:#084298"/><path d="M282.89,293.09a2.89,2.89,0,0,1,.76-2.13,3,3,0,0,1,2.17-.75,2.61,2.61,0,0,1,2.87,2.88,2.84,2.84,0,0,1-.75,2.08,2.91,2.91,0,0,1-2.12.76,3,3,0,0,1-2.17-.76A2.84,2.84,0,0,1,282.89,293.09Zm5.47,30.74H283.2v-24.3h5.16Z" style="fill:#084298"/><path d="M308.07,299.09a12.86,12.86,0,0,1,2.57.22l-.5,4.81a10.11,10.11,0,0,0-2.29-.26,6.61,6.61,0,0,0-5,2,7.32,7.32,0,0,0-1.92,5.25v12.7h-5.16v-24.3h4l.68,4.29h.26a9.66,9.66,0,0,1,3.16-3.45A7.47,7.47,0,0,1,308.07,299.09Z" style="fill:#084298"/><path d="M325.76,324.27q-5.67,0-8.86-3.3t-3.2-9.11q0-6,3-9.36a10.27,10.27,0,0,1,8.16-3.41,10,10,0,0,1,7.6,2.92q2.79,2.92,2.79,8.05v2.79H319a8,8,0,0,0,1.91,5.44,6.67,6.67,0,0,0,5.07,1.9,18.71,18.71,0,0,0,4-.41,20.87,20.87,0,0,0,4-1.35v4.19a15.48,15.48,0,0,1-3.82,1.28A23.39,23.39,0,0,1,325.76,324.27ZM324.82,303a5.2,5.2,0,0,0-3.95,1.56,7.44,7.44,0,0,0-1.77,4.55h11a6.71,6.71,0,0,0-1.45-4.56A4.94,4.94,0,0,0,324.82,303Z" style="fill:#084298"/><path d="M349.27,324.27a8.49,8.49,0,0,1-7.1-3.29q-2.54-3.3-2.54-9.25t2.58-9.31a8.53,8.53,0,0,1,7.15-3.33,8.37,8.37,0,0,1,7.29,3.54h.27a31,31,0,0,1-.38-4.13v-8.86h5.19v34.19h-4l-.9-3.18h-.25A8.26,8.26,0,0,1,349.27,324.27Zm1.39-4.17a5.61,5.61,0,0,0,4.63-1.79c1-1.2,1.47-3.13,1.5-5.81v-.73q0-4.59-1.5-6.53a5.55,5.55,0,0,0-4.68-1.93,4.75,4.75,0,0,0-4.19,2.21,11.23,11.23,0,0,0-1.48,6.29,11.08,11.08,0,0,0,1.43,6.17A4.83,4.83,0,0,0,350.66,320.1Z" style="fill:#084298"/><circle cx="112.01" cy="31.36" r="10.66" style="fill:#fff"/><circle cx="112.01" cy="31.36" r="5.11" style="fill:#084298"/><circle cx="147.53" cy="31.36" r="10.66" style="fill:#fff"/><circle cx="183.05" cy="31.36" r="10.66" style="fill:#fff"/><circle cx="393" cy="200" r="54" style="fill:#084298"/><path d="M393,149a51,51,0,1,1-51,51,51,51,0,0,1,51-51m0-6a57,57,0,1,0,57,57,57.06,57.06,0,0,0-57-57Z" style="fill:#fff"/><circle cx="393" cy="200" r="40.63" style="fill:#fff"/><polyline points="370.8 213.1 395.86 202.73 395.86 170.75" style="fill:none;stroke:#084298;stroke-linecap:round;stroke-miterlimit:10;stroke-width:6px"/><path d="M393.83,276a7.8,7.8,0,0,1-6.75-11.69l30.67-53.12a7.79,7.79,0,0,1,13.5,0l30.67,53.12A7.8,7.8,0,0,1,455.17,276Z" style="fill:#084298"/><path d="M424.5,210.29a4.75,4.75,0,0,1,4.15,2.4l30.67,53.12a4.79,4.79,0,0,1-4.15,7.19H393.83a4.79,4.79,0,0,1-4.15-7.19l30.67-53.12a4.75,4.75,0,0,1,4.15-2.4m0-6a10.69,10.69,0,0,0-9.35,5.4l-30.67,53.12A10.8,10.8,0,0,0,393.83,279h61.34a10.8,10.8,0,0,0,9.35-16.19l-30.67-53.12a10.69,10.69,0,0,0-9.35-5.4Z" style="fill:#fff"/><path d="M421.16,259.15a3,3,0,0,1,3.37-3.39,3.21,3.21,0,0,1,2.45.9,3.45,3.45,0,0,1,.86,2.49,3.58,3.58,0,0,1-.87,2.53,3.17,3.17,0,0,1-2.44.93,3.33,3.33,0,0,1-2.48-.9A3.49,3.49,0,0,1,421.16,259.15Zm5.35-7.17H422.6l-1.17-22.86h6.23Z" style="fill:#fff"/></svg>