<svg id="Layer_1" data-name="Layer 1" xmlns="http://www.w3.org/2000/svg" viewBox="0 0 500 388"><title>429</title><path d="M448,99.91H221.27A40.17,40.17,0,0,0,181.22,140h0a9.85,9.85,0,0,1-9.85,9.85H59.86A48,48,0,0,0,12,197.67V331.32a48,48,0,0,0,47.86,47.85H330.74a48,48,0,0,0,47.86-47.85h0a39.48,39.48,0,0,1,39.47-39.48H448a40.16,40.16,0,0,0,40.05-40V140A40.16,40.16,0,0,0,448,99.91Z" style="fill:#d2dbe8"/><path d="M80.93,52.78V212.43a13.51,13.51,0,0,0,13.52,13.51h314a13.51,13.51,0,0,0,13.52-13.51V52.78Z" style="fill:#fff"/><path d="M421.92,25.45A13.51,13.51,0,0,0,408.4,11.94H94.45A13.51,13.51,0,0,0,80.93,25.45V52.78h341Z" style="fill:#084298;stroke:#084298;stroke-miterlimit:10;stroke-width:5px"/><path d="M421.92,134.51V52.78h-341V212.43a13.51,13.51,0,0,0,13.52,13.51H313.68" style="fill:none;stroke:#084298;stroke-miterlimit:10;stroke-width:5px"/><path d="M191.15,183.82h-3.64c-1,0-1.48-.53-1.48-1.61v-16H147c-1.35,0-2-.62-2-1.88v-2.43a7.35,7.35,0,0,1,.94-3.1l35.3-59.55a3.67,3.67,0,0,1,3.23-2h6.34c1.25,0,1.88.68,1.88,2v60.9h10.11c1,0,1.48.45,1.48,1.35v3.23a1.31,1.31,0,0,1-1.48,1.48H192.63v16C192.63,183.29,192.14,183.82,191.15,183.82ZM186,160.11V102.58l-33.95,57.53Z" style="fill:#084298"/><path d="M216.88,182.34V170.49q0-9.44,8.09-15.5l26.54-20.21a16.24,16.24,0,0,0,6.87-13.47v-5.26q0-12.93-12.8-12.93h-9.7q-12.66,0-12.66,12.93v6.07c0,1.07-.5,1.61-1.49,1.61h-3.9c-1,0-1.49-.54-1.49-1.61v-6.2q0-8.76,5.12-13.74t13.88-5h10.91q8.76,0,13.82,4.92t5.05,13.81v5.66a20.33,20.33,0,0,1-8.49,17l-26.81,20.62q-5.67,4.31-5.66,10.64v7.82H264a1.31,1.31,0,0,1,1.48,1.48v3.23a1.31,1.31,0,0,1-1.48,1.48H218.5C217.42,183.82,216.88,183.33,216.88,182.34Z" style="fill:#084298"/><path d="M312.27,183.82H286.54c-1.08,0-1.62-.49-1.62-1.48v-3.23q0-1.35,1.62-1.35h25.19q6.19,0,9.44-3.43t3.23-9.91V149.06H299.74q-8.76,0-13.87-5.12t-5.12-14V116.32q0-8.88,5.12-14t13.87-5.12h12.53q8.76,0,13.88,5.12t5.12,14v48.37q0,8.9-5.12,14T312.27,183.82Zm-12-40.82h24.25V116.59q0-6.47-3.3-9.9t-9.5-3.44H300.28q-6.19,0-9.43,3.44t-3.23,9.9v13.07q0,6.47,3.23,9.9T300.28,143Z" style="fill:#084298"/><path d="M59.31,291.83H53.66V262.1H43.49v-4.85h26v4.85H59.31Z" style="fill:#084298"/><path d="M97.39,278.71q0,6.41-3.28,10T85,292.31a12.6,12.6,0,0,1-6.48-1.66,10.92,10.92,0,0,1-4.33-4.75,16.22,16.22,0,0,1-1.51-7.19q0-6.37,3.26-9.94t9.2-3.57a11.53,11.53,0,0,1,9,3.65Q97.4,272.51,97.39,278.71Zm-19,0q0,9.06,6.7,9.05t6.62-9.05q0-9-6.67-9a5.67,5.67,0,0,0-5.07,2.32A11.77,11.77,0,0,0,78.35,278.71Z" style="fill:#084298"/><path d="M127,278.71q0,6.41-3.28,10t-9.16,3.6a12.6,12.6,0,0,1-6.48-1.66,10.92,10.92,0,0,1-4.33-4.75,16.22,16.22,0,0,1-1.51-7.19q0-6.37,3.26-9.94t9.2-3.57a11.54,11.54,0,0,1,9,3.65Q127,272.51,127,278.71Zm-19,0q0,9.06,6.7,9.05t6.62-9.05q0-9-6.67-9a5.67,5.67,0,0,0-5.07,2.32A11.77,11.77,0,0,0,107.94,278.71Z" style="fill:#084298"/><path d="M161.49,291.83l-10-28.88h-.18q.39,6.44.4,12.07v16.81h-5.14V257.25h8l9.6,27.51h.14l9.89-27.51h8v34.58H176.7v-17.1c0-1.72.05-4,.13-6.72s.17-4.43.23-5h-.19l-10.38,28.83Z" style="fill:#084298"/><path d="M207,291.83l-1.11-3.64h-.19a10.73,10.73,0,0,1-3.81,3.25,12,12,0,0,1-4.92.87,8.32,8.32,0,0,1-6-2.09,7.79,7.79,0,0,1-2.17-5.89,6.93,6.93,0,0,1,3-6.1q3-2.06,9.15-2.24l4.52-.15v-1.39a5.3,5.3,0,0,0-1.17-3.75,4.76,4.76,0,0,0-3.63-1.24,12.41,12.41,0,0,0-3.86.59,28.92,28.92,0,0,0-3.54,1.39l-1.8-4a19.52,19.52,0,0,1,4.66-1.69,21.19,21.19,0,0,1,4.78-.58c3.32,0,5.83.72,7.53,2.18s2.54,3.72,2.54,6.83v17.62Zm-8.28-3.78a6.91,6.91,0,0,0,4.86-1.69,6.15,6.15,0,0,0,1.83-4.75v-2.27l-3.36.15a11.46,11.46,0,0,0-5.71,1.31,4,4,0,0,0-1.78,3.58,3.48,3.48,0,0,0,1,2.71A4.45,4.45,0,0,0,198.75,288.05Z" style="fill:#084298"/><path d="M241.78,291.83h-5.59V275.75a7,7,0,0,0-1.22-4.52,4.71,4.71,0,0,0-3.86-1.49q-3.53,0-5.16,2.08t-1.63,7v13h-5.56V265.67h4.35l.78,3.43h.29a7.62,7.62,0,0,1,3.36-2.88,11.19,11.19,0,0,1,4.82-1q9.42,0,9.42,9.58Z" style="fill:#084298"/><path d="M245.54,265.67h6.05l5.32,14.83a28,28,0,0,1,1.61,6h.19a24.17,24.17,0,0,1,.78-3.15q.57-1.86,6-17.64h6l-11.19,29.64q-3,8.16-10.17,8.16a16,16,0,0,1-3.6-.4v-4.4a13,13,0,0,0,2.87.28q4,0,5.65-4.66l1-2.46Z" style="fill:#084298"/><path d="M53,332v13.81H47.37V311.25h9.76q6.7,0,9.92,2.51t3.21,7.57q0,6.45-6.72,9.2l9.77,15.3H66.88L58.6,332Zm0-4.68H57q3.94,0,5.72-1.47a5.33,5.33,0,0,0,1.77-4.35,4.67,4.67,0,0,0-1.91-4.21A10.52,10.52,0,0,0,56.76,316H53Z" style="fill:#084298"/><path d="M89.16,346.31q-6.1,0-9.54-3.56t-3.44-9.81q0-6.4,3.19-10.07a11,11,0,0,1,8.77-3.67,10.8,10.8,0,0,1,8.19,3.14q3,3.15,3,8.66v3H81.9A8.61,8.61,0,0,0,84,339.86a7.17,7.17,0,0,0,5.46,2.05,20.26,20.26,0,0,0,4.32-.44A22.46,22.46,0,0,0,98,340v4.52a16.55,16.55,0,0,1-4.11,1.37A25.13,25.13,0,0,1,89.16,346.31Zm-1-22.9a5.57,5.57,0,0,0-4.24,1.68A7.94,7.94,0,0,0,82,330H93.87a7.23,7.23,0,0,0-1.56-4.91A5.32,5.32,0,0,0,88.14,323.41Z" style="fill:#084298"/><path d="M114.42,346.31a9.06,9.06,0,0,1-7.59-3.56q-2.74-3.57-2.74-9.95t2.79-10a9.17,9.17,0,0,1,7.69-3.61,10.26,10.26,0,0,1,4.41.91,9.29,9.29,0,0,1,3.49,3h.19l.61-3.43h4.61v37.8H122.3V346.38c0-.7,0-1.43.1-2.2s.11-1.37.16-1.78h-.31C120.61,345,118,346.31,114.42,346.31Zm1.59-4.45q3.49,0,5-2t1.52-6.12v-.87q0-4.85-1.57-7t-5.08-2.13a5.11,5.11,0,0,0-4.54,2.37,12.3,12.3,0,0,0-1.56,6.78Q109.81,341.86,116,341.86Z" style="fill:#084298"/><path d="M154.28,345.83l-.78-3.43h-.28a8,8,0,0,1-3.3,2.87,11.12,11.12,0,0,1-4.89,1q-4.75,0-7.09-2.37c-1.56-1.58-2.35-4-2.35-7.17v-17.1h5.61V335.8a7,7,0,0,0,1.23,4.51,4.71,4.71,0,0,0,3.86,1.5,6.15,6.15,0,0,0,5.14-2.09c1.1-1.4,1.64-3.73,1.64-7v-13h5.59v26.16Z" style="fill:#084298"/><path d="M178,346.31c-4.06,0-7.25-1.19-9.54-3.56S165,337.1,165,332.94s1.06-7.63,3.19-10.07A11,11,0,0,1,177,319.2a10.8,10.8,0,0,1,8.18,3.14c2,2.1,3,5,3,8.66v3H170.74a8.61,8.61,0,0,0,2.06,5.85,7.19,7.19,0,0,0,5.47,2.05,20.23,20.23,0,0,0,4.31-.44,22.53,22.53,0,0,0,4.3-1.46v4.52a16.62,16.62,0,0,1-4.12,1.37A25.05,25.05,0,0,1,178,346.31Zm-1-22.9a5.6,5.6,0,0,0-4.25,1.68,8,8,0,0,0-1.9,4.9h11.87a7.23,7.23,0,0,0-1.56-4.91A5.32,5.32,0,0,0,177,323.41Z" style="fill:#084298"/><path d="M212.07,338.38a6.86,6.86,0,0,1-2.79,5.88c-1.87,1.36-4.53,2.05-8,2.05a18.85,18.85,0,0,1-8.4-1.59v-4.8a20.64,20.64,0,0,0,8.59,2.13q5.13,0,5.13-3.1a2.48,2.48,0,0,0-.57-1.66,6.81,6.81,0,0,0-1.86-1.37,33.58,33.58,0,0,0-3.62-1.61q-4.52-1.74-6.12-3.5a6.48,6.48,0,0,1-1.59-4.54,6,6,0,0,1,2.7-5.21,12.84,12.84,0,0,1,7.37-1.86,20.78,20.78,0,0,1,8.73,1.87l-1.8,4.18a19.51,19.51,0,0,0-7.12-1.75q-4.4,0-4.4,2.51a2.52,2.52,0,0,0,1.15,2.08,25,25,0,0,0,5,2.34,23.37,23.37,0,0,1,4.71,2.3,6.85,6.85,0,0,1,2.18,2.4A7,7,0,0,1,212.07,338.38Z" style="fill:#084298"/><path d="M227.82,341.81a13.4,13.4,0,0,0,4.07-.64v4.19a11.16,11.16,0,0,1-2.38.67,16.46,16.46,0,0,1-3,.28q-7.89,0-7.9-8.33v-14.1H215v-2.46l3.83-2,1.9-5.54h3.43v5.82h7.45v4.21h-7.45v14a3.91,3.91,0,0,0,1,3A3.66,3.66,0,0,0,227.82,341.81Z" style="fill:#084298"/><path d="M254.69,338.38a6.84,6.84,0,0,1-2.79,5.88c-1.86,1.36-4.53,2.05-8,2.05a18.8,18.8,0,0,1-8.39-1.59v-4.8a20.56,20.56,0,0,0,8.58,2.13c3.42,0,5.14-1,5.14-3.1a2.48,2.48,0,0,0-.57-1.66,6.88,6.88,0,0,0-1.87-1.37,32.7,32.7,0,0,0-3.62-1.61q-4.51-1.74-6.11-3.5a6.44,6.44,0,0,1-1.6-4.54,5.94,5.94,0,0,1,2.71-5.21,12.82,12.82,0,0,1,7.37-1.86,20.77,20.77,0,0,1,8.72,1.87l-1.79,4.18a19.6,19.6,0,0,0-7.12-1.75c-2.94,0-4.4.84-4.4,2.51a2.51,2.51,0,0,0,1.14,2.08,25.21,25.21,0,0,0,5,2.34,23,23,0,0,1,4.7,2.3,6.76,6.76,0,0,1,2.18,2.4A7,7,0,0,1,254.69,338.38Z" style="fill:#084298"/><circle cx="112.01" cy="32.36" r="10.66" style="fill:#fff"/><circle cx="112.01" cy="32.36" r="5.11" style="fill:#084298"/><circle cx="147.53" cy="32.36" r="10.66" style="fill:#fff"/><circle cx="183.05" cy="32.36" r="10.66" style="fill:#fff"/><polygon points="441.81 258.93 367.37 258.93 367.37 161.43 424.67 161.43 441.81 178.81 441.81 258.93" style="fill:#fff;stroke:#084298;stroke-miterlimit:10;stroke-width:5px"/><polygon points="442 179 424.81 179 424.81 161.81 442 179" style="fill:#fff;stroke:#084298;stroke-linejoin:round;stroke-width:5px"/><polygon points="431.23 270.64 356.78 270.64 356.78 173.14 414.09 173.14 431.23 190.53 431.23 270.64" style="fill:#fff;stroke:#084298;stroke-miterlimit:10;stroke-width:5px"/><polygon points="431.42 190.72 414.23 190.72 414.23 173.52 431.42 190.72" style="fill:#fff;stroke:#084298;stroke-linejoin:round;stroke-width:5px"/><polygon points="418.38 285 343.94 285 343.94 187.5 401.25 187.5 418.38 204.89 418.38 285" style="fill:#fff;stroke:#084298;stroke-miterlimit:10;stroke-width:5px"/><polygon points="418.57 205.07 401.38 205.07 401.38 187.88 418.57 205.07" style="fill:#fff;stroke:#084298;stroke-linejoin:round;stroke-width:5px"/><line x1="356.03" y1="216.79" x2="406.29" y2="216.79" style="fill:#fff;stroke:#084298;stroke-miterlimit:10;stroke-width:5px"/><line x1="356.03" y1="231.15" x2="406.29" y2="231.15" style="fill:#fff;stroke:#084298;stroke-miterlimit:10;stroke-width:5px"/><line x1="356.03" y1="245.51" x2="406.29" y2="245.51" style="fill:#fff;stroke:#084298;stroke-miterlimit:10;stroke-width:5px"/><line x1="356.03" y1="259.87" x2="406.29" y2="259.87" style="fill:#fff;stroke:#084298;stroke-miterlimit:10;stroke-width:5px"/></svg>