<svg id="Layer_1" data-name="Layer 1" xmlns="http://www.w3.org/2000/svg" viewBox="0 0 500 386"><title>500</title><path d="M448,97.91H221.27A40.17,40.17,0,0,0,181.22,138h0a9.85,9.85,0,0,1-9.85,9.85H59.86A48,48,0,0,0,12,195.67V329.32a48,48,0,0,0,47.86,47.85H330.74a48,48,0,0,0,47.86-47.85h0a39.48,39.48,0,0,1,39.47-39.48H448a40.16,40.16,0,0,0,40.05-40V138A40.16,40.16,0,0,0,448,97.91Z" style="fill:#d2dbe8"/><path d="M80.93,50.78V210.43a13.51,13.51,0,0,0,13.52,13.51h314a13.51,13.51,0,0,0,13.52-13.51V50.78Z" style="fill:#fff"/><path d="M421.92,23.45A13.51,13.51,0,0,0,408.4,9.94H94.45A13.51,13.51,0,0,0,80.93,23.45V50.78h341Z" style="fill:#084298;stroke:#084298;stroke-miterlimit:10;stroke-width:5px"/><path d="M421.92,132.51V50.78h-341V210.43a13.51,13.51,0,0,0,13.52,13.51H313.68" style="fill:none;stroke:#084298;stroke-miterlimit:10;stroke-width:5px"/><path d="M184.46,133.05H172.88a12,12,0,0,0-5.39,1.08,6,6,0,0,0-2.83,2.42q-1.75,3.38-3.23,3.37h-4.31c-.9,0-1.35-.49-1.35-1.48V96.81q0-1.62,1.35-1.62H200.9c1.08,0,1.62.5,1.62,1.48V100c0,1-.54,1.48-1.62,1.48H162.5v32.34q2.43-6.6,11.59-6.6h11.32q8.76,0,13.74,4.85t5,13.74v16.84q0,8.9-5.12,14t-13.88,5.12H174.36q-8.76,0-13.81-5.12t-5.05-14V158q0-1.62,1.35-1.62h3.9c1,0,1.48.54,1.48,1.62v4.58q0,6.33,3.24,9.83t9.43,3.51h9.7q6.19,0,9.5-3.44t3.3-9.9V146.39Q197.4,133.06,184.46,133.05Z" style="fill:#084298"/><path d="M253,181.82H239.57q-8.76,0-13.88-5.12t-5.12-14V114.32q0-8.88,5.12-14t13.88-5.12H253q8.76,0,13.81,5.12t5.06,14v48.37q0,8.9-5.06,14T253,181.82Zm-12.93-6.06H252.5q6.19,0,9.43-3.43t3.24-9.91V114.59q0-6.47-3.24-9.9t-9.43-3.44H240.11q-6.2,0-9.43,3.44t-3.24,9.9v47.83q0,6.47,3.24,9.91T240.11,175.76Z" style="fill:#084298"/><path d="M322.29,181.82H308.82q-8.76,0-13.88-5.12t-5.12-14V114.32q0-8.88,5.12-14t13.88-5.12h13.47q8.76,0,13.81,5.12t5.06,14v48.37q0,8.9-5.06,14T322.29,181.82Zm-12.93-6.06h12.4q6.19,0,9.43-3.43t3.23-9.91V114.59q0-6.47-3.23-9.9t-9.43-3.44h-12.4q-6.19,0-9.43,3.44t-3.23,9.9v47.83q0,6.47,3.23,9.91T309.36,175.76Z" style="fill:#084298"/><path d="M47.37,289.83V255.25H53v34.58Z" style="fill:#084298"/><path d="M84.57,289.83H79V273.75a7,7,0,0,0-1.22-4.52,4.71,4.71,0,0,0-3.86-1.49q-3.52,0-5.16,2.08t-1.63,7v13H61.56V263.67h4.35l.78,3.43H67a7.65,7.65,0,0,1,3.35-2.88,11.27,11.27,0,0,1,4.83-1q9.42,0,9.41,9.58Z" style="fill:#084298"/><path d="M102.05,285.81a13.35,13.35,0,0,0,4.07-.64v4.19a11,11,0,0,1-2.38.67,16.35,16.35,0,0,1-3,.28q-7.91,0-7.9-8.33v-14.1H89.26v-2.46l3.83-2L95,257.85h3.43v5.82h7.45v4.21H98.41v14a3.91,3.91,0,0,0,1,3A3.64,3.64,0,0,0,102.05,285.81Z" style="fill:#084298"/><path d="M122.77,290.31c-4.06,0-7.25-1.19-9.54-3.56s-3.44-5.65-3.44-9.81,1.06-7.63,3.19-10.07a11,11,0,0,1,8.78-3.67,10.8,10.8,0,0,1,8.18,3.14c2,2.1,3,5,3,8.66v3H115.51a8.61,8.61,0,0,0,2.06,5.85,7.17,7.17,0,0,0,5.46,2.05,20.26,20.26,0,0,0,4.32-.44,22.46,22.46,0,0,0,4.29-1.46v4.52a16.42,16.42,0,0,1-4.11,1.37A25.05,25.05,0,0,1,122.77,290.31Zm-1-22.9a5.6,5.6,0,0,0-4.25,1.68,8,8,0,0,0-1.9,4.9h11.87a7.23,7.23,0,0,0-1.56-4.91A5.32,5.32,0,0,0,121.76,267.41Z" style="fill:#084298"/><path d="M152.53,263.2a13.25,13.25,0,0,1,2.77.24l-.55,5.18a10.49,10.49,0,0,0-2.46-.29,7.12,7.12,0,0,0-5.4,2.18,7.85,7.85,0,0,0-2.07,5.65v13.67h-5.56V263.67h4.35l.74,4.61h.28a10.47,10.47,0,0,1,3.39-3.71A8.12,8.12,0,0,1,152.53,263.2Z" style="fill:#084298"/><path d="M183.16,289.83h-5.58V273.75a7,7,0,0,0-1.22-4.52,4.72,4.72,0,0,0-3.87-1.49c-2.35,0-4.06.69-5.15,2.08s-1.63,3.72-1.63,7v13h-5.56V263.67h4.35l.78,3.43h.28a7.73,7.73,0,0,1,3.36-2.88,11.24,11.24,0,0,1,4.83-1q9.41,0,9.41,9.58Z" style="fill:#084298"/><path d="M207.26,289.83l-1.11-3.64H206a10.71,10.71,0,0,1-3.8,3.25,12,12,0,0,1-4.92.87,8.36,8.36,0,0,1-6-2.09,7.78,7.78,0,0,1-2.16-5.89,6.92,6.92,0,0,1,3-6.1q3-2.06,9.16-2.24l4.52-.15v-1.39a5.3,5.3,0,0,0-1.17-3.75,4.78,4.78,0,0,0-3.63-1.24,12.37,12.37,0,0,0-3.86.59,29.72,29.72,0,0,0-3.55,1.39l-1.8-4a19.68,19.68,0,0,1,4.66-1.69,21.26,21.26,0,0,1,4.78-.58c3.33,0,5.84.72,7.54,2.18s2.54,3.72,2.54,6.83v17.62ZM199,286.05a6.94,6.94,0,0,0,4.86-1.69,6.15,6.15,0,0,0,1.83-4.75v-2.27l-3.36.15a11.43,11.43,0,0,0-5.71,1.31,4,4,0,0,0-1.79,3.58,3.51,3.51,0,0,0,1,2.71A4.49,4.49,0,0,0,199,286.05Z" style="fill:#084298"/><path d="M224.55,289.83H219V253h5.55Z" style="fill:#084298"/><path d="M67.31,334.44A8.69,8.69,0,0,1,64,341.68q-3.33,2.63-9.2,2.63a21.85,21.85,0,0,1-9.6-1.83v-5.34a26.34,26.34,0,0,0,5,1.75,21.17,21.17,0,0,0,5,.64,7.86,7.86,0,0,0,5-1.28,4.14,4.14,0,0,0,1.6-3.43,4.3,4.3,0,0,0-1.47-3.29,21.87,21.87,0,0,0-6-3.19q-4.74-1.92-6.67-4.38a9.21,9.21,0,0,1-1.94-5.91,8.27,8.27,0,0,1,3.07-6.81,12.75,12.75,0,0,1,8.26-2.49,24.29,24.29,0,0,1,9.89,2.18L65,315.54a21.69,21.69,0,0,0-8.23-1.94,6.32,6.32,0,0,0-4.17,1.2A3.94,3.94,0,0,0,51.17,318a4.43,4.43,0,0,0,.57,2.3,5.8,5.8,0,0,0,1.87,1.81,31.58,31.58,0,0,0,4.68,2.25,25.77,25.77,0,0,1,5.59,3,8.64,8.64,0,0,1,2.6,3.09A9.39,9.39,0,0,1,67.31,334.44Z" style="fill:#084298"/><path d="M84.83,344.31c-4.06,0-7.25-1.19-9.54-3.56s-3.44-5.65-3.44-9.81,1.06-7.63,3.19-10.07a11,11,0,0,1,8.78-3.67A10.8,10.8,0,0,1,92,320.34q3,3.15,3,8.66v3H77.57a8.61,8.61,0,0,0,2.06,5.85,7.17,7.17,0,0,0,5.46,2.05,20.26,20.26,0,0,0,4.32-.44A22.46,22.46,0,0,0,93.7,338v4.52a16.55,16.55,0,0,1-4.11,1.37A25.05,25.05,0,0,1,84.83,344.31Zm-1-22.9a5.58,5.58,0,0,0-4.25,1.68,8,8,0,0,0-1.9,4.9H89.54A7.23,7.23,0,0,0,88,323.08,5.32,5.32,0,0,0,83.82,321.41Z" style="fill:#084298"/><path d="M107.28,343.83l-9.93-26.16h5.86l5.32,15.21a30,30,0,0,1,1.66,6.2h.19a40.52,40.52,0,0,1,1.66-6.2l5.32-15.21h5.91l-10,26.16Z" style="fill:#084298"/><path d="M138.67,344.31q-6.1,0-9.54-3.56t-3.45-9.81q0-6.4,3.2-10.07a11,11,0,0,1,8.77-3.67,10.82,10.82,0,0,1,8.19,3.14q3,3.15,3,8.66v3H131.41a8.61,8.61,0,0,0,2.05,5.85,7.21,7.21,0,0,0,5.47,2.05,20.4,20.4,0,0,0,4.32-.44,22.46,22.46,0,0,0,4.29-1.46v4.52a16.62,16.62,0,0,1-4.12,1.37A24.94,24.94,0,0,1,138.67,344.31Zm-1-22.9a5.57,5.57,0,0,0-4.24,1.68,8,8,0,0,0-1.91,4.9h11.88a7.29,7.29,0,0,0-1.57-4.91A5.29,5.29,0,0,0,137.65,321.41Z" style="fill:#084298"/><path d="M168.43,317.2a13.14,13.14,0,0,1,2.76.24l-.54,5.18a10.49,10.49,0,0,0-2.46-.29,7.13,7.13,0,0,0-5.41,2.18,7.85,7.85,0,0,0-2.07,5.65v13.67h-5.55V317.67h4.35l.73,4.61h.29a10.29,10.29,0,0,1,3.39-3.71A8.1,8.1,0,0,1,168.43,317.2Z" style="fill:#084298"/><path d="M208.78,343.83H189.22V309.25h19.56V314H194.87v9.41h13v4.73h-13V339h13.91Z" style="fill:#084298"/><path d="M228.93,317.2a13.25,13.25,0,0,1,2.77.24l-.55,5.18a10.36,10.36,0,0,0-2.46-.29,7.12,7.12,0,0,0-5.4,2.18,7.85,7.85,0,0,0-2.07,5.65v13.67h-5.56V317.67H220l.74,4.61H221a10.47,10.47,0,0,1,3.39-3.71A8.12,8.12,0,0,1,228.93,317.2Z" style="fill:#084298"/><path d="M249.82,317.2a13.08,13.08,0,0,1,2.76.24l-.54,5.18a10.49,10.49,0,0,0-2.46-.29,7.12,7.12,0,0,0-5.4,2.18,7.85,7.85,0,0,0-2.07,5.65v13.67h-5.56V317.67h4.35l.73,4.61h.29a10.38,10.38,0,0,1,3.39-3.71A8.12,8.12,0,0,1,249.82,317.2Z" style="fill:#084298"/><path d="M280.64,330.71q0,6.41-3.29,10t-9.15,3.6a12.61,12.61,0,0,1-6.49-1.66,11,11,0,0,1-4.32-4.75,16.22,16.22,0,0,1-1.52-7.19q0-6.37,3.27-9.94t9.2-3.57a11.56,11.56,0,0,1,9,3.65Q280.63,324.51,280.64,330.71Zm-19,0q0,9.06,6.69,9.05t6.62-9.05q0-9-6.67-9a5.68,5.68,0,0,0-5.07,2.32A11.78,11.78,0,0,0,261.6,330.71Z" style="fill:#084298"/><path d="M300.29,317.2a13.18,13.18,0,0,1,2.77.24l-.54,5.18a10.49,10.49,0,0,0-2.46-.29,7.13,7.13,0,0,0-5.41,2.18,7.85,7.85,0,0,0-2.07,5.65v13.67H287V317.67h4.36l.73,4.61h.28a10.41,10.41,0,0,1,3.4-3.71A8.09,8.09,0,0,1,300.29,317.2Z" style="fill:#084298"/><circle cx="112.01" cy="30.36" r="10.66" style="fill:#fff"/><circle cx="112.01" cy="30.36" r="5.11" style="fill:#084298"/><circle cx="147.53" cy="30.36" r="10.66" style="fill:#fff"/><circle cx="183.05" cy="30.36" r="10.66" style="fill:#fff"/><rect x="355.35" y="177.87" width="98.93" height="38.62" style="fill:#084298;stroke:#084298;stroke-miterlimit:10;stroke-width:5px"/><line x1="366.53" y1="186.66" x2="386.7" y2="206.84" style="fill:#fff;stroke:#fff;stroke-miterlimit:10;stroke-width:5px"/><line x1="386.7" y1="186.66" x2="366.53" y2="206.84" style="fill:#fff;stroke:#fff;stroke-miterlimit:10;stroke-width:5px"/><rect x="355.35" y="232.38" width="98.93" height="38.62" style="fill:#fff;stroke:#084298;stroke-miterlimit:10;stroke-width:5px"/><line x1="366.53" y1="241.17" x2="386.7" y2="261.35" style="fill:#fff;stroke:#084298;stroke-miterlimit:10;stroke-width:5px"/><line x1="386.7" y1="241.17" x2="366.53" y2="261.35" style="fill:#fff;stroke:#084298;stroke-miterlimit:10;stroke-width:5px"/><polyline points="355.3 252.13 342.5 252.13 342.5 196.37 355.3 196.37" style="fill:none;stroke:#084298;stroke-miterlimit:10;stroke-width:5px"/></svg>