<svg id="Layer_1" data-name="Layer 1" xmlns="http://www.w3.org/2000/svg" viewBox="0 0 500 389"><title>503_b</title><path d="M448,100.91H221.27A40.17,40.17,0,0,0,181.22,141h0a9.85,9.85,0,0,1-9.85,9.85H59.86A48,48,0,0,0,12,198.67V332.32a48,48,0,0,0,47.86,47.85H330.74a48,48,0,0,0,47.86-47.85h0a39.48,39.48,0,0,1,39.47-39.48H448a40.16,40.16,0,0,0,40.05-40V141A40.16,40.16,0,0,0,448,100.91Z" style="fill:#d2dbe8"/><path d="M80.93,53.78V213.43a13.51,13.51,0,0,0,13.52,13.51h314a13.51,13.51,0,0,0,13.52-13.51V53.78Z" style="fill:#fff"/><path d="M421.92,26.45A13.51,13.51,0,0,0,408.4,12.94H94.45A13.51,13.51,0,0,0,80.93,26.45V53.78h341Z" style="fill:#084298;stroke:#084298;stroke-miterlimit:10;stroke-width:5px"/><path d="M421.92,135.51V53.78h-341V213.43a13.51,13.51,0,0,0,13.52,13.51H313.68" style="fill:none;stroke:#084298;stroke-miterlimit:10;stroke-width:5px"/><path d="M184.46,136.05H172.88a12,12,0,0,0-5.39,1.08,6,6,0,0,0-2.83,2.42q-1.75,3.38-3.23,3.37h-4.31c-.9,0-1.35-.49-1.35-1.48V99.81q0-1.62,1.35-1.62H200.9c1.08,0,1.62.5,1.62,1.48V103c0,1-.54,1.48-1.62,1.48H162.5v32.34q2.43-6.6,11.59-6.6h11.32q8.76,0,13.74,4.85t5,13.74v16.84q0,8.9-5.12,14t-13.88,5.12H174.36q-8.76,0-13.81-5.12t-5.05-14V161q0-1.62,1.35-1.62h3.9c1,0,1.48.54,1.48,1.62v4.58q0,6.33,3.24,9.83t9.43,3.51h9.7q6.19,0,9.5-3.44t3.3-9.9V149.39Q197.4,136.06,184.46,136.05Z" style="fill:#084298"/><path d="M253,184.82H239.57q-8.76,0-13.88-5.12t-5.12-14V117.32q0-8.88,5.12-14t13.88-5.12H253q8.76,0,13.81,5.12t5.06,14v48.37q0,8.9-5.06,14T253,184.82Zm-12.93-6.06H252.5q6.19,0,9.43-3.43t3.24-9.91V117.59q0-6.47-3.24-9.9t-9.43-3.44H240.11q-6.2,0-9.43,3.44t-3.24,9.9v47.83q0,6.47,3.24,9.91T240.11,178.76Z" style="fill:#084298"/><path d="M311.25,138.21h8.08q12.8,0,12.8-12.8v-8.36q0-12.93-12.8-12.93H309q-12.81,0-12.8,12.93v4.85c0,1-.45,1.49-1.35,1.49H290.9a1.31,1.31,0,0,1-1.48-1.49v-5q0-8.76,5.12-13.74t13.88-5h11.45q8.76,0,13.88,5t5.12,13.74v8.62q0,12.4-11.19,15.63,11.19,3.11,11.19,15.76v9.17q0,8.76-5.12,13.74t-13.88,5H308.42q-8.76,0-13.88-5t-5.12-13.74V160c0-1.07.49-1.61,1.48-1.61h3.91c.9,0,1.35.54,1.35,1.61V166q0,12.93,12.8,12.94h10.37q12.8,0,12.8-12.94v-8.89q0-12.93-12.8-12.93h-8.08a1.32,1.32,0,0,1-1.49-1.49v-3A1.31,1.31,0,0,1,311.25,138.21Z" style="fill:#084298"/><path d="M67.31,283.44A8.69,8.69,0,0,1,64,290.68q-3.33,2.63-9.2,2.63a21.85,21.85,0,0,1-9.6-1.83v-5.34a26.34,26.34,0,0,0,5,1.75,21.17,21.17,0,0,0,5,.64,7.86,7.86,0,0,0,5-1.28,4.14,4.14,0,0,0,1.6-3.43,4.3,4.3,0,0,0-1.47-3.29,21.87,21.87,0,0,0-6-3.19q-4.74-1.92-6.67-4.38a9.21,9.21,0,0,1-1.94-5.91,8.27,8.27,0,0,1,3.07-6.81,12.75,12.75,0,0,1,8.26-2.49,24.29,24.29,0,0,1,9.89,2.18L65,264.54a21.69,21.69,0,0,0-8.23-1.94,6.32,6.32,0,0,0-4.17,1.2A3.94,3.94,0,0,0,51.17,267a4.43,4.43,0,0,0,.57,2.3,5.8,5.8,0,0,0,1.87,1.81,31.58,31.58,0,0,0,4.68,2.25,25.77,25.77,0,0,1,5.59,3,8.64,8.64,0,0,1,2.6,3.09A9.39,9.39,0,0,1,67.31,283.44Z" style="fill:#084298"/><path d="M84.83,293.31c-4.06,0-7.25-1.19-9.54-3.56s-3.44-5.65-3.44-9.81,1.06-7.63,3.19-10.07a11,11,0,0,1,8.78-3.67A10.8,10.8,0,0,1,92,269.34q3,3.15,3,8.66v3H77.57a8.61,8.61,0,0,0,2.06,5.85,7.17,7.17,0,0,0,5.46,2.05,20.26,20.26,0,0,0,4.32-.44A22.46,22.46,0,0,0,93.7,287v4.52a16.55,16.55,0,0,1-4.11,1.37A25.05,25.05,0,0,1,84.83,293.31Zm-1-22.9a5.58,5.58,0,0,0-4.25,1.68,8,8,0,0,0-1.9,4.9H89.54A7.23,7.23,0,0,0,88,272.08,5.32,5.32,0,0,0,83.82,270.41Z" style="fill:#084298"/><path d="M114.59,266.2a13.25,13.25,0,0,1,2.77.24l-.55,5.18a10.42,10.42,0,0,0-2.46-.29,7.12,7.12,0,0,0-5.4,2.18,7.85,7.85,0,0,0-2.07,5.65v13.67h-5.56V266.67h4.35l.74,4.61h.28a10.47,10.47,0,0,1,3.39-3.71A8.12,8.12,0,0,1,114.59,266.2Z" style="fill:#084298"/><path d="M128.17,292.83l-9.94-26.16h5.87l5.32,15.21a30.61,30.61,0,0,1,1.66,6.2h.19a41.35,41.35,0,0,1,1.65-6.2l5.32-15.21h5.92l-10,26.16Z" style="fill:#084298"/><path d="M147.8,259.74a3,3,0,0,1,.82-2.29,3.16,3.16,0,0,1,2.33-.81,3.11,3.11,0,0,1,2.28.81,3.57,3.57,0,0,1,0,4.53,3.11,3.11,0,0,1-2.28.81,3.16,3.16,0,0,1-2.33-.81A3,3,0,0,1,147.8,259.74Zm5.89,33.09h-5.56V266.67h5.56Z" style="fill:#084298"/><path d="M172.19,293.31q-5.94,0-9-3.47t-3.08-9.95c0-4.39,1.07-7.78,3.22-10.14s5.27-3.55,9.34-3.55a17.45,17.45,0,0,1,7.45,1.54l-1.68,4.47a16.76,16.76,0,0,0-5.82-1.38q-6.79,0-6.79,9,0,4.39,1.69,6.61a5.87,5.87,0,0,0,5,2.21,14.32,14.32,0,0,0,7-1.84v4.84a10.68,10.68,0,0,1-3.18,1.26A19.26,19.26,0,0,1,172.19,293.31Z" style="fill:#084298"/><path d="M197.05,293.31q-6.11,0-9.55-3.56t-3.44-9.81q0-6.4,3.19-10.07A11,11,0,0,1,196,266.2a10.8,10.8,0,0,1,8.18,3.14c2,2.1,3,5,3,8.66v3H189.78a8.61,8.61,0,0,0,2.06,5.85,7.19,7.19,0,0,0,5.47,2.05,20.23,20.23,0,0,0,4.31-.44,22.3,22.3,0,0,0,4.3-1.46v4.52a16.62,16.62,0,0,1-4.12,1.37A25,25,0,0,1,197.05,293.31Zm-1-22.9a5.6,5.6,0,0,0-4.25,1.68,8,8,0,0,0-1.9,4.9h11.87a7.23,7.23,0,0,0-1.56-4.91A5.32,5.32,0,0,0,196,270.41Z" style="fill:#084298"/><path d="M74.47,312.25v22.38a13.2,13.2,0,0,1-1.64,6.7,11,11,0,0,1-4.75,4.43,16.6,16.6,0,0,1-7.44,1.55q-6.44,0-10-3.41t-3.57-9.37V312.25h5.68v21.88c0,2.86.66,5,2,6.32s3.36,2,6.11,2q8,0,8-8.4V312.25Z" style="fill:#084298"/><path d="M105.74,346.83h-5.58V330.75a7,7,0,0,0-1.22-4.52,4.71,4.71,0,0,0-3.86-1.49q-3.52,0-5.16,2.08t-1.63,7v13H82.73V320.67h4.35l.78,3.43h.29a7.65,7.65,0,0,1,3.35-2.88,11.27,11.27,0,0,1,4.83-1q9.42,0,9.41,9.58Z" style="fill:#084298"/><path d="M129.85,346.83l-1.12-3.64h-.19a10.71,10.71,0,0,1-3.8,3.25,12,12,0,0,1-4.92.87,8.32,8.32,0,0,1-6-2.09,7.75,7.75,0,0,1-2.17-5.89,6.9,6.9,0,0,1,3-6.1q3-2.06,9.15-2.24l4.52-.15v-1.39a5.3,5.3,0,0,0-1.17-3.75,4.76,4.76,0,0,0-3.63-1.24,12.41,12.41,0,0,0-3.86.59,29.72,29.72,0,0,0-3.55,1.39l-1.79-4a19.37,19.37,0,0,1,4.66-1.69,21.17,21.17,0,0,1,4.77-.58c3.33,0,5.84.72,7.54,2.18s2.54,3.72,2.54,6.83v17.62Zm-8.28-3.78a6.91,6.91,0,0,0,4.86-1.69,6.15,6.15,0,0,0,1.83-4.75v-2.27l-3.36.15a11.46,11.46,0,0,0-5.71,1.31,4,4,0,0,0-1.79,3.58,3.48,3.48,0,0,0,1,2.71A4.45,4.45,0,0,0,121.57,343.05Z" style="fill:#084298"/><path d="M147.54,346.83l-9.94-26.16h5.87l5.32,15.21a30,30,0,0,1,1.66,6.2h.19a41.35,41.35,0,0,1,1.65-6.2l5.33-15.21h5.91l-10,26.16Z" style="fill:#084298"/><path d="M183.87,346.83l-1.11-3.64h-.19a10.65,10.65,0,0,1-3.81,3.25,12,12,0,0,1-4.92.87,8.32,8.32,0,0,1-6-2.09,7.78,7.78,0,0,1-2.16-5.89,6.92,6.92,0,0,1,3-6.1q3-2.06,9.16-2.24l4.51-.15v-1.39a5.3,5.3,0,0,0-1.17-3.75,4.76,4.76,0,0,0-3.63-1.24,12.35,12.35,0,0,0-3.85.59,29.07,29.07,0,0,0-3.55,1.39l-1.8-4a19.52,19.52,0,0,1,4.66-1.69,21.26,21.26,0,0,1,4.78-.58c3.33,0,5.84.72,7.53,2.18s2.54,3.72,2.54,6.83v17.62Zm-8.28-3.78a6.91,6.91,0,0,0,4.86-1.69,6.15,6.15,0,0,0,1.84-4.75v-2.27l-3.36.15a11.51,11.51,0,0,0-5.72,1.31,4,4,0,0,0-1.78,3.58,3.51,3.51,0,0,0,1,2.71A4.45,4.45,0,0,0,175.59,343.05Z" style="fill:#084298"/><path d="M195.27,313.74a3,3,0,0,1,.82-2.29,3.16,3.16,0,0,1,2.33-.81,3.08,3.08,0,1,1,0,6.15,3.16,3.16,0,0,1-2.33-.81A3,3,0,0,1,195.27,313.74Zm5.89,33.09H195.6V320.67h5.56Z" style="fill:#084298"/><path d="M214.67,346.83h-5.56V310h5.56Z" style="fill:#084298"/><path d="M239,346.83l-1.11-3.64h-.19a10.71,10.71,0,0,1-3.8,3.25,12,12,0,0,1-4.92.87,8.34,8.34,0,0,1-6-2.09,7.78,7.78,0,0,1-2.16-5.89,6.92,6.92,0,0,1,3-6.1q3-2.06,9.16-2.24l4.52-.15v-1.39a5.3,5.3,0,0,0-1.17-3.75,4.8,4.8,0,0,0-3.64-1.24,12.35,12.35,0,0,0-3.85.59,29.72,29.72,0,0,0-3.55,1.39l-1.8-4a19.68,19.68,0,0,1,4.66-1.69,21.26,21.26,0,0,1,4.78-.58c3.33,0,5.84.72,7.53,2.18s2.55,3.72,2.55,6.83v17.62Zm-8.27-3.78a6.94,6.94,0,0,0,4.86-1.69,6.15,6.15,0,0,0,1.83-4.75v-2.27l-3.36.15a11.43,11.43,0,0,0-5.71,1.31,4,4,0,0,0-1.79,3.58,3.51,3.51,0,0,0,1,2.71A4.49,4.49,0,0,0,230.71,343.05Z" style="fill:#084298"/><path d="M264.08,320.2a9.08,9.08,0,0,1,7.63,3.55q2.73,3.54,2.73,10t-2.77,10a10.06,10.06,0,0,1-15.4,0h-.37l-1,3.1h-4.16V310h5.55v8.75c0,.65,0,1.61-.09,2.89s-.11,2.08-.14,2.43h.23A8.84,8.84,0,0,1,264.08,320.2Zm-1.44,4.54q-3.36,0-4.84,2c-1,1.31-1.49,3.52-1.53,6.61v.38c0,3.18.51,5.49,1.52,6.91s2.66,2.14,4.94,2.14a5,5,0,0,0,4.48-2.34,12.37,12.37,0,0,0,1.53-6.76Q268.74,324.73,262.64,324.74Z" style="fill:#084298"/><path d="M286.46,346.83H280.9V310h5.56Z" style="fill:#084298"/><path d="M305.83,347.31q-6.1,0-9.54-3.56t-3.45-9.81q0-6.4,3.2-10.07a11,11,0,0,1,8.77-3.67,10.82,10.82,0,0,1,8.19,3.14q3,3.15,3,8.66v3H298.57a8.56,8.56,0,0,0,2.06,5.85,7.17,7.17,0,0,0,5.46,2.05,20.4,20.4,0,0,0,4.32-.44A22.46,22.46,0,0,0,314.7,341v4.52a16.62,16.62,0,0,1-4.12,1.37A24.94,24.94,0,0,1,305.83,347.31Zm-1-22.9a5.57,5.57,0,0,0-4.24,1.68,8,8,0,0,0-1.91,4.9h11.88a7.29,7.29,0,0,0-1.57-4.91A5.29,5.29,0,0,0,304.81,324.41Z" style="fill:#084298"/><circle cx="112.01" cy="33.36" r="10.66" style="fill:#fff"/><circle cx="112.01" cy="33.36" r="5.11" style="fill:#084298"/><circle cx="147.53" cy="33.36" r="10.66" style="fill:#fff"/><circle cx="183.05" cy="33.36" r="10.66" style="fill:#fff"/><path d="M407.53,237.93A6.61,6.61,0,0,1,403,226.49l7.45-7.45-6-6-7.59,7.6a6.63,6.63,0,0,1-10.11-.9,6.72,6.72,0,0,1,.89-8.61l7.46-7.45-4.43-4.43a3,3,0,0,1-.92-2.22,3.12,3.12,0,0,1,.93-2.23l23-23a18,18,0,0,1,25.45,0l1.09,1.08,21.4-21.41a7.34,7.34,0,0,1,10.39,10.38l-21.41,21.41,1.08,1.09a18,18,0,0,1,0,25.45l-23.05,23a3.12,3.12,0,0,1-2.22.92,3.08,3.08,0,0,1-2.22-.92l-4.43-4.43-7.6,7.6A6.57,6.57,0,0,1,407.53,237.93Z" style="fill:#084298"/><path d="M466.87,152.29a4.35,4.35,0,0,1,3.06,7.41L446.5,183.13a.15.15,0,0,0,0,.2l3.11,3.11a15,15,0,0,1,0,21.21l-23.05,23a.14.14,0,0,1-.1,0,.13.13,0,0,1-.1,0l-6.45-6.45a.14.14,0,0,0-.1,0,.13.13,0,0,0-.1,0l-9.62,9.62a3.61,3.61,0,0,1-5.53-.5,3.74,3.74,0,0,1,.56-4.76l9.47-9.47a.13.13,0,0,0,0-.2l-10-10a.13.13,0,0,0-.1,0,.14.14,0,0,0-.1,0l-9.62,9.62a3.63,3.63,0,0,1-5.53-.5,3.76,3.76,0,0,1,.56-4.76l9.48-9.48a.15.15,0,0,0,0-.2l-6.45-6.45a.13.13,0,0,1,0-.2l23.05-23.05a15,15,0,0,1,21.21,0l3.11,3.11a.18.18,0,0,0,.1,0,.21.21,0,0,0,.1,0l23.43-23.43a4.3,4.3,0,0,1,3.07-1.28m0-6a10.3,10.3,0,0,0-7.32,3l-19.32,19.32a21,21,0,0,0-28.62,1l-23.06,23a6.17,6.17,0,0,0,0,8.67l2.32,2.32L385.53,209a9.62,9.62,0,0,0,6.66,16.56,9.58,9.58,0,0,0,6.8-2.81l5.47-5.48,1.75,1.75-5.33,5.33a9.61,9.61,0,0,0,6.65,16.56,9.53,9.53,0,0,0,6.8-2.82l5.48-5.47,2.31,2.31a6.09,6.09,0,0,0,4.34,1.79,6.22,6.22,0,0,0,4.35-1.8l23-23.05a21,21,0,0,0,1-28.62L474.18,164a10.35,10.35,0,0,0-7.31-17.66Z" style="fill:#fff"/><path d="M331.32,298.52A7.34,7.34,0,0,1,326.13,286l20.9-20.9-1.19-1.18a17.85,17.85,0,0,1,0-25.25l25.38-25.38,38,38-25.38,25.38a17.85,17.85,0,0,1-25.25,0l-1.18-1.19-20.9,20.9A7.28,7.28,0,0,1,331.32,298.52Z" style="fill:#084298"/><path d="M371.22,217.53,405,251.28l-23.25,23.26a14.86,14.86,0,0,1-21,0l-3.3-3.31-23,23a4.34,4.34,0,0,1-6.14-6.14l23-23-3.31-3.3a14.86,14.86,0,0,1,0-21l23.26-23.25m0-8.49L367,213.28l-23.25,23.25a20.9,20.9,0,0,0-.91,28.54L324,283.87a10.35,10.35,0,0,0,0,14.62,10.33,10.33,0,0,0,14.62,0l18.8-18.8a20.87,20.87,0,0,0,28.54-.91l23.25-23.25,4.24-4.25L409.22,247l-33.76-33.76L371.22,209Z" style="fill:#fff"/><line x1="432" y1="244" x2="455" y2="246" style="fill:none;stroke:#084298;stroke-linecap:round;stroke-miterlimit:10;stroke-width:5px"/><line x1="424" y1="254" x2="429" y2="278" style="fill:none;stroke:#084298;stroke-linecap:round;stroke-miterlimit:10;stroke-width:5px"/><line x1="383" y1="186" x2="379" y2="166" style="fill:none;stroke:#084298;stroke-linecap:round;stroke-miterlimit:10;stroke-width:5px"/><line x1="372" y1="206" x2="348" y2="205" style="fill:none;stroke:#084298;stroke-linecap:round;stroke-miterlimit:10;stroke-width:5px"/></svg>