<?xml version="1.0" encoding="UTF-8"?>
<svg id="Layer_1" data-name="Layer 1" xmlns="http://www.w3.org/2000/svg" viewBox="0 0 600 338">
  <defs>
    <style>
      .cls-1 {
        fill: #a7a9ac;
      }
    </style>
  </defs>
  <g>
    <path class="cls-1" d="m339.23,92.43l7.78-7.78h-182.82v162.73h20.09l7.79-7.79h-20.09V92.43h167.25Zm41.32-7.78l-7.78,7.78h26.69v147.16h-173.85l-7.79,7.79h189.42V84.65h-26.69Z"/>
    <polygon class="cls-1" points="280.38 151.28 201.8 229.86 182.31 229.86 253.38 104.77 280.38 151.28"/>
    <polygon class="cls-1" points="390.56 229.86 235.34 229.86 292.7 172.51 312.37 206.42 342.23 167.32 390.56 229.86"/>
    <circle class="cls-1" cx="212.96" cy="122.75" r="22.12"/>
    <polygon class="cls-1" points="420.3 35.27 370.92 84.65 363.14 92.43 215.98 239.59 208.19 247.38 160.24 295.33 153.1 288.21 201.72 239.59 211.45 229.86 348.88 92.43 356.66 84.65 413.18 28.13 420.3 35.27"/>
  </g>
  <g>
    <path class="cls-1" d="m245.18,291.07h-4.44l-10.05-15.18v15.18h-4.44v-22.16h4.44l10.05,15.21v-15.21h4.44v22.16Z"/>
    <path class="cls-1" d="m252.78,290.23c-1.35-.75-2.41-1.81-3.19-3.19-.77-1.37-1.16-2.96-1.16-4.75s.4-3.38,1.19-4.75,1.88-2.44,3.25-3.19c1.37-.75,2.91-1.13,4.6-1.13s3.22.38,4.6,1.13c1.37.75,2.46,1.81,3.25,3.19s1.19,2.96,1.19,4.75-.41,3.38-1.22,4.75c-.81,1.37-1.91,2.44-3.3,3.19-1.38.75-2.93,1.13-4.64,1.13s-3.21-.38-4.56-1.13Zm6.83-3.33c.71-.39,1.27-.98,1.7-1.76.42-.78.63-1.73.63-2.85,0-1.67-.44-2.95-1.32-3.85-.88-.9-1.95-1.35-3.22-1.35s-2.33.45-3.19,1.35-1.28,2.18-1.28,3.85.42,2.95,1.25,3.85c.83.9,1.89,1.35,3.15,1.35.8,0,1.56-.2,2.27-.59Z"/>
    <path class="cls-1" d="m274.94,277.16v8.5c0,.59.14,1.02.43,1.28.29.26.77.4,1.44.4h2.06v3.74h-2.79c-3.74,0-5.61-1.82-5.61-5.45v-8.46h-2.09v-3.65h2.09v-4.34h4.47v4.34h3.93v3.65h-3.93Z"/>
    <path class="cls-1" d="m303.28,268.95v3.58h-9.22v5.67h7.07v3.52h-7.07v9.35h-4.44v-22.13h13.66Z"/>
    <path class="cls-1" d="m309.65,290.23c-1.35-.75-2.42-1.81-3.19-3.19s-1.16-2.96-1.16-4.75.4-3.38,1.19-4.75c.79-1.37,1.88-2.44,3.25-3.19,1.37-.75,2.91-1.13,4.6-1.13s3.22.38,4.6,1.13,2.46,1.81,3.25,3.19c.79,1.37,1.19,2.96,1.19,4.75s-.41,3.38-1.22,4.75-1.91,2.44-3.3,3.19-2.93,1.13-4.64,1.13-3.21-.38-4.56-1.13Zm6.83-3.33c.71-.39,1.27-.98,1.7-1.76.42-.78.63-1.73.63-2.85,0-1.67-.44-2.95-1.32-3.85s-1.95-1.35-3.22-1.35-2.33.45-3.19,1.35c-.86.9-1.28,2.18-1.28,3.85s.42,2.95,1.25,3.85,1.89,1.35,3.15,1.35c.8,0,1.56-.2,2.27-.59Z"/>
    <path class="cls-1" d="m343.22,273.51v17.56h-4.47v-2.22c-.57.76-1.32,1.36-2.23,1.79s-1.92.65-3,.65c-1.37,0-2.59-.29-3.64-.87-1.06-.58-1.89-1.44-2.49-2.57-.6-1.13-.9-2.48-.9-4.04v-10.3h4.44v9.67c0,1.39.35,2.47,1.05,3.22.7.75,1.65,1.13,2.85,1.13s2.19-.38,2.88-1.13c.7-.75,1.05-1.82,1.05-3.22v-9.67h4.47Z"/>
    <path class="cls-1" d="m362.4,275.24c1.29,1.32,1.93,3.17,1.93,5.53v10.3h-4.44v-9.7c0-1.39-.35-2.47-1.05-3.22s-1.65-1.13-2.85-1.13-2.19.38-2.9,1.13-1.06,1.82-1.06,3.22v9.7h-4.44v-17.56h4.44v2.19c.59-.76,1.35-1.36,2.27-1.79.92-.43,1.93-.65,3.03-.65,2.09,0,3.78.66,5.07,1.98Z"/>
    <path class="cls-1" d="m368.47,277.5c.71-1.37,1.67-2.43,2.9-3.17,1.22-.74,2.59-1.11,4.09-1.11,1.14,0,2.23.25,3.26.75,1.04.5,1.86,1.16,2.47,1.98v-8.34h4.5v23.46h-4.5v-2.6c-.55.87-1.32,1.56-2.31,2.09-.99.53-2.15.79-3.46.79-1.48,0-2.83-.38-4.06-1.14-1.23-.76-2.19-1.83-2.9-3.22-.71-1.38-1.06-2.97-1.06-4.77s.35-3.35,1.06-4.72Zm12.12,2.01c-.42-.77-.99-1.36-1.71-1.77-.72-.41-1.49-.62-2.31-.62s-1.58.2-2.28.6c-.7.4-1.26.99-1.7,1.76-.43.77-.65,1.69-.65,2.74s.22,1.98.65,2.77c.43.79,1,1.4,1.71,1.82.71.42,1.46.63,2.27.63s1.6-.21,2.31-.62c.72-.41,1.29-1,1.71-1.78s.63-1.7.63-2.77-.21-2-.63-2.77Z"/>
  </g>
</svg>