<?xml version="1.0" encoding="UTF-8"?>
<svg id="Layer_2" data-name="Layer 2" xmlns="http://www.w3.org/2000/svg" viewBox="0 0 440 391.79">
  <defs>
    <style>
      .cls-1 {
        fill: #fff;
      }

      .cls-2 {
        fill: #231f20;
      }
    </style>
  </defs>
  <g id="Layer_1-2" data-name="Layer 1">
    <g>
      <path class="cls-2" d="m228.8,208.2h-17.6c-22.6,0-40.92,18.32-40.92,40.92v108.47h99.44v-108.47c0-22.6-18.32-40.92-40.92-40.92Z"/>
      <path class="cls-2" d="m398.12,323.23h-12.86v-151.54h12.86v-63.24h41.88L220.59,0,0,108.45h41.87v63.24h12.87v151.54h-12.87v35.37H8.73v33.19h422.54v-33.19h-33.15v-35.37Zm-273.29,35.37h-17.72v-35.37h-12.86v-150.25h30.58v185.62Zm144.89-1.01h-99.44v-108.47c0-22.6,18.32-40.92,40.92-40.92h17.6c22.6,0,40.92,18.32,40.92,40.92v108.47Zm76.02-34.36h-12.86v35.37h-17.72v-185.62h30.58v150.25Z"/>
      <path class="cls-1" d="m269.72,249.12v108.47h-99.44v-108.47c0-22.6,18.32-40.92,40.92-40.92h17.6c22.6,0,40.92,18.32,40.92,40.92Z"/>
    </g>
  </g>
</svg>