<?xml version="1.0" encoding="UTF-8"?>
<svg id="Layer_2" data-name="Layer 2" xmlns="http://www.w3.org/2000/svg" viewBox="0 0 332.69 440">
  <defs>
    <style>
      .cls-1 {
        fill: #231f20;
      }
    </style>
  </defs>
  <g id="Layer_1-2" data-name="Layer 1">
    <g>
      <path class="cls-1" d="m166.35,112.46l109.85,82.26c2.04-8.5,3.24-17.34,3.24-26.47,0-37.66-18.48-70.92-46.78-91.47L277.47,0h-124.87l31.04,56.62c-5.65-.87-11.4-1.46-17.29-1.46-62.46,0-113.09,50.63-113.09,113.09,0,13.4,2.45,26.2,6.73,38.13l106.36-93.92Z"/>
      <path class="cls-1" d="m72.76,231.73c20.35,29.94,54.66,49.61,93.59,49.61,42.72,0,79.88-23.7,99.11-58.65l-99.11-68.18-93.59,77.22Z"/>
      <g>
        <path class="cls-1" d="m219.3,319.84h-124.82c-52.18,0-94.49,42.3-94.49,94.49v25.67h219.3v-120.16Z"/>
        <path class="cls-1" d="m270.95,325.67v114.33h61.74v-25.67c0-40.67-25.7-75.33-61.74-88.65Z"/>
      </g>
    </g>
  </g>
</svg>