<?xml version="1.0" encoding="UTF-8"?>
<svg id="Layer_2" data-name="Layer 2" xmlns="http://www.w3.org/2000/svg" viewBox="0 0 437.85 466.6">
  <defs>
    <style>
      .cls-1 {
        fill: #231f20;
      }
    </style>
  </defs>
  <g id="Layer_1-2" data-name="Layer 1">
    <path class="cls-1" d="m387.01,253.28l-19.32-128.13c19.92-11.65,33.31-33.25,33.31-57.99,0-37.09-30.07-67.15-67.15-67.15-27.42,0-50.98,16.44-61.42,39.99h-139.59C122.41,16.44,98.84,0,71.42,0,34.33,0,4.27,30.07,4.27,67.15c0,27.42,16.44,50.98,39.99,61.42v124.46C18.45,262.39,0,287.13,0,316.17c0,37.09,30.07,67.15,67.15,67.15,13.28,0,25.64-3.87,36.06-10.52l45.64,24.26c-.03.79-.06,1.58-.06,2.38,0,37.09,30.07,67.15,67.15,67.15s67.15-30.07,67.15-67.15c0-.91-.03-1.82-.07-2.72l50.04-22.66c10.73,7.27,23.67,11.51,37.61,11.51,37.09,0,67.15-30.07,67.15-67.15,0-31.46-21.63-57.86-50.83-65.15Zm-83.48,65.15c0,3.09.23,6.12.63,9.1l-45.12,20.43c-11.66-9.77-26.69-15.66-43.1-15.66s-31.65,5.98-43.35,15.88l-39.24-20.86c.61-3.63.94-7.35.94-11.14,0-25.73-14.48-48.07-35.73-59.35v-128.26c15.25-6.75,27.5-19.01,34.25-34.25h139.59c7.76,17.51,22.77,31.09,41.24,36.9l19.8,131.31c-18.04,12.04-29.93,32.58-29.93,55.89Z"/>
  </g>
</svg>