<?xml version="1.0" encoding="UTF-8"?>
<svg id="Layer_2" data-name="Layer 2" xmlns="http://www.w3.org/2000/svg" viewBox="0 0 482.51 388.69">
  <defs>
    <style>
      .cls-1 {
        fill: #231f20;
      }
    </style>
  </defs>
  <g id="Layer_1-2" data-name="Layer 1">
    <path class="cls-1" d="m328.23,89.27C328.23,40.14,288.09,0,238.95,0s-89.27,40.14-89.27,89.27,89.27,182.82,89.27,182.82c0,0,89.27-133.58,89.27-182.82Zm-139.94,1.42c0-27.97,22.7-50.56,50.67-50.56s50.56,22.59,50.56,50.56-22.59,50.67-50.56,50.67-50.67-22.7-50.67-50.67Z"/>
    <polygon class="cls-1" points="324.04 388.69 0 388.69 152.61 235.31 180.96 263.52 96.23 348.69 307.41 348.69 386.29 269.42 322.22 269.42 322.22 229.42 482.51 229.42 324.04 388.69"/>
  </g>
</svg>