
<!-- Generator: Adobe Illustrator 27.5.0, SVG Export Plug-In . SVG Version: 6.00 Build 0)  -->
<svg xmlns="http://www.w3.org/2000/svg" xmlns:xlink="http://www.w3.org/1999/xlink" version="1.1" id="Layer_1" x="0px" y="0px" viewBox="0 0 259.088 160" style="0 0 259.088 160" xml:space="preserve">
    <g>
        <g>
            <g>
                <linearGradient id="SVGID_1_" gradientUnits="userSpaceOnUse" x1="129.5434" y1="-17.8345" x2="129.5434" y2="180.2163">
                    <stop offset="0" style="stop-color:#333333"/>
                    <stop offset="0.0503" style="stop-color:#3D3D3D"/>
                    <stop offset="0.1351" style="stop-color:#575757"/>
                    <stop offset="0.2439" style="stop-color:#828282"/>
                    <stop offset="0.372" style="stop-color:#BDBDBD"/>
                    <stop offset="0.5002" style="stop-color:#FFFFFF"/>
                    <stop offset="0.5706" style="stop-color:#C9C9C9"/>
                    <stop offset="0.6575" style="stop-color:#8C8C8C"/>
                    <stop offset="0.7411" style="stop-color:#5A5A5A"/>
                    <stop offset="0.8194" style="stop-color:#333333"/>
                    <stop offset="0.8909" style="stop-color:#171717"/>
                    <stop offset="0.9534" style="stop-color:#060606"/>
                    <stop offset="1" style="stop-color:#000000"/>
                </linearGradient>
                <path style="fill:url(#SVGID_1_);" d="M238.686,151.088V82.929v-6.402V8.367c0,0,0.055-5.536-5.597-5.536h-27.493h-16.424H25.998 c-5.651,0-5.597,5.536-5.597,5.536v68.159v6.402v68.159c0,0-0.055,5.533,5.597,5.533h163.174h5.121h38.796 C238.74,156.621,238.686,151.088,238.686,151.088z"/>
                <path style="fill:#1F1F1F;" d="M236.926,149.26V82.847v-6.237V10.195c0,0,0.055-5.395-5.506-5.395h-27.051h-16.16H27.667 c-5.56,0-5.505,5.395-5.505,5.395v66.414v6.237v66.413c0,0-0.054,5.391,5.505,5.391h160.542h5.039h38.172 C236.98,154.65,236.926,149.26,236.926,149.26z"/>
                <path style="fill:#1F1F1F;" d="M236.926,149.26V82.847v-6.237V10.195c0,0,0.055-5.395-5.506-5.395h-27.051h-16.16H27.667 c-5.56,0-5.505,5.395-5.505,5.395v66.414v6.237v66.413c0,0-0.054,5.391,5.505,5.391h160.542h5.039h38.172 C236.98,154.65,236.926,149.26,236.926,149.26z"/>
                <g>

                    <linearGradient id="SVGID_00000108301553822183143990000003569749131701213337_" gradientUnits="userSpaceOnUse" x1="85.6936" y1="130.5753" x2="85.6936" y2="-56.1529">
                        <stop offset="7.772600e-04" style="stop-color:#676767"/>
                        <stop offset="0.169" style="stop-color:#5D5D5D"/>
                        <stop offset="0.452" style="stop-color:#434343"/>
                        <stop offset="0.813" style="stop-color:#191919"/>
                        <stop offset="1" style="stop-color:#000000"/>
                    </linearGradient>
                    <polygon style="fill:url(#SVGID_00000108301553822183143990000003569749131701213337_);" points="132.348,4.801 22.162,93.414 22.162,106.988 149.226,4.801     "/>

                        <linearGradient id="SVGID_00000036964579079077932370000001238978195453635209_" gradientUnits="userSpaceOnUse" x1="166.9485" y1="-26.1003" x2="193.623" y2="233.3705">
                            <stop offset="7.772600e-04" style="stop-color:#676767"/>
                            <stop offset="0.169" style="stop-color:#5D5D5D"/>
                            <stop offset="0.452" style="stop-color:#434343"/>
                            <stop offset="0.813" style="stop-color:#191919"/>
                            <stop offset="1" style="stop-color:#000000"/>
                        </linearGradient>
                    <polygon style="fill:url(#SVGID_00000036964579079077932370000001238978195453635209_);" points="236.926,82.847 236.926,76.609 236.926,64.535 124.871,154.65 182.676,154.65 236.926,111.023 "/>
                </g>
                <rect x="26.635" y="10.963" style="fill:#FFFFFF;" width="205.817" height="137.525"/>
            </g>
            <path style="opacity:0.6;fill:#FFFFFF;" d="M189.711,4.78l-40.254,0.206l-40.256,0.087L68.946,5.159L28.691,5.084h-0.005 l-0.024-0.002C27.283,4.992,25.792,5.24,24.637,6c-1.184,0.749-1.823,2.111-1.929,3.515c-0.071,2.88-0.024,5.842-0.043,8.76 l-0.018,17.567l-0.037,35.135l-0.192,70.269l-0.192-70.269l-0.036-35.135L22.17,18.274c0.012-2.938-0.04-5.835,0.025-8.806 c0.067-0.752,0.243-1.514,0.603-2.203c0.357-0.688,0.894-1.286,1.539-1.715c1.307-0.855,2.861-1.117,4.384-1.029l-0.029-0.002 l40.255-0.087l40.255,0.076l40.256,0.077L189.711,4.78z"/>
        </g>
    </g>
</svg>

