<?xml version="1.0" encoding="UTF-8"?>
<svg id="Layer_2" data-name="Layer 2" xmlns="http://www.w3.org/2000/svg" viewBox="0 0 338.44 383.31">
  <g id="Layer_1-2" data-name="Layer 1">
    <path d="m37.45,383.31c-4.32-1.46-8.9-2.43-12.93-4.48C8.69,370.78.11,357.7.09,339.9-.05,241.08.01,142.27.03,43.46.03,19.29,19.32.03,43.52.02,97.3,0,151.08,0,204.86.01c24.63,0,43.59,18.52,44.25,43.21.11,4.1.02,8.2.02,12.54h-22.78c0-3.31-.2-6.74.03-10.14.95-14.12-10.09-23.36-23.24-23.29-52.41.27-104.82.11-157.23.11-14.83,0-23.45,8.63-23.45,23.45,0,81.47,0,162.94,0,244.41,0,14.78,8.66,23.39,23.52,23.39,52.28,0,104.57-.17,156.85.12,13.14.07,24.63-8.83,23.55-23.76-.21-2.96-.03-5.94-.03-9.26h22.79c0,1.15,0,2.46,0,3.77,0,17.72.02,35.43,0,53.15-.03,23.32-13.43,39.87-36.35,44.97-.32.07-.59.41-.88.62H37.45Zm87.41-47.22c-5.73,0-11.47-.05-17.2.01-6.97.07-12.35,5.1-12.6,11.69-.27,6.92,4.65,12.77,11.69,12.95,11.96.3,23.94.28,35.9.02,7.1-.16,11.95-5.79,11.78-12.82-.16-6.72-5.36-11.75-12.37-11.83-5.73-.07-11.47-.01-17.2-.02Z"/>
    <path d="m237.06,67.15c-55.99,0-101.38,45.39-101.38,101.38s45.39,101.38,101.38,101.38,101.38-45.39,101.38-101.38-45.39-101.38-101.38-101.38Zm0,25.87c16.39,0,31.52,5.28,43.9,14.15l-105.26,105.26c-8.87-12.38-14.15-27.51-14.15-43.9,0-41.7,33.81-75.51,75.51-75.51Zm0,151.02c-16.39,0-31.52-5.28-43.9-14.15l105.26-105.26c8.87,12.38,14.15,27.51,14.15,43.9,0,41.7-33.81,75.51-75.51,75.51Z"/>
  </g>
</svg>