<?xml version="1.0" encoding="UTF-8"?>
<svg id="Layer_2" data-name="Layer 2" xmlns="http://www.w3.org/2000/svg" viewBox="0 0 338.44 383.31">
  <g id="Layer_1-2" data-name="Layer 1">
    <path d="m37.45,383.31c-4.32-1.46-8.9-2.43-12.93-4.48C8.69,370.78.11,357.7.09,339.9-.05,241.08.01,142.27.03,43.46.03,19.29,19.32.03,43.52.02,97.3,0,151.08,0,204.86.01c24.63,0,43.59,18.52,44.25,43.21.11,4.1.02,8.2.02,12.54h-22.78c0-3.31-.2-6.74.03-10.14.95-14.12-10.09-23.36-23.24-23.29-52.41.27-104.82.11-157.23.11-14.83,0-23.45,8.63-23.45,23.45,0,81.47,0,162.94,0,244.41,0,14.78,8.66,23.39,23.52,23.39,52.28,0,104.57-.17,156.85.12,13.14.07,24.63-8.83,23.55-23.76-.21-2.96-.03-5.94-.03-9.26h22.79c0,1.15,0,2.46,0,3.77,0,17.72.02,35.43,0,53.15-.03,23.32-13.43,39.87-36.35,44.97-.32.07-.59.41-.88.62H37.45Zm87.41-47.22c-5.73,0-11.47-.05-17.2.01-6.97.07-12.35,5.1-12.6,11.69-.27,6.92,4.65,12.77,11.69,12.95,11.96.3,23.94.28,35.9.02,7.1-.16,11.95-5.79,11.78-12.82-.16-6.72-5.36-11.75-12.37-11.83-5.73-.07-11.47-.01-17.2-.02Z"/>
    <path d="m237.36,66.68c-56.28-.16-101.83,45.27-101.86,101.58-.03,56.12,45.3,101.54,101.45,101.64,55.64.1,101.34-45.31,101.5-100.85.16-56.56-44.91-102.21-101.08-102.38Zm-1.93,184.15c-12.24,0-20.56-9.01-20.56-21.02s8.55-21.02,20.56-21.02,20.56,8.78,20.79,21.02c0,12.01-8.32,21.02-20.79,21.02Zm27.96-85.94c-8.55,9.47-12.01,18.48-11.78,28.88,0,2.3-3.86,4.16-6.16,4.16h-18.56c-3.36,0-6.11-2.65-6.24-6.01-.69-11.78,3.23-23.8,13.63-36.27,7.39-8.78,13.4-16.17,13.4-24.03s-5.31-13.4-16.87-13.86c-5.98,0-12.95,1.7-18.58,4.45-2.31,1.12-5.07-.02-5.84-2.47l-5.29-16.94c-.61-1.94.27-4.05,2.09-4.95,8.45-4.19,20.97-7.8,35.47-7.8,30.5,0,44.36,16.87,44.36,36.04,0,17.56-10.86,29.11-19.64,38.81Z"/>
  </g>
</svg>