<?xml version="1.0" encoding="UTF-8"?>
<svg id="Layer_1" data-name="Layer 1" xmlns="http://www.w3.org/2000/svg" viewBox="0 0 270.78 270.05">
  <defs>
    <style>
      .cls-1 {
        fill: #fff;
      }
    </style>
  </defs>
  <path class="cls-1" d="m189.71,67.15l7.78-7.78H14.67v162.73h20.09l7.79-7.79h-20.09V67.15h167.25Zm41.32-7.78l-7.78,7.78h26.69v147.16H76.09l-7.79,7.79h189.42V59.37h-26.69Z"/>
  <polygon class="cls-1" points="130.86 126 52.28 204.58 32.79 204.58 103.86 79.49 130.86 126"/>
  <polygon class="cls-1" points="241.04 204.58 85.82 204.58 143.17 147.23 162.85 181.13 192.71 142.04 241.04 204.58"/>
  <circle class="cls-1" cx="63.43" cy="97.47" r="22.12"/>
  <polygon class="cls-1" points="270.78 9.99 221.4 59.37 213.62 67.15 66.46 214.31 58.67 222.1 10.72 270.05 3.58 262.93 52.2 214.31 61.93 204.58 199.36 67.15 207.14 59.37 263.66 2.85 270.78 9.99"/>
</svg>