<?xml version="1.0" encoding="UTF-8"?>
<svg id="Layer_2" data-name="Layer 2" xmlns="http://www.w3.org/2000/svg" viewBox="0 0 452.84 465.62">
  <defs>
    <style>
      .cls-1 {
        fill: #231f20;
      }
    </style>
  </defs>
  <g id="Layer_1-2" data-name="Layer 1">
    <g>
      <g>
        <path class="cls-1" d="m126.66,201.77c0,56.9,46.13,103.02,103.02,103.02h0c55.25,0,100.04-44.79,100.04-100.05v-41.54H126.66v38.56Z"/>
        <path class="cls-1" d="m327.96,97.76v-32.46c0-36.06-29.23-65.3-65.3-65.3h-72.48c-36.06,0-65.3,29.23-65.3,65.3v32.46H55.9v43.82h341.05v-43.82h-68.99Z"/>
      </g>
      <g>
        <path class="cls-1" d="m199.84,375.53l-70.89,30.73,28.5-76.7h-62.35c-52.52,0-95.1,42.58-95.1,95.1v40.96h199.84v-90.09Z"/>
        <path class="cls-1" d="m357.74,329.56h-62.35l28.5,76.7-70.89-30.73v90.09h199.84v-40.96c0-52.52-42.58-95.1-95.1-95.1Z"/>
      </g>
    </g>
  </g>
</svg>