<?xml version="1.0" encoding="UTF-8"?>
<svg id="Layer_2" data-name="Layer 2" xmlns="http://www.w3.org/2000/svg" viewBox="0 0 440 391.79">
  <defs>
    <style>
      .cls-1 {
        fill: #231f20;
      }
    </style>
  </defs>
  <g id="Layer_1-2" data-name="Layer 1">
    <path class="cls-1" d="m398.13,323.23h-12.86v-151.55h12.86v-63.24h41.87L220.59,0,0,108.45h41.87v63.24h12.86v151.55h-12.86v35.36H8.73v33.2h422.54v-33.2h-33.15v-35.36Zm-52.38-151.55v151.55h-12.86v35.36h-31.76v-35.36h-12.86v-151.55h12.86v-30.45h31.76v30.45h12.86Zm-154.49,151.55v-151.55h12.86v-30.45h31.76v30.45h12.86v151.55h-12.86v35.36h-31.76v-35.36h-12.86Zm28.74-278.07c17.78,0,32.19,14.41,32.19,32.19s-14.41,32.19-32.19,32.19-32.19-14.41-32.19-32.19,14.41-32.19,32.19-32.19Zm-125.75,278.07v-151.55h12.86v-30.45h31.76v30.45h12.86v151.55h-12.86v35.36h-31.76v-35.36h-12.86Z"/>
  </g>
</svg>