<?xml version="1.0" encoding="UTF-8"?>
<svg id="Layer_2" data-name="Layer 2" xmlns="http://www.w3.org/2000/svg" viewBox="0 0 660.47 633.61">
  <g id="Layer_1-2" data-name="Layer 1">
    <g>
      <path d="m656.41,329.75c-3.18-.45-6.47-.11-9.72-.1-4.31,0-8.63,0-13.08,0,.53-6.69,1.35-12.78,1.36-18.86,0-3.89,1.26-4.96,4.93-4.72,4.48.29,8.99.08,13.48.15,2.53.04,4.76-.67,4.74-3.52-.02-2.91-2.39-3.44-4.84-3.39-1.62.04-3.25.11-4.87.12-4.32.02-8.64,0-13.35,0,0-9.49.06-18.47-.02-27.45-.07-8.61-.03-17.24-.5-25.83-.3-5.42-2.77-9.98-7.45-13.24-1.16-.81-1.96-2.52-2.37-3.97-5.13-18.32-11.68-36.08-20.33-53.04-.75-1.47-1.8-2.79-2.7-4.17-2.46,1.75-4.47,3.18-6.64,4.72,3.46,8.26,6.89,16.44,10.37,24.75-18.76,0-36.73-.01-54.69.02-1.74,0-3.55,0-5.18.49-.82.25-1.84,1.59-1.82,2.42.01.8,1.1,1.92,1.97,2.27,1.1.44,2.45.31,3.69.32,8.86.03,17.73.06,26.59.03,8.61-.03,17.3.5,25.82-.44,4.58-.51,5.95,1.07,7.07,4.57,1.67,5.23,3.32,10.47,5.17,15.64.46,1.28,1.39,2.94,2.5,3.36,9.03,3.42,11.71,10.64,11.84,19.34.13,8.49,0,16.98-.02,25.47-.02,5.62.01,11.24-.13,16.85-.16,5.94-2.31,10.94-7.44,14.36-.46.31-.78.82-1.62,1.74,2.48-.23,4.26-.4,7.02-.65-.68,6.54-1.44,12.44-1.85,18.38-.25,3.56-1.84,4.45-5.25,4.42-20.85-.18-41.7-.14-62.55-.16-1.25,0-2.69-.29-3.69.23-1.18.62-2.65,1.93-2.72,3.02-.06,1,1.38,2.53,2.51,3.05,1.26.58,2.93.36,4.42.37,20.1.1,40.2.18,60.31.29,1.68,0,3.35.23,5.3.37-.65,3.77-1.01,7.12-1.84,10.35-1.52,5.88-3.48,11.64-4.94,17.53-1.27,5.13-1.71,10.49-3.22,15.53-9.06,30.25-22.71,58.31-40.78,84.22-1.56,2.24-3.23,3.34-6.11,3.31-10.99-.15-21.97-.01-32.96.01-4.58,0-9.15,0-14.28,0,0-3.34,0-5.95,0-8.55.08-38.95.18-77.89.23-116.84.04-35.2.05-70.4.04-105.6,0-18.35-.08-36.69-.2-55.04,0-1.21-.36-3.11-1.14-3.49-3.97-1.94-8.13-3.48-12.47-5.27,0,.9,0,1.5,0,2.1,0,37.58-.02,75.15-.02,112.73,0,20.97.13,41.94-.03,62.91-.03,3.86-.47,8-1.92,11.52-3.43,8.29-7.72,16.22-11.41,24.41-12.09,26.85-32.74,40.31-62.21,40.21-17.36-.05-34.71-.07-52.07-.07-46.45,0-92.9.16-139.35,0-25.74-.09-45.02-11.49-57.03-34.44-5.67-10.83-11.04-21.82-16.21-32.9-1.48-3.17-2.47-6.89-2.5-10.37-.2-25.01-.13-50.03-.08-75.05.06-29.78.19-59.56.28-89.34.02-5.4,0-10.79,0-16.84-1.69,1.17-2.59,1.8-3.5,2.43-3.65,2.51-8.77,4.27-10.54,7.74-1.81,3.55-.29,8.77-.29,13.26,0,87.9,0,175.8,0,263.7v6.14c-12.68-7.09-25.26-11.93-38.79-13.76-.62-7.98-3.38-11.26-8.99-10.98-5.49.28-8.04,3.66-8.07,11.1-1.26.19-2.67.16-3.9.62-3.51,1.32-5.24-.3-7.11-3.16-11.64-17.9-20.69-37.02-27.53-57.2-2.03-5.98-3.75-12.06-5.69-18.36,1.95-.21,3.27-.36,4.53-.49,1.06-5,1.03-4.95-3.54-5.41-.92-.09-2.39-.78-2.55-1.45-1.9-7.84-3.59-15.73-5.49-24.26,2.11,0,3.31,0,4.52,0,20.72.18,41.45.39,62.17.55,13.71.11,20.58-6.7,20.57-20.35-.01-22.1-.04-44.2-.06-66.3,0-12.82-6.79-19.53-19.7-19.5-13.36.03-26.72.05-40.08.06-7.09,0-14.18,0-22.22,0,2.88-8.63,5.51-16.64,8.3-24.59.23-.66,1.5-1.35,2.29-1.35,13.98.04,27.96.19,41.93.31,2.36.02,5.54.44,5.58-2.74.03-3.1-3.27-2.49-5.34-2.52-10.36-.11-20.72-.05-31.08-.05-3.43,0-6.87,0-10.37,0,1.14-7.58,13.12-31.62,18.81-37.94,9.23,6.24,19.86,8.67,30.83,10.01,0,4.64,0,8.87,0,13.11.01,4.62,1.97,7.39,5.12,7.27,3.13-.12,4.76-2.61,4.74-7.16-.02-4.31,0-8.62,0-13.11,1.5-.22,2.71-.45,3.94-.56,33.07-3.05,57.73-31.37,62.56-59.47,1.26-7.36,1.12-7.38,8.46-7.41,3.29-.01,5.72-1.99,5.61-4.73-.14-3.35-2.4-4.41-5.32-4.5-2.34-.07-4.68-.01-6.75-.01-5.59-40.76-27.49-65.45-68.63-72.26,0-4.46-.07-9.07.02-13.67.07-3.35-1.44-5.24-4.74-5.49-2.89-.23-4.61,1.76-4.73,5.44-.11,3.37-.32,6.77,0,10.11.33,3.57-1.06,4.72-4.49,5.05-14.66,1.45-27.36,7.64-38.25,17.3-15.03,13.33-23.6,30.1-25.07,50.26-.19,2.56-1.03,3.57-3.61,3.38-2.11-.15-4.25-.05-6.36.12-2.54.21-4.28,1.55-4.31,4.25-.03,2.77,1.86,4,4.32,4.26,2.1.22,4.26.26,6.35.04,2.51-.27,3.51.54,3.81,3.13,1.15,9.92,4.35,19.18,9.43,27.81,4.86,8.25,11.01,15.37,18.59,21.42-2.27,3.7-4.53,7.13-6.53,10.7-10.76,19.16-18.14,39.67-24.02,60.77-.47,1.68-1.31,3.72-2.64,4.62-6.41,4.38-8.88,10.4-8.8,17.95.13,14.23-.08,28.47.16,42.7.06,3.73-1.14,4.8-4.65,4.59-3.98-.24-8.02-.33-11.97.11-1.36.15-2.5,2.13-3.75,3.27,1.23,1.12,2.29,2.58,3.73,3.26,1.12.54,2.7.12,4.07.12,4.06,0,8.12,0,12.29,0,.93,8.11-1.37,15.95,3.25,23.18H8.4c.2-.38.4-.76.59-1.14-1.52-.96-3.04-2.73-4.55-2.72-3.07.04-2.49,2.88-2.42,4.9.15,4.19,2.81,6.65,7.39,6.75,6.12.13,12.24.18,18.35,0,2.88-.08,3.99.66,4.48,3.77,5.94,37.66,17.99,73.12,38.68,105.38,1.04,1.62,2.01,3.29,3.24,5.31-35.93,12.49-56.35,37.32-61.73,74.2-8.6.82-12.74,4.52-12.43,10.8.31,6.2,4.58,9.35,12.79,9.36,7.91,44.6,34.08,70.43,79.17,76.31.43,7.32,3.16,10.9,8.35,11.26,4.98.35,7.69-2.98,9.46-11.78,20.02-1.82,36.8-11.16,51.96-23.93,7.02,15.27,18.34,22.55,34.77,22.46,35.92-.2,71.83-.05,107.75-.05,54.14,0,108.28,0,162.42.04,8.87,0,17.54-.75,24.85-6.41,2.4-1.86,4.17-2.88,7.22-1.09,2.01,1.18,4.81,1.38,7.25,1.38,34.09.13,68.18.15,102.27.18,1.49,0,3-.17,4.46-.43,15.75-2.84,25.89-15.15,25.96-31.89.12-27.22.09-54.44.1-81.66,0-19.86-12.58-32.49-32.54-32.6-7.12-.04-14.23.13-21.35.17-.93,0-1.86-.14-3.27-.25.93-1.47,1.61-2.48,2.24-3.52,4.61-7.56,9.5-14.97,13.75-22.73,17.13-31.28,28.25-64.65,33.93-99.82.63-3.91,2.05-5.1,5.92-4.86,5.47.34,10.98.06,16.48.02.99,0,2.26.24,2.93-.26,1.37-1.04,2.41-2.5,3.59-3.79-1.34-1.06-2.59-2.81-4.06-3.02ZM116.9,163.98c0-2.56-.52-5.28.19-7.62.45-1.47,2.58-2.79,4.25-3.45,10.14-4.03,18.82-10.15,26.2-18.09,6.83-7.35,11.46-15.94,13.5-25.84.2-.96.51-1.9.78-2.91h13.1c-1,26.49-26.73,57.65-58.03,57.93Zm.21-128.85c26.23-2.45,62.17,35.85,57.84,61.8h-13.03c0-5.89.04-11.58-.01-17.27-.04-4.1,1.15-9.05-.72-12.05-1.75-2.8-6.92-3.34-10.39-5.23-9.63-5.23-19.09-10.77-28.74-15.94-4.69-2.51-6.24-6.06-4.94-11.31Zm-4.9,34.74c1.42,1.16,2.73,2.24,4.06,3.3,6.03,4.8,12.7,8.41,20.18,10.34,2.04.53,2.77,1.29,2.81,3.49.3,19.18-8.66,33.1-24.35,43.2-.97.62-2.82,1-3.67.5-15.39-9.09-27.46-23.88-24.89-46.67,9.77-2.19,18.22-7.07,25.86-14.16Zm-63.22,27.25c.62-36.2,32.65-61.38,58.3-62.19.92,4.66.43,8.17-4.26,11.33-11.56,7.77-23.67,14.35-36.58,19.47-2.46.98-3.39,2.16-3.32,4.9.2,7.73-.04,15.47.04,23.21.03,2.37-.68,3.41-3.18,3.32-3.59-.14-7.18-.04-11.01-.04Zm.35,8.64c4.32,0,8.64-.21,12.9.18.86.08,1.9,2.32,2.21,3.71,2.03,9.26,6.65,17.08,12.75,24.17,7.14,8.29,15.81,14.46,26,18.32,3.49,1.32,5.01,3.11,4.49,6.79-.22,1.56-.04,3.18-.04,4.76-28.01-1-56.45-26.74-58.31-57.93Zm55.86,208.94c-1.52.47-3.2.46-4.79.66-2.78-.36-6.08-.59-6.36-3.86-.08-.95,3.62-2.78,5.78-3.19,2.02-.39,4.42.25,6.41,1.05.94.38,1.79,2.21,1.74,3.34-.03.73-1.68,1.67-2.77,2.01Zm-68.86.14c-.08-19.96-.05-39.92.03-59.89.03-7.48,3.42-11.2,10.93-11.28,19.96-.2,39.92-.2,59.89-.05,6.99.05,10.77,4.21,10.78,11.13.03,19.82.01,39.65-.3,59.49-.07-.72-.19-1.43-.2-2.15-.24-14.06-14.85-18.32-24.16-14.27-2.74,1.19-5.89,1.84-8.88,1.96-6.98.29-13.97.1-20.96.14-1.24,0-2.52.02-3.71.32-3.16.81-5,2.94-4.8,6.23.2,3.28,2.2,5.38,5.5,5.55,4.6.25,9.23.12,13.84.14,2.73.01,5.46,0,8.35,0,.54,5.23,1.01,9.89,1.52,14.86-1.11.05-2.31.16-3.52.16-10.73-.07-21.46-.13-32.19-.26-8.49-.11-12.08-3.6-12.12-12.1Zm-30.01,224.93c-1.82-2.28-1.9-4.86-.28-7.24,1.39-2.04,3.41-2.52,5.89-1.6-1.22,1.77-3.06,3.27-3.02,4.72.04,1.52,1.9,2.98,3.29,4.92-2.1.93-4.18,1.33-5.87-.8Zm91.67-95.94c.24-.98,1.6-2.33,2.47-2.33.96,0,1.92,1.35,2.88,2.12-.76.86-1.53,1.72-2.29,2.58-.67.32-1.34.65-2.02.97-.39-1.12-1.27-2.37-1.03-3.33Zm2.78,184.52c-1.15-.25-2.38-1.46-2.95-2.59-.34-.68.5-1.96.9-3.25,2.64,1.91,3.62,2.62,4.6,3.33-.86.9-1.91,2.65-2.55,2.52Zm59.98-33.23c-4.44-3.92-8.69-7.68-13.12-11.6-11.95,11.45-26.23,17.32-42.88,18.89,0,4.43-.07,8.76.03,13.08.05,2.28-.56,3.52-3.13,3.39-2.32-.12-4.71.17-4.71-3.21,0-4.23,0-8.47,0-13.11-11.11-1.33-21.59-3.77-31.12-10.17-3.48,4.61-6.76,8.95-10.27,13.6-8.27-4.7-15.25-11.04-21.57-18.81,4.37-4,8.47-7.75,12.75-11.67-5.69-7.95-10.06-16.44-12.05-26-.33-1.59-.67-3.17-.94-4.77q-.91-5.53-6.7-5.54c-1.87,0-3.93.36-5.56-.3-1.72-.7-3.02-2.42-4.5-3.7,1.42-1.37,2.69-3.67,4.28-3.92,3.75-.58,7.66-.19,11.81-.19,1.13-13.71,5.22-25.8,13.63-36.53-4.27-4.08-8.29-7.92-12.7-12.14,2.4-1.85,4.34-3.35,6.56-5.06,3.4,3.14,7.31,6.75,11.29,10.43,12.26-12.65,27.36-19.03,45.01-20.96,0-4.2.03-8.18,0-12.15-.03-2.93,1.81-3.41,4.19-3.49,2.56-.08,3.66,1.08,3.64,3.56-.03,3.85,0,7.7,0,11.91,17.59,1.93,32.6,8.48,44.84,21.51,4.26-3.75,8.42-7.42,12.93-11.39,1.72,1.9,3.26,3.61,5.02,5.55-4.23,4.16-8.34,8.21-12.55,12.35,8.34,10.74,11.73,22.9,13.52,36.1,3.43,0,6.71-.39,9.84.14,1.95.33,4.07,1.71,5.31,3.27.52.66-1.38,2.93-1.55,4.54-.14,1.41.51,2.94,1,4.35.36,1.04,1.61,2.03,1.5,2.92-2.3,18.93-9.82,35.36-23.78,49.11Zm29.83-52.36c-.94-.16-1.71-1.36-2.56-2.09.8-.66,1.54-1.79,2.4-1.89,1.91-.22,3.52-.43,3.68-2.77.17-2.43-1.09-3.23-3.4-3.34-.74-.04-1.43-1.31-2.14-2.01.82-.56,1.59-1.51,2.46-1.61,3.76-.42,7.23,3.05,7.18,6.95-.06,4.29-3.47,7.45-7.61,6.76Zm255.9,23.74c-.87.62-2.42.37-3.66.38-73.78.06-147.57.12-221.35.09-1.74,0-3.8-.57-5.15-1.61-3.3-2.51-2.33-6.91,1.65-8.09,1.4-.42,2.95-.45,4.44-.45,36.7-.02,73.41-.02,110.11-.02v.04c36.33,0,72.66,0,108.99.02,1.86,0,4.07-.24,5.47.65,1.56.98,3.33,3.16,3.27,4.75-.06,1.49-2.21,3.14-3.77,4.25Zm3.02-33.23c-4.07,7.63-11.17,9.94-19.19,9.97-24.21.1-48.42.08-72.63.1-8.74,0-17.47,0-26.21,0v.03c-31.82,0-63.65.01-95.47-.02-2.86,0-5.79.04-8.56-.57-9.85-2.18-15.79-10.92-14.95-21.61.75-9.57,8.38-17.29,18.12-17.76,7.47-.37,14.97-.17,22.46-.18,48.4-.1,96.8-.22,145.2-.26,11.47-.01,22.96-.07,34.41.45,15.34.69,24.03,16.32,16.82,29.85Zm-1.38-53.36c-3.47,5.18-8.79,7.22-14.7,7.78-3.59.34-7.23.19-10.85.19-62.39,0-124.79,0-187.18.03-6.61,0-12.7-1.19-17.39-6.26-5.82-6.29-7.13-13.65-4.04-21.51,3.11-7.9,9.48-11.93,17.77-12.07,17.22-.28,34.44-.12,51.66-.13,16.1,0,32.2,0,48.29,0,33.06,0,66.13,0,99.19-.01,8.31,0,14.89,3.36,18.8,10.72,3.84,7.23,2.96,14.51-1.56,21.26Zm178,93.58c0,3.49.13,6.99.01,10.48-.37,10.67-8.08,18.31-18.71,18.33-33.34.06-66.68.08-100.02-.02-14.76-.05-23.32-8.7-23.33-23.34,0-22.98.1-45.95.16-68.93,0-1.46,0-2.92,0-4.71h141.89c0,23.03,0,45.61,0,68.19Zm-23.77-93.93c2.86.01,5.74.18,8.57.57,8.36,1.14,14.68,8.3,15.13,17.57h-141.59c.35-5.51,3.01-9.72,6.88-13.19,3.85-3.45,8.5-5.16,13.7-5.16,12.1,0,24.2,0,36.3.03,20.33.04,40.67.08,61,.18Z"/>
      <path d="m421.15,377.66c-12.5,12.99-24.57,25.54-37.36,38.83,18.61,0,36.11.79,53.51-.23,15.95-.94,29.41-8.45,38.21-22.07,9.54-14.76,9.62-10.95,2.55-26.91-.25-.57-.49-1.15-.78-1.7-17.02-32.36-44.03-53.25-77.1-67.25-1.74-.74-3.61-2.37-4.35-4.06-3.47-7.87-6.48-15.95-9.85-23.87-1.03-2.44-.97-4.31.62-6.52,7.04-9.77,11.27-20.82,13.89-32.48.67-3,1.75-4.5,4.81-5.56,7.91-2.76,13.06-8.48,13.94-16.96.89-8.49-2.03-15.41-10.1-19.62-.99-.52-1.64-2.59-1.65-3.95-.12-13.23-.03-26.47-.07-39.71-.04-12.34-4.54-18.98-16.04-23.38-2.06-.79-2.88-1.82-3.12-3.91-.86-7.36-4.7-13-10.39-17.55-5.76-4.61-12.31-7.53-19.42-9.31-13.81-3.46-27.75-2.63-41.7-1.18-16.92,1.76-33.85,3.01-50.72-.38-3.71-.75-7.35-1.85-11.43-2.9.06,12.08,1.55,23.38,6.94,33.81,2.23,4.32,3.96,8.3,1.95,13.25-.81,1.98-.59,4.43-.6,6.66-.06,13.86-.12,27.72,0,41.58.03,3.92-.07,7.41-4.63,8.87-.87.28-1.57,1.21-2.25,1.93-10.2,10.73-5.58,28.27,8.87,32.93,3.07.99,4.24,2.42,4.87,5.46,2.47,12.12,7.16,23.34,14.22,33.56.69,1,.94,2.86.51,3.98-3.38,8.86-6.92,17.66-10.56,26.41-.46,1.11-1.62,2.31-2.73,2.71-18.12,6.53-33.85,16.98-48.29,29.48-15.66,13.56-27.22,30.08-34.8,49.39-1.18,3.02-1.03,5.66.49,8.56,10.57,20.21,27.16,30.75,49.98,31.09,14.85.22,29.72.06,44.57.06.82,0,1.63-.14,3.37-.3-12.73-13.21-24.93-25.86-37.52-38.92,8.5-6.96,16.23-13.29,24.04-19.68q3.78,5.82-.55,9.51c-4.03,3.46-8.02,6.98-12.3,10.71,12.37,12.82,24.38,25.32,36.5,37.72.72.73,2.27.9,3.43.9,23.35.05,46.7.08,70.05-.05,1.6,0,3.56-.99,4.72-2.15,6.97-6.97,13.78-14.11,20.61-21.22,4.74-4.94,9.43-9.92,14.45-15.21-4.35-3.84-8.46-7.43-12.54-11.06q-4.39-3.9-.14-9.06c7.83,6.47,15.65,12.94,23.88,19.74Zm-125.27-33.16c-3.93-12.34-7.81-24.69-11.79-37.01-.92-2.85-.91-5.35.51-8.17,2.96-5.89,5.48-12,8.2-18.02.5-1.1,1.09-2.16,1.33-2.63,9.88,7.33,19.62,14.56,29.95,22.23-8.6,14.88-17.6,30.44-26.93,46.59-.58-1.35-1.01-2.14-1.27-2.99Zm30.86-6.66c-5.28,16.47-10.61,32.92-15.93,49.38-.48,1.48-.96,2.97-2.32,4.5-2.97-10.37-5.98-20.73-8.83-31.13-.28-1.02.16-2.53.8-3.45,6.89-10.06,13.88-20.05,21.16-30.53,1.85,3.56,3.42,6.52,4.91,9.53.24.49.37,1.21.21,1.71Zm-21.11-70.64c-12.36-10.99-19.11-25.04-22.8-40.78-2.39-10.18-4.44-20.43-6.72-31.03,6.8-2.43,8.1-7.15,8.53-13.42.64-9.39,2.69-18.68,4.21-28,.19-1.18.83-2.29,1.25-3.41,6.21,1.95,12.03,4.29,18.08,5.59,18.62,4,37.15,4.17,55.29-2.65,1.86-.7,3.66-1.59,5.45-2.47,6.09-2.97,11.93-.62,13.24,6.2,1.66,8.66,2.73,17.47,3.4,26.26.37,4.81,1.8,8.33,5.96,10.87,1.11.68,2.44,2.55,2.23,3.59-3.13,15.38-5.66,30.94-11.87,45.51-4.53,10.64-11.27,19.67-20.51,26.7-17.5,13.32-38.84,12.07-55.73-2.94Zm64.99,94.16c-2.74,9.85-5.69,19.63-8.6,29.43-.1.33-.42.59-.97,1.33-1.37-4.6-2.61-8.86-3.91-13.1-3.52-11.43-6.35-23.16-10.87-34.18-2.84-6.91-2.44-12.12,2.58-17.52.61.69,1.48,1.5,2.14,2.46,6.31,9.13,12.62,18.26,18.79,27.48.73,1.09,1.18,2.89.84,4.11Zm15.68-55.35c-3.82,12.66-7.88,25.25-11.9,37.85-.32,1.01-.88,1.94-1.53,3.32-9.25-15.94-18.23-31.41-26.91-46.37,10.31-7.51,20.15-14.67,30.31-22.07.44.88,1.31,2.45,2.03,4.08,2.57,5.82,5.21,11.62,7.54,17.54.67,1.7.96,3.95.45,5.65Z"/>
      <path d="m163.95,30.8c7.49,5.15,13.63,11.61,18.24,19.52.54.93,2.06,1.83,3.13,1.83,27.78.08,55.57.02,83.36.01,41.22,0,82.45,0,123.67,0,30.91,0,61.82.03,92.72.04,7.96,0,15.93,0,24.42,0,0-8.25.41-15.49-.16-22.66-.34-4.23-1.55-8.71-3.55-12.43C499.65,5.71,489.77,0,476.76,0c-54.05,0-108.1.03-162.15.04-40.32,0-80.64-.06-120.96.05-15.6.04-28.28,10.45-31.59,25.34-.51,2.3-.27,3.89,1.89,5.37Zm119.98-13.33c1.71-.65,3.65-.9,5.49-.91,30.09-.09,60.18-.12,90.27-.13,1.49,0,3.01.1,4.46.43,5.19,1.2,8.61,5.77,8.08,10.62-.55,5.02-4.19,8.25-9.85,8.33-8.24.11-16.48,0-24.72,0-7.49,0-14.98,0-22.47,0-15.23-.01-30.47.09-45.7-.11-2.74-.04-5.96-.61-8.08-2.15-5.88-4.27-4.3-13.5,2.52-16.08Zm-36.32,2.18c4.22-.04,7.71,3.37,7.69,7.51-.02,4.34-3.27,7.82-7.34,7.87-4.1.05-7.71-3.7-7.71-8,0-4.02,3.32-7.35,7.36-7.38Zm-28.14.03c4.26-.04,7.63,3.18,7.74,7.41.12,4.35-3.35,7.91-7.68,7.88-3.8-.03-7.01-3.52-7.05-7.68-.04-4.32,2.94-7.57,6.98-7.6Zm-27.9,0c4.02-.11,7.66,3.38,7.75,7.44.09,4.31-3.09,7.66-7.33,7.73-3.81.06-7.55-3.67-7.65-7.65-.1-3.9,3.27-7.41,7.23-7.52Z"/>
      <path d="m501.15,87.34c0,16.6-.04,33.2-.03,49.8.01,16.04,9.7,26.01,25.73,26.28,9.85.16,19.7.03,29.56.03,0,0,0-.02,0-.03,10.6,0,21.21.28,31.8-.07,14.21-.46,24.25-11.07,24.27-25.2.03-17.47-.05-34.94-.05-52.42,0-9.07-3.04-16.78-10.72-21.86-3.17-2.1-4.03-4.34-3.98-7.88.09-7.09.75-14.41-.66-21.25-4.49-21.78-27.58-35.03-49.92-29.8-17.03,3.99-31.55,20.61-30.41,38.94.31,4.97.14,9.99-.09,14.97-.06,1.23-.88,2.96-1.89,3.54-9.61,5.6-13.62,14.15-13.62,24.95Zm62.24,25.91c1.19,3.54,2.12,7.18,2.98,10.82,1.46,6.16-.33,8.41-6.6,8.53-1,.02-2,0-3,0-10.09-.09-11.22-1.65-8.2-11.4.48-1.55.84-3.13,1.33-4.68,1.39-4.41,2.45-7.98-2.52-11.83-5.71-4.42-4.69-12.84.8-17.79,5.62-5.07,14.07-4.46,19.03,1.38,4.67,5.5,4.21,13.71-1.64,17.92-2.98,2.14-3.18,4.03-2.17,7.04Zm-22.04-88.34c8.21-6.16,17.2-7.37,26.42-2.99,9.36,4.45,14.9,11.87,14.9,22.7,0,4.22,0,8.44,0,13.19h-50.52c-.33-12.05-2.25-24.3,9.21-32.9Z"/>
      <path d="m608.22,308.44c8.41-.16,15.58-6.68,15.74-14.99.31-15.84.33-31.69.06-47.53-.14-8.38-7.95-15.98-16.33-16.17-14.2-.32-28.41-.48-42.61-.3-10.59.14-17.49,7.1-17.7,17.79-.29,14.72-.33,29.45-.12,44.16.16,10.82,6.33,16.76,17.16,17,7.23.16,14.47.03,21.71.03v.03c7.36,0,14.73.11,22.08-.03Zm-28.67-20.98c-3.45-.24-4.83-2.41-3.92-5.74.95-3.48,2.06-6.94,3.43-10.27.87-2.11.76-3.51-.9-5.22-3.35-3.45-4.18-7.6-2.08-12.04,1.99-4.22,6.37-6.74,10.96-6.35,4.92.42,8.47,2.95,10.15,7.61,1.91,5.32-.47,9.43-4.28,12.96,1.48,4.73,3.03,9.08,4.16,13.53.87,3.42-.56,5.4-4.06,5.58-4.47.24-8.98.25-13.45-.06Z"/>
      <path d="m608.46,365.27c-.01-2.31-1.64-2.82-3.58-2.81-3.12.02-6.24.04-9.35.04-11.22.01-22.45-.12-33.67.07-7,.12-10.52,3.94-10.58,10.82-.02,2.37,0,4.74.04,7.11.13,6.52,2.73,9.08,9.16,9.03,1.48-.01,2.96-.14,4.62-.22,1.11-3.57.44-5.45-3.43-5.12-2.55.22-4.01-.93-3.87-3.7.06-1.12-.13-2.24-.16-3.36-.17-8.25.92-9.28,9.07-9.23,12.72.08,25.44.02,38.16.07,1.97,0,3.6-.34,3.59-2.7Z"/>
      <path d="m74.44,363.65c-.94.03-2.55,1.67-2.55,2.55,0,1.04,1.35,2.17,2.29,3.07.35.33,1.2.17,1.82.17,11.96-.03,23.91-.08,35.87-.1,2.36,0,4.64-.8,4.4-3.27-.1-1.04-2.87-2.51-4.48-2.59-6.09-.31-12.2-.12-18.31-.12,0,.06,0,.12,0,.18-6.35,0-12.71-.11-19.05.12Z"/>
      <path d="m47.81,162.28c.09-4.53-3.34-8.15-7.84-8.28-4.68-.14-8.38,3.43-8.42,8.11-.04,4.72,3.22,8.17,7.79,8.25,4.74.08,8.38-3.39,8.47-8.08Z"/>
      <path d="m113.69,389.71c1.29-.07,2.5-1.7,3.75-2.61-1.22-.81-2.43-2.29-3.67-2.31-10.85-.18-21.7-.18-32.55.03-1.33.03-3.63,1.48-3.75,2.47-.32,2.76,2.24,2.4,4.02,2.42,5.24.07,10.48.03,15.72.03,0,.03,0,.07,0,.1,5.49,0,10.99.17,16.47-.12Z"/>
      <path d="m625.56,183.45c4.41,0,7.89-3.66,7.82-8.21-.06-4.17-3.11-6.99-7.54-6.94-4.5.05-7.63,3.3-7.58,7.86.05,4.26,3.08,7.29,7.29,7.28Z"/>
      <path d="m34.34,394.94c.11-3.98-2.66-6.99-6.51-7.09-3.97-.1-6.88,2.68-6.93,6.64-.06,3.9,2.78,6.83,6.72,6.93,3.65.09,6.63-2.77,6.73-6.48Z"/>
      <path d="m574.78,384.24c-3.71-.2-4.72,1.42-3.4,5.45,4.02,0,8.01.22,11.95-.13,1.17-.1,2.19-1.8,3.28-2.76-1.08-.84-2.08-2.26-3.24-2.41-2.83-.36-5.73,0-8.59-.15Z"/>
      <path d="m58,363.55c.19,2.44.32,4,.53,6.7,2.73-.84,4.93-1.2,6.73-2.25.58-.34.33-3.6.05-3.67-2.25-.5-4.61-.56-7.31-.78Z"/>
      <path d="m575.18,559.43c10.18-16.16,9.77-27.28-1.12-36.59-8.77-7.49-21.34-7.41-30.12.19-10.95,9.47-11.31,20.41-1.02,36.43-11.51,5.84-18.87,15.01-22.03,27.7h76.96c-3.93-12.5-10.9-21.92-22.67-27.73Zm-15.83-6.35c-6.69.03-12.28-5.33-12.37-11.88-.08-6.29,5.49-12.11,11.7-12.21,6.57-.1,12.59,5.52,12.58,11.75-.01,6.7-5.42,12.3-11.91,12.33Z"/>
      <path d="m120.77,512.42c-4.82-7.15-11.72-10.99-20.54-12.08v-22.7c-25.95-3.59-54.7,23.7-56.73,53.46-2.26,33.18,24.19,61.43,57.75,61.03,36.78-.44,56.79-31.64,56.45-56.06h-34.85c2.69-8.43,2.83-16.36-2.08-23.64Zm-38.92,49.19c2.53-7.25,4.96-14.2,7.51-21.5-.78-.83-1.81-1.86-2.77-2.96-6.35-7.18-6.51-16.61-.41-23.01,5.97-6.27,16.72-7.01,23.58-1.63,6.97,5.46,9.14,15.62,3.51,22.71-3.64,4.59-3.14,8.09-1.19,12.66,1.84,4.31,3.11,8.85,4.78,13.72h-35.01Z"/>
      <path d="m320.22,461.42c-.86-.11-1.74-.12-2.61-.12-18.32.03-36.65.08-54.97.11-8.48.02-16.95-.1-25.43.07-4.17.09-6.72,3.73-5.78,7.77.83,3.59,3.48,4.53,6.78,4.53,13.46-.01,26.92,0,40.39,0v.06c9.1,0,18.2.01,27.3,0,4.74,0,9.48.07,14.21-.15,3.59-.17,5.83-2.7,5.82-6.03-.01-3.37-2.19-5.78-5.7-6.23Z"/>
      <path d="m354.45,516.99c-1.49-.14-2.99-.1-4.49-.1-17.97,0-35.95,0-53.92,0h0c-5.49.01-10.98.01-16.48.01-13.73,0-27.46-.05-41.19,0-4.49.02-6.89,2.18-7.07,6.01-.2,4.2,2.72,6.7,7.99,6.7,37.45,0,74.89-.01,112.34-.04,1.24,0,2.53.03,3.72-.28,3.19-.85,4.76-3.11,4.73-6.35-.03-3.14-2.46-5.65-5.63-5.94Z"/>
      <path d="m61.6,291.39c10.1.14,20.2.15,30.3.04,4.33-.05,7.43-3.01,7.28-6.45-.15-3.51-3.26-6.11-7.6-6.17-4.99-.07-9.98-.02-14.96-.02v.09c-4.99,0-9.98-.1-14.96.03-4.04.1-6.69,2.6-6.76,6.03-.08,3.73,2.46,6.39,6.7,6.45Z"/>
      <path d="m61.74,270.01c4.98.15,9.98.03,14.97.03v-.02c5.24,0,10.48.13,15.71-.04,3.91-.13,6.66-2.66,6.73-5.7.07-3.36-3.01-6.43-6.93-6.46-10.1-.07-20.21-.04-30.31.1-4.4.06-6.91,2.49-6.91,6.21,0,3.53,2.37,5.75,6.75,5.88Z"/>
      <path d="m506.71,487.56c-1-.06-2.87,2.05-2.98,3.31-.09,1,1.91,2.18,3.63,3.95,1.5-1.94,3.47-3.65,3.17-4.28-.66-1.37-2.42-2.9-3.82-2.98Z"/>
      <path d="m597.46,490.57c-.08-1.1-2.23-3.02-3.15-2.84-1.42.27-2.56,2.01-3.82,3.12,1.09,1.13,2.17,2.26,3.89,4.05,1.45-1.9,3.17-3.18,3.08-4.33Z"/>
      <path d="m530.11,487.59c-1.35.21-2.86,1.95-3.45,3.38-.25.59,1.71,2.09,3.28,3.89,1.58-1.82,3.53-3.14,3.36-4.09-.23-1.29-2.23-3.33-3.19-3.18Z"/>
    </g>
  </g>
</svg>