<?xml version="1.0" encoding="UTF-8"?>
<svg id="Layer_2" data-name="Layer 2" xmlns="http://www.w3.org/2000/svg" xmlns:xlink="http://www.w3.org/1999/xlink" viewBox="0 0 391.72 375.79">
  <defs>
    <linearGradient id="linear-gradient" x1="-63.47" y1="62.89" x2="397.44" y2="365.06" gradientUnits="userSpaceOnUse">
      <stop offset="0" stop-color="#0064e9"/>
      <stop offset="1" stop-color="#c700d4"/>
    </linearGradient>
    <linearGradient id="linear-gradient-2" x1="-32.47" y1="15.6" x2="428.45" y2="317.77" xlink:href="#linear-gradient"/>
    <linearGradient id="linear-gradient-3" x1="37.24" y1="-90.73" x2="498.15" y2="211.44" xlink:href="#linear-gradient"/>
    <linearGradient id="linear-gradient-4" x1="58.69" y1="-123.45" x2="519.6" y2="178.72" xlink:href="#linear-gradient"/>
    <linearGradient id="linear-gradient-5" x1="15.59" y1="-57.7" x2="476.5" y2="244.47" xlink:href="#linear-gradient"/>
    <linearGradient id="linear-gradient-6" x1="-14.13" y1="-12.37" x2="446.78" y2="289.8" xlink:href="#linear-gradient"/>
    <linearGradient id="linear-gradient-7" x1="-98.49" y1="116.3" x2="362.43" y2="418.47" xlink:href="#linear-gradient"/>
    <linearGradient id="linear-gradient-8" x1="-52.6" y1="46.31" x2="408.31" y2="348.48" xlink:href="#linear-gradient"/>
    <linearGradient id="linear-gradient-9" x1="-103.65" y1="124.17" x2="357.27" y2="426.34" xlink:href="#linear-gradient"/>
    <linearGradient id="linear-gradient-10" x1="48.2" y1="-107.45" x2="509.11" y2="194.73" xlink:href="#linear-gradient"/>
    <linearGradient id="linear-gradient-11" x1="-117.95" y1="145.98" x2="342.97" y2="448.15" xlink:href="#linear-gradient"/>
    <linearGradient id="linear-gradient-12" x1="-17.84" y1="-6.71" x2="443.07" y2="295.46" xlink:href="#linear-gradient"/>
    <linearGradient id="linear-gradient-13" x1="-104.4" y1="125.32" x2="356.52" y2="427.49" xlink:href="#linear-gradient"/>
    <linearGradient id="linear-gradient-14" x1="-68.85" y1="71.09" x2="392.06" y2="373.26" xlink:href="#linear-gradient"/>
    <linearGradient id="linear-gradient-15" x1="-144.65" y1="186.7" x2="316.27" y2="488.88" xlink:href="#linear-gradient"/>
    <linearGradient id="linear-gradient-16" x1="-93.07" y1="108.04" x2="367.84" y2="410.21" xlink:href="#linear-gradient"/>
    <linearGradient id="linear-gradient-17" x1="-105.12" y1="126.42" x2="355.79" y2="428.59" xlink:href="#linear-gradient"/>
    <linearGradient id="linear-gradient-18" x1="-79.4" y1="87.18" x2="381.51" y2="389.36" xlink:href="#linear-gradient"/>
    <linearGradient id="linear-gradient-19" x1="-73.64" y1="78.4" x2="387.27" y2="380.57" xlink:href="#linear-gradient"/>
    <linearGradient id="linear-gradient-20" x1="-58.68" y1="55.57" x2="402.24" y2="357.74" xlink:href="#linear-gradient"/>
    <linearGradient id="linear-gradient-21" x1="-43.15" y1="31.9" x2="417.76" y2="334.07" xlink:href="#linear-gradient"/>
    <linearGradient id="linear-gradient-22" x1="-54.6" y1="49.36" x2="406.31" y2="351.53" xlink:href="#linear-gradient"/>
  </defs>
  <g id="Layer_1-2" data-name="Layer 1">
    <g>
      <path d="m389.32,195.57c-1.89-.27-3.84-.06-5.76-.06-2.56,0-5.12,0-7.76,0,.31-3.97.8-7.58.81-11.19,0-2.31.75-2.94,2.92-2.8,2.66.17,5.33.05,8,.09,1.5.02,2.82-.4,2.81-2.09-.01-1.72-1.42-2.04-2.87-2.01-.96.02-1.92.07-2.89.07-2.56.01-5.12,0-7.92,0,0-5.63.03-10.95,0-16.28-.04-5.11-.02-10.22-.3-15.32-.18-3.22-1.64-5.92-4.42-7.85-.69-.48-1.16-1.49-1.41-2.35-3.04-10.86-6.93-21.4-12.06-31.46-.45-.87-1.07-1.66-1.6-2.47-1.46,1.04-2.65,1.89-3.94,2.8,2.05,4.9,4.08,9.75,6.15,14.68-11.13,0-21.78,0-32.44.01-1.03,0-2.1,0-3.07.29-.49.15-1.09.94-1.08,1.43,0,.47.65,1.14,1.17,1.35.65.26,1.45.19,2.19.19,5.26.02,10.52.04,15.77.02,5.11-.02,10.26.3,15.31-.26,2.72-.3,3.53.64,4.19,2.71.99,3.1,1.97,6.21,3.06,9.27.27.76.82,1.74,1.48,1.99,5.35,2.03,6.94,6.31,7.02,11.47.08,5.03,0,10.07-.01,15.11-.01,3.33,0,6.67-.08,10-.09,3.53-1.37,6.49-4.41,8.52-.27.18-.46.49-.96,1.03,1.47-.14,2.53-.23,4.17-.39-.4,3.88-.85,7.38-1.1,10.9-.15,2.11-1.09,2.64-3.11,2.62-12.37-.1-24.73-.08-37.1-.09-.74,0-1.6-.17-2.19.14-.7.37-1.57,1.15-1.61,1.79-.04.59.82,1.5,1.49,1.81.75.35,1.74.21,2.62.22,11.92.06,23.85.11,35.77.17.99,0,1.99.14,3.14.22-.39,2.23-.6,4.22-1.09,6.14-.9,3.49-2.06,6.9-2.93,10.4-.76,3.04-1.01,6.22-1.91,9.21-5.38,17.94-13.47,34.58-24.19,49.95-.93,1.33-1.91,1.98-3.62,1.96-6.52-.09-13.03,0-19.55,0-2.71,0-5.43,0-8.47,0,0-1.98,0-3.53,0-5.07.05-23.1.11-46.2.13-69.3.03-20.88.03-41.76.02-62.63,0-10.88-.05-21.76-.12-32.64,0-.72-.22-1.85-.68-2.07-2.35-1.15-4.82-2.07-7.4-3.12,0,.53,0,.89,0,1.25,0,22.29-.01,44.57,0,66.86,0,12.44.08,24.88-.02,37.31-.02,2.29-.28,4.75-1.14,6.83-2.03,4.92-4.58,9.62-6.77,14.48-7.17,15.92-19.42,23.91-36.9,23.85-10.29-.03-20.59-.04-30.88-.04-27.55,0-55.1.1-82.65,0-15.27-.05-26.7-6.81-33.82-20.43-3.36-6.42-6.55-12.94-9.61-19.51-.88-1.88-1.46-4.09-1.48-6.15-.12-14.84-.08-29.67-.05-44.51.04-17.66.11-35.33.17-52.99,0-3.2,0-6.4,0-9.99-1,.69-1.54,1.07-2.08,1.44-2.16,1.49-5.2,2.53-6.25,4.59-1.07,2.1-.17,5.2-.17,7.87,0,52.13,0,104.27,0,156.4v3.64c-7.52-4.21-14.98-7.07-23.01-8.16-.37-4.73-2.01-6.68-5.33-6.51-3.26.17-4.77,2.17-4.79,6.58-.75.11-1.59.09-2.31.37-2.08.78-3.11-.18-4.21-1.87-6.9-10.61-12.27-21.96-16.33-33.93-1.2-3.55-2.22-7.15-3.37-10.89,1.15-.13,1.94-.21,2.68-.29.63-2.96.61-2.94-2.1-3.21-.54-.05-1.41-.46-1.51-.86-1.13-4.65-2.13-9.33-3.25-14.39,1.25,0,1.97,0,2.68,0,12.29.11,24.58.23,36.87.33,8.13.06,12.2-3.98,12.2-12.07,0-13.11-.02-26.22-.03-39.32,0-7.61-4.03-11.58-11.68-11.56-7.92.02-15.85.03-23.77.04-4.2,0-8.41,0-13.18,0,1.71-5.12,3.27-9.87,4.92-14.59.14-.39.89-.8,1.36-.8,8.29.02,16.58.11,24.87.19,1.4.01,3.29.26,3.31-1.63.02-1.84-1.94-1.48-3.17-1.49-6.14-.07-12.29-.03-18.43-.03-2.04,0-4.07,0-6.15,0,.68-4.49,7.78-18.75,11.16-22.5,5.48,3.7,11.78,5.14,18.28,5.93,0,2.75,0,5.26,0,7.77,0,2.74,1.17,4.38,3.04,4.31,1.86-.07,2.82-1.55,2.81-4.25-.01-2.56,0-5.11,0-7.77.89-.13,1.61-.27,2.33-.33,19.61-1.81,34.24-18.61,37.1-35.27.75-4.36.67-4.38,5.02-4.39,1.95,0,3.39-1.18,3.32-2.8-.08-1.99-1.42-2.61-3.16-2.67-1.39-.04-2.78,0-4,0-3.32-24.18-16.3-38.82-40.7-42.86,0-2.65-.04-5.38.01-8.11.04-1.99-.85-3.11-2.81-3.26-1.71-.13-2.74,1.05-2.81,3.22-.07,2-.19,4.01,0,5.99.2,2.12-.63,2.8-2.66,3-8.7.86-16.23,4.53-22.69,10.26-8.92,7.91-14,17.85-14.87,29.81-.11,1.52-.61,2.11-2.14,2-1.25-.09-2.52-.03-3.77.07-1.51.12-2.54.92-2.56,2.52-.02,1.64,1.1,2.38,2.56,2.53,1.24.13,2.53.16,3.77.02,1.49-.16,2.08.32,2.26,1.86.68,5.88,2.58,11.38,5.59,16.49,2.88,4.89,6.53,9.11,11.03,12.7-1.35,2.2-2.68,4.23-3.87,6.35-6.38,11.37-10.76,23.53-14.25,36.04-.28,1-.78,2.2-1.56,2.74-3.8,2.6-5.26,6.17-5.22,10.64.08,8.44-.05,16.89.1,25.33.04,2.21-.68,2.84-2.76,2.72-2.36-.14-4.76-.2-7.1.07-.8.09-1.49,1.26-2.22,1.94.73.67,1.36,1.53,2.21,1.94.66.32,1.6.07,2.41.07,2.41,0,4.82,0,7.29,0,.55,4.81-.81,9.46,1.92,13.75H4.98c.12-.23.24-.45.35-.68-.9-.57-1.81-1.62-2.7-1.61-1.82.02-1.48,1.71-1.43,2.91.09,2.48,1.66,3.95,4.38,4,3.63.07,7.26.11,10.89,0,1.71-.05,2.37.39,2.66,2.24,3.52,22.34,10.67,43.37,22.94,62.5.62.96,1.19,1.95,1.92,3.15-21.31,7.41-33.42,22.13-36.61,44.01-5.1.49-7.56,2.68-7.37,6.41.19,3.68,2.72,5.55,7.58,5.55,4.69,26.45,20.22,41.77,46.95,45.26.26,4.34,1.88,6.46,4.95,6.68,2.95.21,4.56-1.77,5.61-6.99,11.88-1.08,21.82-6.62,30.82-14.19,4.16,9.06,10.88,13.37,20.62,13.32,21.3-.12,42.6-.03,63.91-.03,32.11,0,64.22,0,96.33.02,5.26,0,10.4-.44,14.74-3.8,1.42-1.1,2.47-1.71,4.28-.65,1.19.7,2.85.82,4.3.82,20.22.08,40.44.09,60.65.1.88,0,1.78-.1,2.65-.26,9.34-1.68,15.35-8.98,15.4-18.92.07-16.14.05-32.29.06-48.44,0-11.78-7.46-19.27-19.3-19.34-4.22-.02-8.44.08-12.66.1-.55,0-1.1-.08-1.94-.15.55-.87.95-1.47,1.33-2.09,2.73-4.49,5.63-8.88,8.15-13.48,10.16-18.55,16.75-38.34,20.12-59.2.37-2.32,1.21-3.02,3.51-2.88,3.25.2,6.51.04,9.77.01.59,0,1.34.14,1.73-.16.81-.62,1.43-1.48,2.13-2.25-.8-.63-1.54-1.67-2.41-1.79ZM69.33,97.26c0-1.52-.31-3.13.11-4.52.26-.87,1.53-1.66,2.52-2.05,6.02-2.39,11.16-6.02,15.54-10.73,4.05-4.36,6.8-9.46,8-15.33.12-.57.3-1.13.46-1.73h7.77c-.59,15.71-15.85,34.19-34.42,34.36Zm.12-76.42c15.56-1.45,36.87,21.26,34.3,36.65h-7.73c0-3.49.02-6.87,0-10.24-.02-2.43.68-5.37-.43-7.14-1.04-1.66-4.1-1.98-6.16-3.1-5.71-3.1-11.32-6.39-17.05-9.46-2.78-1.49-3.7-3.59-2.93-6.71Zm-2.91,20.6c.84.69,1.62,1.33,2.41,1.96,3.58,2.85,7.53,4.99,11.97,6.13,1.21.31,1.65.76,1.67,2.07.18,11.37-5.14,19.63-14.44,25.62-.57.37-1.67.6-2.18.3-9.13-5.39-16.29-14.17-14.76-27.68,5.8-1.3,10.8-4.19,15.34-8.4Zm-37.5,16.16c.37-21.47,19.37-36.41,34.58-36.89.55,2.76.26,4.85-2.53,6.72-6.86,4.61-14.04,8.51-21.69,11.55-1.46.58-2.01,1.28-1.97,2.91.12,4.59-.02,9.18.03,13.77.02,1.41-.41,2.03-1.88,1.97-2.13-.08-4.26-.02-6.53-.02Zm.21,5.13c2.56,0,5.12-.12,7.65.1.51.05,1.13,1.38,1.31,2.2,1.2,5.49,3.94,10.13,7.56,14.34,4.23,4.92,9.38,8.58,15.42,10.86,2.07.78,2.97,1.85,2.66,4.03-.13.93-.02,1.89-.02,2.83-16.61-.59-33.48-15.86-34.59-34.36Zm33.13,123.92c-.9.28-1.9.27-2.84.39-1.65-.21-3.6-.35-3.77-2.29-.05-.56,2.14-1.65,3.43-1.89,1.2-.23,2.62.15,3.8.62.56.22,1.06,1.31,1.03,1.98-.02.43-1,.99-1.64,1.19Zm-40.84.08c-.05-11.84-.03-23.68.02-35.52.02-4.44,2.03-6.64,6.48-6.69,11.84-.12,23.68-.12,35.52-.03,4.15.03,6.39,2.5,6.4,6.6.02,11.76,0,23.51-.18,35.29-.04-.42-.11-.85-.12-1.27-.14-8.34-8.8-10.86-14.33-8.46-1.62.71-3.49,1.09-5.27,1.16-4.14.17-8.29.06-12.43.09-.74,0-1.5.01-2.2.19-1.88.48-2.97,1.74-2.85,3.69.12,1.95,1.31,3.19,3.26,3.29,2.73.15,5.47.07,8.21.08,1.62,0,3.24,0,4.95,0,.32,3.1.6,5.87.9,8.81-.66.03-1.37.1-2.09.09-6.36-.04-12.73-.07-19.09-.15-5.03-.06-7.17-2.14-7.19-7.18ZM3.75,320.14c-1.08-1.35-1.13-2.88-.17-4.3.82-1.21,2.02-1.49,3.49-.95-.72,1.05-1.82,1.94-1.79,2.8.03.9,1.13,1.77,1.95,2.92-1.25.55-2.48.79-3.48-.47Zm54.37-56.9c.15-.58.95-1.38,1.46-1.38.57,0,1.14.8,1.71,1.26-.45.51-.91,1.02-1.36,1.53-.4.19-.8.39-1.2.58-.23-.67-.76-1.4-.61-1.98Zm1.65,109.44c-.68-.15-1.41-.87-1.75-1.54-.2-.41.3-1.16.53-1.93,1.57,1.14,2.15,1.56,2.73,1.98-.51.53-1.13,1.57-1.51,1.49Zm35.57-19.71c-2.63-2.33-5.15-4.55-7.78-6.88-7.09,6.79-15.56,10.27-25.43,11.2,0,2.63-.04,5.19.02,7.76.03,1.35-.33,2.09-1.86,2.01-1.37-.07-2.79.1-2.8-1.9,0-2.51,0-5.02,0-7.78-6.59-.79-12.8-2.24-18.46-6.03-2.07,2.73-4.01,5.31-6.09,8.06-4.9-2.79-9.05-6.55-12.79-11.15,2.59-2.37,5.02-4.6,7.56-6.92-3.38-4.72-5.97-9.75-7.15-15.42-.2-.94-.4-1.88-.55-2.83q-.54-3.28-3.98-3.29c-1.11,0-2.33.21-3.3-.18-1.02-.41-1.79-1.44-2.67-2.19.84-.81,1.59-2.18,2.54-2.32,2.23-.35,4.54-.11,7.01-.11.67-8.13,3.1-15.3,8.08-21.67-2.53-2.42-4.92-4.7-7.53-7.2,1.42-1.1,2.58-1.99,3.89-3,2.02,1.86,4.34,4.01,6.7,6.19,7.27-7.5,16.23-11.28,26.7-12.43,0-2.49.02-4.85,0-7.21-.02-1.74,1.07-2.02,2.49-2.07,1.52-.05,2.17.64,2.16,2.11-.02,2.28,0,4.57,0,7.06,10.43,1.14,19.34,5.03,26.59,12.76,2.53-2.23,4.99-4.4,7.67-6.76,1.02,1.13,1.94,2.14,2.98,3.29-2.51,2.47-4.95,4.87-7.44,7.33,4.95,6.37,6.95,13.58,8.02,21.41,2.04,0,3.98-.23,5.84.08,1.16.19,2.41,1.02,3.15,1.94.31.39-.82,1.74-.92,2.69-.08.84.3,1.75.59,2.58.22.61.96,1.2.89,1.73-1.36,11.23-5.82,20.97-14.1,29.13Zm17.69-31.05c-.56-.09-1.02-.81-1.52-1.24.47-.39.91-1.06,1.42-1.12,1.13-.13,2.09-.25,2.18-1.64.1-1.44-.65-1.92-2.02-1.98-.44-.02-.85-.77-1.27-1.19.48-.33.94-.9,1.46-.95,2.23-.25,4.29,1.81,4.26,4.12-.04,2.55-2.06,4.42-4.51,4.01Zm151.77,14.08c-.52.37-1.43.22-2.17.22-43.76.04-87.52.07-131.28.05-1.03,0-2.25-.34-3.06-.95-1.96-1.49-1.38-4.1.98-4.8.83-.25,1.75-.27,2.63-.27,21.77-.01,43.54-.01,65.31-.01v.02c21.55,0,43.1,0,64.64.01,1.1,0,2.41-.14,3.25.38.93.58,1.97,1.87,1.94,2.82-.03.88-1.31,1.86-2.24,2.52Zm1.79-19.71c-2.41,4.53-6.62,5.89-11.38,5.91-14.36.06-28.72.05-43.08.06-5.18,0-10.36,0-15.54,0v.02c-18.87,0-37.75,0-56.62-.01-1.69,0-3.44.02-5.07-.34-5.84-1.29-9.36-6.48-8.87-12.82.44-5.68,4.97-10.25,10.75-10.54,4.43-.22,8.88-.1,13.32-.11,28.71-.06,57.41-.13,86.12-.15,6.8,0,13.62-.04,20.41.26,9.1.41,14.25,9.68,9.97,17.71Zm-.82-31.65c-2.06,3.07-5.22,4.28-8.72,4.62-2.13.2-4.29.11-6.43.12-37.01,0-74.01,0-111.02.02-3.92,0-7.53-.71-10.31-3.71-3.45-3.73-4.23-8.1-2.4-12.76,1.84-4.69,5.62-7.08,10.54-7.16,10.21-.17,20.43-.07,30.64-.08,9.55,0,19.1,0,28.64,0,19.61,0,39.22,0,58.83,0,4.93,0,8.83,1.99,11.15,6.36,2.28,4.29,1.75,8.6-.92,12.61Zm105.57,55.5c0,2.07.08,4.15,0,6.22-.22,6.33-4.79,10.86-11.1,10.87-19.77.03-39.55.05-59.32-.01-8.75-.03-13.83-5.16-13.83-13.84,0-13.63.06-27.25.09-40.88,0-.87,0-1.73,0-2.79h84.15c0,13.66,0,27.05,0,40.44Zm-14.1-55.71c1.7,0,3.41.11,5.08.34,4.96.68,8.7,4.92,8.97,10.42h-83.98c.21-3.27,1.78-5.76,4.08-7.82,2.28-2.05,5.04-3.06,8.13-3.06,7.18,0,14.35,0,21.53.02,12.06.03,24.12.05,36.18.11Z" fill="url(#linear-gradient)"/>
      <path d="m249.78,223.99c-7.41,7.71-14.57,15.15-22.16,23.03,11.04,0,21.42.47,31.74-.14,9.46-.56,17.44-5.01,22.66-13.09,5.66-8.75,5.7-6.5,1.52-15.96-.15-.34-.29-.68-.46-1.01-10.1-19.2-26.12-31.58-45.73-39.89-1.03-.44-2.14-1.41-2.58-2.41-2.06-4.67-3.85-9.46-5.84-14.16-.61-1.44-.58-2.56.36-3.86,4.17-5.8,6.68-12.35,8.24-19.26.4-1.78,1.04-2.67,2.85-3.3,4.69-1.64,7.74-5.03,8.27-10.06.53-5.04-1.2-9.14-5.99-11.63-.59-.31-.97-1.54-.98-2.34-.07-7.85-.02-15.7-.04-23.55-.02-7.32-2.69-11.26-9.51-13.86-1.22-.47-1.71-1.08-1.85-2.32-.51-4.36-2.78-7.71-6.16-10.41-3.42-2.74-7.3-4.47-11.52-5.52-8.19-2.05-16.46-1.56-24.73-.7-10.04,1.04-20.08,1.79-30.08-.22-2.2-.44-4.36-1.1-6.78-1.72.03,7.16.92,13.87,4.12,20.05,1.32,2.56,2.35,4.92,1.15,7.86-.48,1.17-.35,2.63-.35,3.95-.03,8.22-.07,16.44,0,24.66.02,2.33-.04,4.4-2.74,5.26-.52.17-.93.72-1.34,1.14-6.05,6.37-3.31,16.77,5.26,19.53,1.82.59,2.52,1.44,2.89,3.24,1.47,7.19,4.24,13.84,8.43,19.91.41.59.56,1.69.3,2.36-2,5.25-4.1,10.47-6.26,15.67-.27.66-.96,1.37-1.62,1.61-10.75,3.88-20.08,10.07-28.64,17.49-9.29,8.05-16.15,17.84-20.64,29.29-.7,1.79-.61,3.36.29,5.08,6.27,11.99,16.11,18.24,29.64,18.44,8.81.13,17.62.04,26.44.04.48,0,.97-.08,2-.18-7.55-7.83-14.79-15.34-22.25-23.08,5.04-4.13,9.63-7.88,14.26-11.67q2.24,3.45-.33,5.64c-2.39,2.05-4.76,4.14-7.29,6.35,7.33,7.6,14.46,15.02,21.65,22.37.42.43,1.34.53,2.03.54,13.85.03,27.7.05,41.54-.03.95,0,2.11-.59,2.8-1.28,4.14-4.13,8.17-8.37,12.22-12.58,2.81-2.93,5.59-5.88,8.57-9.02-2.58-2.28-5.02-4.41-7.44-6.56q-2.6-2.32-.08-5.37c4.64,3.84,9.28,7.68,14.16,11.71Zm-74.29-19.66c-2.33-7.32-4.63-14.64-6.99-21.95-.55-1.69-.54-3.17.3-4.84,1.76-3.49,3.25-7.12,4.87-10.69.3-.65.65-1.28.79-1.56,5.86,4.35,11.64,8.63,17.77,13.18-5.1,8.83-10.44,18.06-15.97,27.63-.35-.8-.6-1.27-.76-1.77Zm18.3-3.95c-3.13,9.77-6.29,19.53-9.45,29.29-.28.88-.57,1.76-1.38,2.67-1.76-6.15-3.55-12.29-5.24-18.46-.17-.6.1-1.5.47-2.05,4.08-5.97,8.23-11.89,12.55-18.11,1.1,2.11,2.03,3.87,2.91,5.65.14.29.22.72.12,1.01Zm-12.52-41.89c-7.33-6.52-11.33-14.85-13.52-24.19-1.42-6.04-2.63-12.12-3.99-18.4,4.03-1.44,4.81-4.24,5.06-7.96.38-5.57,1.59-11.08,2.5-16.61.11-.7.49-1.36.74-2.02,3.68,1.16,7.14,2.54,10.72,3.31,11.04,2.38,22.04,2.47,32.79-1.57,1.11-.42,2.17-.95,3.23-1.46,3.61-1.76,7.08-.37,7.85,3.67.99,5.14,1.62,10.36,2.02,15.58.22,2.85,1.07,4.94,3.53,6.45.66.4,1.45,1.51,1.32,2.13-1.86,9.12-3.36,18.35-7.04,26.99-2.69,6.31-6.69,11.66-12.16,15.83-10.38,7.9-23.03,7.16-33.06-1.75Zm38.55,55.85c-1.62,5.84-3.37,11.64-5.1,17.45-.06.2-.25.35-.57.79-.81-2.73-1.55-5.25-2.32-7.77-2.09-6.78-3.76-13.73-6.45-20.27-1.68-4.1-1.45-7.19,1.53-10.39.36.41.88.89,1.27,1.46,3.74,5.42,7.49,10.83,11.15,16.3.43.65.7,1.72.5,2.44Zm9.3-32.83c-2.27,7.51-4.67,14.97-7.06,22.45-.19.6-.52,1.15-.91,1.97-5.48-9.45-10.81-18.63-15.96-27.5,6.12-4.45,11.95-8.7,17.98-13.09.26.52.78,1.45,1.2,2.42,1.52,3.45,3.09,6.89,4.47,10.4.4,1.01.57,2.34.27,3.35Z" fill="url(#linear-gradient-2)"/>
      <path d="m97.24,18.27c4.44,3.06,8.08,6.89,10.82,11.58.32.55,1.22,1.09,1.86,1.09,16.48.05,32.96.01,49.44,0,24.45,0,48.9,0,73.35,0,18.33,0,36.66.02,55,.03,4.72,0,9.45,0,14.48,0,0-4.89.25-9.19-.09-13.44-.2-2.51-.92-5.16-2.11-7.37C296.34,3.39,290.48,0,282.76,0c-32.06,0-64.11.02-96.17.03-23.91,0-47.83-.04-71.74.03-9.25.03-16.77,6.2-18.74,15.03-.3,1.37-.16,2.3,1.12,3.18Zm71.16-7.91c1.01-.38,2.17-.54,3.26-.54,17.85-.05,35.69-.07,53.54-.08.88,0,1.79.06,2.64.26,3.08.71,5.11,3.42,4.79,6.3-.33,2.98-2.49,4.89-5.84,4.94-4.89.07-9.77,0-14.66,0-4.44,0-8.89,0-13.33,0-9.03,0-18.07.05-27.1-.06-1.62-.02-3.54-.36-4.79-1.28-3.49-2.54-2.55-8.01,1.5-9.54Zm-21.54,1.29c2.5-.02,4.57,2,4.56,4.45-.01,2.57-1.94,4.64-4.35,4.67-2.43.03-4.57-2.19-4.57-4.74,0-2.39,1.97-4.36,4.36-4.38Zm-16.69.02c2.53-.02,4.52,1.89,4.59,4.39.07,2.58-1.98,4.69-4.56,4.67-2.26-.02-4.15-2.09-4.18-4.56-.02-2.56,1.75-4.49,4.14-4.51Zm-16.55,0c2.38-.07,4.54,2.01,4.59,4.41.05,2.55-1.83,4.54-4.35,4.59-2.26.04-4.48-2.18-4.54-4.54-.06-2.32,1.94-4.39,4.29-4.46Z" fill="url(#linear-gradient-3)"/>
      <path d="m297.23,51.8c0,9.84-.03,19.69-.02,29.53,0,9.51,5.76,15.43,15.26,15.58,5.84.1,11.69.02,17.53.02,0,0,0-.01,0-.02,6.29,0,12.58.16,18.86-.04,8.43-.27,14.38-6.57,14.4-14.95.02-10.36-.03-20.73-.03-31.09,0-5.38-1.81-9.95-6.36-12.97-1.88-1.24-2.39-2.57-2.36-4.67.06-4.21.44-8.55-.39-12.61-2.66-12.92-16.36-20.78-29.61-17.68-10.1,2.36-18.71,12.22-18.03,23.1.18,2.95.08,5.92-.05,8.88-.03.73-.52,1.75-1.12,2.1-5.7,3.32-8.08,8.39-8.08,14.8Zm36.91,15.37c.7,2.1,1.25,4.26,1.77,6.42.87,3.65-.2,4.99-3.91,5.06-.59.01-1.18,0-1.78,0-5.99-.05-6.65-.98-4.87-6.76.28-.92.5-1.86.79-2.77.82-2.61,1.46-4.73-1.49-7.02-3.39-2.62-2.78-7.62.47-10.55,3.33-3.01,8.34-2.64,11.28.82,2.77,3.26,2.5,8.13-.97,10.63-1.77,1.27-1.89,2.39-1.29,4.17Zm-13.07-52.4c4.87-3.65,10.2-4.37,15.67-1.77,5.55,2.64,8.84,7.04,8.84,13.46,0,2.5,0,5,0,7.82h-29.97c-.19-7.15-1.34-14.41,5.46-19.51Z" fill="url(#linear-gradient-4)"/>
      <path d="m360.74,182.94c4.99-.09,9.24-3.96,9.34-8.89.19-9.39.2-18.8.04-28.19-.08-4.97-4.71-9.48-9.68-9.59-8.42-.19-16.85-.29-25.27-.18-6.28.08-10.37,4.21-10.5,10.55-.17,8.73-.2,17.46-.07,26.19.09,6.42,3.76,9.94,10.18,10.08,4.29.09,8.58.02,12.88.02v.02c4.37,0,8.73.07,13.1-.02Zm-17-12.44c-2.04-.14-2.87-1.43-2.33-3.4.56-2.06,1.22-4.11,2.04-6.09.52-1.25.45-2.08-.54-3.1-1.99-2.04-2.48-4.5-1.23-7.14,1.18-2.5,3.78-4,6.5-3.77,2.92.25,5.03,1.75,6.02,4.51,1.13,3.15-.28,5.59-2.54,7.69.88,2.81,1.8,5.38,2.47,8.03.52,2.03-.33,3.2-2.41,3.31-2.65.14-5.33.15-7.98-.04Z" fill="url(#linear-gradient-5)"/>
      <path d="m360.87,216.64c0-1.37-.97-1.67-2.13-1.67-1.85.01-3.7.02-5.55.02-6.66,0-13.31-.07-19.97.04-4.15.07-6.24,2.34-6.27,6.42-.01,1.41,0,2.81.03,4.22.08,3.87,1.62,5.39,5.43,5.36.88,0,1.76-.08,2.74-.13.66-2.12.26-3.23-2.04-3.04-1.51.13-2.38-.55-2.3-2.2.03-.66-.08-1.33-.09-1.99-.1-4.89.55-5.5,5.38-5.47,7.54.04,15.09.01,22.64.04,1.17,0,2.13-.2,2.13-1.6Z" fill="url(#linear-gradient-6)"/>
      <path d="m44.15,215.68c-.56.02-1.51.99-1.51,1.51,0,.62.8,1.28,1.36,1.82.2.2.71.1,1.08.1,7.09-.02,14.18-.05,21.28-.06,1.4,0,2.75-.48,2.61-1.94-.06-.62-1.7-1.49-2.66-1.54-3.61-.18-7.24-.07-10.86-.07,0,.03,0,.07,0,.1-3.77,0-7.54-.06-11.3.07Z" fill="url(#linear-gradient-7)"/>
      <path d="m28.35,96.25c.05-2.69-1.98-4.83-4.65-4.91-2.77-.08-4.97,2.03-5,4.81-.03,2.8,1.91,4.84,4.62,4.89,2.81.05,4.97-2.01,5.02-4.79Z" fill="url(#linear-gradient-8)"/>
      <path d="m67.43,231.14c.77-.04,1.49-1.01,2.23-1.55-.72-.48-1.44-1.36-2.17-1.37-6.43-.1-12.87-.11-19.3.02-.79.02-2.15.87-2.22,1.46-.19,1.64,1.33,1.42,2.38,1.44,3.11.04,6.22.02,9.33.02,0,.02,0,.04,0,.06,3.26,0,6.52.1,9.77-.07Z" fill="url(#linear-gradient-9)"/>
      <path d="m371.02,108.81c2.61,0,4.68-2.17,4.64-4.87-.03-2.48-1.85-4.14-4.47-4.12-2.67.03-4.52,1.96-4.49,4.66.03,2.53,1.83,4.32,4.33,4.32Z" fill="url(#linear-gradient-10)"/>
      <path d="m20.37,234.24c.06-2.36-1.58-4.15-3.86-4.2-2.36-.06-4.08,1.59-4.11,3.94-.03,2.31,1.65,4.05,3.98,4.11,2.17.06,3.93-1.65,3.99-3.84Z" fill="url(#linear-gradient-11)"/>
      <path d="m340.9,227.89c-2.2-.12-2.8.85-2.02,3.23,2.39,0,4.75.13,7.09-.08.69-.06,1.3-1.07,1.95-1.64-.64-.5-1.23-1.34-1.92-1.43-1.68-.21-3.4,0-5.1-.09Z" fill="url(#linear-gradient-12)"/>
      <path d="m34.4,215.62c.11,1.45.19,2.37.31,3.97,1.62-.5,2.92-.71,3.99-1.34.34-.2.2-2.14.03-2.17-1.34-.3-2.73-.33-4.33-.46Z" fill="url(#linear-gradient-13)"/>
      <path d="m341.14,331.8c6.04-9.58,5.79-16.18-.66-21.7-5.2-4.44-12.65-4.4-17.87.11-6.49,5.62-6.71,12.11-.61,21.6-6.82,3.46-11.19,8.9-13.06,16.43h45.65c-2.33-7.41-6.46-13-13.45-16.45Zm-9.39-3.76c-3.97.02-7.28-3.16-7.33-7.04-.05-3.73,3.26-7.18,6.94-7.24,3.9-.06,7.47,3.27,7.46,6.97,0,3.97-3.21,7.3-7.06,7.32Z" fill="url(#linear-gradient-14)"/>
      <path d="m71.63,303.92c-2.86-4.24-6.95-6.52-12.18-7.17v-13.47c-15.39-2.13-32.44,14.06-33.64,31.71-1.34,19.68,14.34,36.43,34.25,36.2,21.82-.26,33.68-18.76,33.48-33.25h-20.67c1.6-5,1.68-9.7-1.23-14.02Zm-23.08,29.17c1.5-4.3,2.94-8.42,4.46-12.75-.46-.49-1.07-1.1-1.65-1.75-3.77-4.26-3.86-9.85-.24-13.65,3.54-3.72,9.92-4.16,13.99-.97,4.13,3.24,5.42,9.26,2.08,13.47-2.16,2.72-1.86,4.8-.71,7.51,1.09,2.55,1.85,5.25,2.84,8.14h-20.76Z" fill="url(#linear-gradient-15)"/>
      <path d="m189.92,273.67c-.51-.07-1.03-.07-1.55-.07-10.87.02-21.74.04-32.6.06-5.03,0-10.05-.06-15.08.04-2.47.05-3.98,2.21-3.43,4.61.49,2.13,2.07,2.69,4.02,2.69,7.98,0,15.97,0,23.95,0v.04c5.4,0,10.79,0,16.19,0,2.81,0,5.62.04,8.43-.09,2.13-.1,3.46-1.6,3.45-3.58,0-2-1.3-3.43-3.38-3.7Z" fill="url(#linear-gradient-16)"/>
      <path d="m210.22,306.63c-.88-.08-1.78-.06-2.66-.06-10.66,0-21.32,0-31.98,0h0c-3.26,0-6.51,0-9.77,0-8.14,0-16.29-.03-24.43,0-2.66,0-4.09,1.29-4.2,3.56-.12,2.49,1.61,3.97,4.74,3.97,22.21,0,44.42,0,66.63-.02.74,0,1.5.02,2.2-.17,1.89-.5,2.82-1.85,2.81-3.76-.02-1.86-1.46-3.35-3.34-3.53Z" fill="url(#linear-gradient-17)"/>
      <path d="m36.54,172.82c5.99.08,11.98.09,17.97.02,2.57-.03,4.41-1.79,4.32-3.83-.09-2.08-1.93-3.62-4.5-3.66-2.96-.04-5.92,0-8.88,0v.05c-2.96,0-5.92-.06-8.88.02-2.4.06-3.97,1.54-4.01,3.58-.05,2.21,1.46,3.79,3.98,3.82Z" fill="url(#linear-gradient-18)"/>
      <path d="m36.61,160.15c2.96.09,5.92.02,8.88.02h0c3.11-.01,6.22.07,9.32-.04,2.32-.08,3.95-1.58,3.99-3.38.04-1.99-1.79-3.81-4.11-3.83-5.99-.04-11.98-.02-17.98.06-2.61.04-4.1,1.48-4.1,3.68,0,2.09,1.4,3.41,4,3.49Z" fill="url(#linear-gradient-19)"/>
      <path d="m300.53,289.17c-.59-.04-1.7,1.21-1.77,1.96-.05.59,1.13,1.29,2.15,2.34.89-1.15,2.06-2.17,1.88-2.54-.39-.81-1.44-1.72-2.26-1.77Z" fill="url(#linear-gradient-20)"/>
      <path d="m354.35,290.96c-.05-.65-1.33-1.79-1.87-1.69-.84.16-1.52,1.19-2.27,1.85.64.67,1.29,1.34,2.31,2.4.86-1.12,1.88-1.89,1.83-2.57Z" fill="url(#linear-gradient-21)"/>
      <path d="m314.41,289.19c-.8.12-1.7,1.15-2.05,2.01-.15.35,1.01,1.24,1.95,2.31.94-1.08,2.09-1.86,1.99-2.43-.14-.77-1.32-1.97-1.89-1.89Z" fill="url(#linear-gradient-22)"/>
    </g>
  </g>
</svg>