<?xml version="1.0" encoding="UTF-8"?>
<svg id="Layer_2" data-name="Layer 2" xmlns="http://www.w3.org/2000/svg" viewBox="0 0 445.73 450.14">
  <defs>
    <style>
      .cls-1 {
        fill: #231f20;
      }
    </style>
  </defs>
  <g id="Layer_1-2" data-name="Layer 1">
    <polygon class="cls-1" points="222.86 0 0 107.69 0 377.39 77.36 377.39 77.36 161.54 366.88 161.54 368.88 377.39 443.73 377.39 445.73 107.69 222.86 0"/>
    <path class="cls-1" d="m310.53,270.62c0-48.25-39.42-87.66-87.66-87.66s-87.66,39.42-87.66,87.66,87.66,179.53,87.66,179.53c0,0,87.66-131.17,87.66-179.53Zm-137.42,1.4c0-27.46,22.29-49.65,49.75-49.65s49.65,22.18,49.65,49.65-22.18,49.76-49.65,49.76-49.75-22.29-49.75-49.76Z"/>
  </g>
</svg>