<svg xmlns="http://www.w3.org/2000/svg" version="1.1" xmlns:xlink="http://www.w3.org/1999/xlink" xmlns:svgjs="http://svgjs.com/svgjs" width="512" height="512" x="0" y="0" viewBox="0 0 512 512" style="enable-background:new 0 0 512 512" xml:space="preserve" class=""><g><path d="m406 301c-57.890625 0-105 47.109375-105 105s47.109375 106 105 106 106-48.109375 106-106-48.109375-105-106-105zm45 120h-60v-60h30v30h30zm0 0" fill="#000000" data-original="#000000" class=""></path><path d="m331 91v-91h-210v91h60v-30h90v30zm0 0" fill="#000000" data-original="#000000" class=""></path><path d="m286 271c74.441406 0 135-60.558594 135-135v-15h-391v15c0 74.441406 61.558594 135 136 135h15v-30h90v30zm0 0" fill="#000000" data-original="#000000" class=""></path><path d="m211 271h30v30h-30zm0 0" fill="#000000" data-original="#000000" class=""></path><path d="m271 406c0-46.011719 23.214844-86.617188 58.464844-111-13.871094 3.800781-28.402344 6-43.464844 6h-15v30h-90v-30h-15c-90.980469 0-166-74.019531-166-165v345h293.851562c-14.402343-21.472656-22.851562-47.257812-22.851562-75zm0 0" fill="#000000" data-original="#000000" class=""></path><path d="m451 279.292969v-143.292969c0 58.5-30.6875 109.855469-76.722656 139.160156 10.222656-2.480468 20.746094-4.160156 31.722656-4.160156 15.855469 0 30.855469 3.25 45 8.292969zm0 0" fill="#000000" data-original="#000000" class=""></path></g></svg>
